solid OpenSCAD_Model
  facet normal 0.146736 0.989176 -0
    outer loop
      vertex 1.17054 5.88471 0
      vertex 0.588102 5.97111 3
      vertex 1.17054 5.88471 3
    endloop
  endfacet
  facet normal 0.146736 0.989176 0
    outer loop
      vertex 0.588102 5.97111 3
      vertex 1.17054 5.88471 0
      vertex 0.588102 5.97111 0
    endloop
  endfacet
  facet normal 0.989176 0.146736 0
    outer loop
      vertex 5.97111 0.588102 3
      vertex 5.88471 1.17054 0
      vertex 5.88471 1.17054 3
    endloop
  endfacet
  facet normal 0.989176 0.146736 0
    outer loop
      vertex 5.88471 1.17054 0
      vertex 5.97111 0.588102 3
      vertex 5.97111 0.588102 0
    endloop
  endfacet
  facet normal 0.998796 0.049065 0
    outer loop
      vertex 6 0 3
      vertex 5.97111 0.588102 0
      vertex 5.97111 0.588102 3
    endloop
  endfacet
  facet normal 0.998796 0.049065 0
    outer loop
      vertex 5.97111 0.588102 0
      vertex 6 0 3
      vertex 6 0 0
    endloop
  endfacet
  facet normal 0.970032 0.242979 0
    outer loop
      vertex 5.88471 1.17054 3
      vertex 5.74164 1.74171 0
      vertex 5.74164 1.74171 3
    endloop
  endfacet
  facet normal 0.970032 0.242979 0
    outer loop
      vertex 5.74164 1.74171 0
      vertex 5.88471 1.17054 3
      vertex 5.88471 1.17054 0
    endloop
  endfacet
  facet normal 0.903989 -0.427556 0
    outer loop
      vertex 5.29153 -2.82838 3
      vertex 5.54328 -2.2961 0
      vertex 5.54328 -2.2961 3
    endloop
  endfacet
  facet normal 0.903989 -0.427556 0
    outer loop
      vertex 5.54328 -2.2961 0
      vertex 5.29153 -2.82838 3
      vertex 5.29153 -2.82838 0
    endloop
  endfacet
  facet normal 0.671558 0.740952 -0
    outer loop
      vertex 4.24264 4.24264 0
      vertex 3.80636 4.63806 3
      vertex 4.24264 4.24264 3
    endloop
  endfacet
  facet normal 0.671558 0.740952 0
    outer loop
      vertex 3.80636 4.63806 3
      vertex 4.24264 4.24264 0
      vertex 3.80636 4.63806 0
    endloop
  endfacet
  facet normal -0.740952 0.671558 0
    outer loop
      vertex -4.63806 3.80636 0
      vertex -4.24264 4.24264 3
      vertex -4.24264 4.24264 0
    endloop
  endfacet
  facet normal -0.740952 0.671558 0
    outer loop
      vertex -4.24264 4.24264 3
      vertex -4.63806 3.80636 0
      vertex -4.63806 3.80636 3
    endloop
  endfacet
  facet normal 0.941546 0.336884 0
    outer loop
      vertex 5.74164 1.74171 3
      vertex 5.54328 2.2961 0
      vertex 5.54328 2.2961 3
    endloop
  endfacet
  facet normal 0.941546 0.336884 0
    outer loop
      vertex 5.54328 2.2961 0
      vertex 5.74164 1.74171 3
      vertex 5.74164 1.74171 0
    endloop
  endfacet
  facet normal -0.049065 0.998796 0
    outer loop
      vertex 0 6 0
      vertex -0.588102 5.97111 3
      vertex 0 6 3
    endloop
  endfacet
  facet normal -0.049065 0.998796 0
    outer loop
      vertex -0.588102 5.97111 3
      vertex 0 6 0
      vertex -0.588102 5.97111 0
    endloop
  endfacet
  facet normal 0.803204 0.595703 0
    outer loop
      vertex 4.98882 3.33342 3
      vertex 4.63806 3.80636 0
      vertex 4.63806 3.80636 3
    endloop
  endfacet
  facet normal 0.803204 0.595703 0
    outer loop
      vertex 4.63806 3.80636 0
      vertex 4.98882 3.33342 3
      vertex 4.98882 3.33342 0
    endloop
  endfacet
  facet normal 0.049065 0.998796 -0
    outer loop
      vertex 0.588102 5.97111 0
      vertex 0 6 3
      vertex 0.588102 5.97111 3
    endloop
  endfacet
  facet normal 0.049065 0.998796 0
    outer loop
      vertex 0 6 3
      vertex 0.588102 5.97111 0
      vertex 0 6 0
    endloop
  endfacet
  facet normal 0.857728 -0.514104 0
    outer loop
      vertex 4.98882 -3.33342 3
      vertex 5.29153 -2.82838 0
      vertex 5.29153 -2.82838 3
    endloop
  endfacet
  facet normal 0.857728 -0.514104 0
    outer loop
      vertex 5.29153 -2.82838 0
      vertex 4.98882 -3.33342 3
      vertex 4.98882 -3.33342 0
    endloop
  endfacet
  facet normal -0.595703 -0.803204 0
    outer loop
      vertex -3.80636 -4.63806 0
      vertex -3.33342 -4.98882 3
      vertex -3.80636 -4.63806 3
    endloop
  endfacet
  facet normal -0.595703 -0.803204 -0
    outer loop
      vertex -3.33342 -4.98882 3
      vertex -3.80636 -4.63806 0
      vertex -3.33342 -4.98882 0
    endloop
  endfacet
  facet normal -0.857728 0.514104 0
    outer loop
      vertex -5.29153 2.82838 0
      vertex -4.98882 3.33342 3
      vertex -4.98882 3.33342 0
    endloop
  endfacet
  facet normal -0.857728 0.514104 0
    outer loop
      vertex -4.98882 3.33342 3
      vertex -5.29153 2.82838 0
      vertex -5.29153 2.82838 3
    endloop
  endfacet
  facet normal 0.857728 0.514104 0
    outer loop
      vertex 5.29153 2.82838 3
      vertex 4.98882 3.33342 0
      vertex 4.98882 3.33342 3
    endloop
  endfacet
  facet normal 0.857728 0.514104 0
    outer loop
      vertex 4.98882 3.33342 0
      vertex 5.29153 2.82838 3
      vertex 5.29153 2.82838 0
    endloop
  endfacet
  facet normal -0.998796 -0.049065 0
    outer loop
      vertex -5.97111 -0.588102 0
      vertex -6 0 3
      vertex -6 0 0
    endloop
  endfacet
  facet normal -0.998796 -0.049065 0
    outer loop
      vertex -6 0 3
      vertex -5.97111 -0.588102 0
      vertex -5.97111 -0.588102 3
    endloop
  endfacet
  facet normal 0.903989 0.427556 0
    outer loop
      vertex 5.54328 2.2961 3
      vertex 5.29153 2.82838 0
      vertex 5.29153 2.82838 3
    endloop
  endfacet
  facet normal 0.903989 0.427556 0
    outer loop
      vertex 5.29153 2.82838 0
      vertex 5.54328 2.2961 3
      vertex 5.54328 2.2961 0
    endloop
  endfacet
  facet normal 0.970032 -0.242979 0
    outer loop
      vertex 5.74164 -1.74171 3
      vertex 5.88471 -1.17054 0
      vertex 5.88471 -1.17054 3
    endloop
  endfacet
  facet normal 0.970032 -0.242979 0
    outer loop
      vertex 5.88471 -1.17054 0
      vertex 5.74164 -1.74171 3
      vertex 5.74164 -1.74171 0
    endloop
  endfacet
  facet normal -0.970032 0.242979 0
    outer loop
      vertex -5.88471 1.17054 0
      vertex -5.74164 1.74171 3
      vertex -5.74164 1.74171 0
    endloop
  endfacet
  facet normal -0.970032 0.242979 0
    outer loop
      vertex -5.74164 1.74171 3
      vertex -5.88471 1.17054 0
      vertex -5.88471 1.17054 3
    endloop
  endfacet
  facet normal -0.970032 -0.242979 0
    outer loop
      vertex -5.74164 -1.74171 0
      vertex -5.88471 -1.17054 3
      vertex -5.88471 -1.17054 0
    endloop
  endfacet
  facet normal -0.970032 -0.242979 0
    outer loop
      vertex -5.88471 -1.17054 3
      vertex -5.74164 -1.74171 0
      vertex -5.74164 -1.74171 3
    endloop
  endfacet
  facet normal 0.336884 0.941546 -0
    outer loop
      vertex 2.2961 5.54328 0
      vertex 1.74171 5.74164 3
      vertex 2.2961 5.54328 3
    endloop
  endfacet
  facet normal 0.336884 0.941546 0
    outer loop
      vertex 1.74171 5.74164 3
      vertex 2.2961 5.54328 0
      vertex 1.74171 5.74164 0
    endloop
  endfacet
  facet normal 0.989176 -0.146736 0
    outer loop
      vertex 5.88471 -1.17054 3
      vertex 5.97111 -0.588102 0
      vertex 5.97111 -0.588102 3
    endloop
  endfacet
  facet normal 0.989176 -0.146736 0
    outer loop
      vertex 5.97111 -0.588102 0
      vertex 5.88471 -1.17054 3
      vertex 5.88471 -1.17054 0
    endloop
  endfacet
  facet normal -0.146736 0.989176 0
    outer loop
      vertex -0.588102 5.97111 0
      vertex -1.17054 5.88471 3
      vertex -0.588102 5.97111 3
    endloop
  endfacet
  facet normal -0.146736 0.989176 0
    outer loop
      vertex -1.17054 5.88471 3
      vertex -0.588102 5.97111 0
      vertex -1.17054 5.88471 0
    endloop
  endfacet
  facet normal -0.671558 0.740952 0
    outer loop
      vertex -3.80636 4.63806 0
      vertex -4.24264 4.24264 3
      vertex -3.80636 4.63806 3
    endloop
  endfacet
  facet normal -0.671558 0.740952 0
    outer loop
      vertex -4.24264 4.24264 3
      vertex -3.80636 4.63806 0
      vertex -4.24264 4.24264 0
    endloop
  endfacet
  facet normal 0 0 -1
    outer loop
      vertex -3.80636 4.63806 0
      vertex -0.7 0.848347 0
      vertex -0.777817 0.777817 0
    endloop
  endfacet
  facet normal 0 0 -1
    outer loop
      vertex 0.55557 -23.1685 0
      vertex 3 -5.18866 0
      vertex 0.634393 -23.227 0
    endloop
  endfacet
  facet normal 0 0 -1
    outer loop
      vertex 0.471396 -23.1181 0
      vertex 3 -5.18866 0
      vertex 0.55557 -23.1685 0
    endloop
  endfacet
  facet normal 0 0 -1
    outer loop
      vertex 0.382683 -23.0761 0
      vertex 3 -5.18866 0
      vertex 0.471396 -23.1181 0
    endloop
  endfacet
  facet normal 0 0 -1
    outer loop
      vertex 0.290284 -23.0431 0
      vertex 3 -5.18866 0
      vertex 0.382683 -23.0761 0
    endloop
  endfacet
  facet normal 0 0 -1
    outer loop
      vertex 0.19509 -23.0192 0
      vertex 3 -5.18866 0
      vertex 0.290284 -23.0431 0
    endloop
  endfacet
  facet normal 0 0 -1
    outer loop
      vertex 0.0980167 -23.0048 0
      vertex 3 -5.18866 0
      vertex 0.19509 -23.0192 0
    endloop
  endfacet
  facet normal -0 0 -1
    outer loop
      vertex 3 -5.18866 0
      vertex 0.0980167 -23.0048 0
      vertex 0.7 -5 0
    endloop
  endfacet
  facet normal 0 0 -1
    outer loop
      vertex 0 -23 0
      vertex 0.7 -5 0
      vertex 0.0980167 -23.0048 0
    endloop
  endfacet
  facet normal 0 0 -1
    outer loop
      vertex -0.7 -5 0
      vertex 0 -23 0
      vertex -0.0980167 -23.0048 0
    endloop
  endfacet
  facet normal 0 0 -1
    outer loop
      vertex -3 -5.18866 0
      vertex -0.0980167 -23.0048 0
      vertex -0.19509 -23.0192 0
    endloop
  endfacet
  facet normal 0 0 -1
    outer loop
      vertex -3 -5.18866 0
      vertex -0.19509 -23.0192 0
      vertex -0.290284 -23.0431 0
    endloop
  endfacet
  facet normal 0 0 -1
    outer loop
      vertex -3 -5.18866 0
      vertex -0.290284 -23.0431 0
      vertex -0.382683 -23.0761 0
    endloop
  endfacet
  facet normal 0 0 -1
    outer loop
      vertex -3 -5.18866 0
      vertex -0.382683 -23.0761 0
      vertex -0.471396 -23.1181 0
    endloop
  endfacet
  facet normal 0 0 -1
    outer loop
      vertex -3 -5.18866 0
      vertex -0.471396 -23.1181 0
      vertex -0.55557 -23.1685 0
    endloop
  endfacet
  facet normal 0 0 -1
    outer loop
      vertex -3 -5.18866 0
      vertex -0.55557 -23.1685 0
      vertex -0.634393 -23.227 0
    endloop
  endfacet
  facet normal 0 0 -1
    outer loop
      vertex 0 -23 0
      vertex -0.7 -5 0
      vertex 0.7 -5 0
    endloop
  endfacet
  facet normal 0 0 -1
    outer loop
      vertex -3 -5.18866 0
      vertex -0.634393 -23.227 0
      vertex -0.707107 -23.2929 0
    endloop
  endfacet
  facet normal 0 0 -1
    outer loop
      vertex -0.0980167 -23.0048 0
      vertex -3 -5.18866 0
      vertex -0.7 -5 0
    endloop
  endfacet
  facet normal 0 0 -1
    outer loop
      vertex -3 -5.18866 0
      vertex -0.707107 -23.2929 0
      vertex -0.77301 -23.3656 0
    endloop
  endfacet
  facet normal 0 0 -1
    outer loop
      vertex -3.33342 -4.98882 0
      vertex -0.7 -5 0
      vertex -3 -5.18866 0
    endloop
  endfacet
  facet normal 0 0 -1
    outer loop
      vertex -3 -5.18866 0
      vertex -0.77301 -23.3656 0
      vertex -0.83147 -23.4444 0
    endloop
  endfacet
  facet normal 0 0 -1
    outer loop
      vertex -0.7 -5 0
      vertex -3.33342 -4.98882 0
      vertex -0.7 -0.848347 0
    endloop
  endfacet
  facet normal 0 0 -1
    outer loop
      vertex -3 -5.18866 0
      vertex -0.83147 -23.4444 0
      vertex -0.881921 -23.5286 0
    endloop
  endfacet
  facet normal 0 0 -1
    outer loop
      vertex -3 -5.18866 0
      vertex -0.881921 -23.5286 0
      vertex -0.923879 -23.6173 0
    endloop
  endfacet
  facet normal 0 0 -1
    outer loop
      vertex -3 -5.18866 0
      vertex -0.923879 -23.6173 0
      vertex -0.95694 -23.7097 0
    endloop
  endfacet
  facet normal 0 0 -1
    outer loop
      vertex -3 -5.18866 0
      vertex -0.95694 -23.7097 0
      vertex -0.980784 -23.8049 0
    endloop
  endfacet
  facet normal 0 0 -1
    outer loop
      vertex -3 -31 0
      vertex -0.980784 -23.8049 0
      vertex -0.995184 -23.902 0
    endloop
  endfacet
  facet normal 0 0 -1
    outer loop
      vertex -3 -31 0
      vertex -0.995184 -23.902 0
      vertex -1 -24 0
    endloop
  endfacet
  facet normal -0 0 -1
    outer loop
      vertex -0.980784 -23.8049 0
      vertex -3 -31 0
      vertex -3 -5.18866 0
    endloop
  endfacet
  facet normal 0 0 -1
    outer loop
      vertex -3.80636 -4.63806 0
      vertex -0.7 -0.848347 0
      vertex -3.33342 -4.98882 0
    endloop
  endfacet
  facet normal -0 0 -1
    outer loop
      vertex -0.7 -0.848347 0
      vertex -3.80636 -4.63806 0
      vertex -0.777817 -0.777817 0
    endloop
  endfacet
  facet normal 0 0 -1
    outer loop
      vertex -4.24264 -4.24264 0
      vertex -0.777817 -0.777817 0
      vertex -3.80636 -4.63806 0
    endloop
  endfacet
  facet normal -0 0 -1
    outer loop
      vertex -0.777817 -0.777817 0
      vertex -4.24264 -4.24264 0
      vertex -0.848347 -0.7 0
    endloop
  endfacet
  facet normal 0 0 -1
    outer loop
      vertex -4.63806 -3.80636 0
      vertex -0.848347 -0.7 0
      vertex -4.24264 -4.24264 0
    endloop
  endfacet
  facet normal 0 0 -1
    outer loop
      vertex -4.98882 -3.33342 0
      vertex -0.848347 -0.7 0
      vertex -4.63806 -3.80636 0
    endloop
  endfacet
  facet normal 0 0 -1
    outer loop
      vertex -4.98882 -3.33342 0
      vertex -5 -0.7 0
      vertex -0.848347 -0.7 0
    endloop
  endfacet
  facet normal 0 0 -1
    outer loop
      vertex -5.54328 -2.2961 0
      vertex -5 -0.7 0
      vertex -5.29153 -2.82838 0
    endloop
  endfacet
  facet normal 0 0 -1
    outer loop
      vertex -5.29153 -2.82838 0
      vertex -5 -0.7 0
      vertex -4.98882 -3.33342 0
    endloop
  endfacet
  facet normal 0 0 -1
    outer loop
      vertex 0.995184 -23.902 0
      vertex 3 -31 0
      vertex 1 -24 0
    endloop
  endfacet
  facet normal 0 0 -1
    outer loop
      vertex 3 -31 0
      vertex 0.995184 -24.098 0
      vertex 1 -24 0
    endloop
  endfacet
  facet normal 0 0 -1
    outer loop
      vertex 3 -31 0
      vertex 0.980784 -24.1951 0
      vertex 0.995184 -24.098 0
    endloop
  endfacet
  facet normal 0 0 -1
    outer loop
      vertex 3 -31 0
      vertex 0.95694 -24.2903 0
      vertex 0.980784 -24.1951 0
    endloop
  endfacet
  facet normal 0 0 -1
    outer loop
      vertex 3 -31 0
      vertex 0.923879 -24.3827 0
      vertex 0.95694 -24.2903 0
    endloop
  endfacet
  facet normal 0 0 -1
    outer loop
      vertex 3 -31 0
      vertex 0.881921 -24.4714 0
      vertex 0.923879 -24.3827 0
    endloop
  endfacet
  facet normal 0 0 -1
    outer loop
      vertex 3 -31 0
      vertex 0.83147 -24.5556 0
      vertex 0.881921 -24.4714 0
    endloop
  endfacet
  facet normal 0 0 -1
    outer loop
      vertex 3 -31 0
      vertex 0.77301 -24.6344 0
      vertex 0.83147 -24.5556 0
    endloop
  endfacet
  facet normal 0 0 -1
    outer loop
      vertex 3 -31 0
      vertex 0.707107 -24.7071 0
      vertex 0.77301 -24.6344 0
    endloop
  endfacet
  facet normal 0 0 -1
    outer loop
      vertex 3 -31 0
      vertex 0.634393 -24.773 0
      vertex 0.707107 -24.7071 0
    endloop
  endfacet
  facet normal 0 0 -1
    outer loop
      vertex 3 -31 0
      vertex 0.55557 -24.8315 0
      vertex 0.634393 -24.773 0
    endloop
  endfacet
  facet normal 0 0 -1
    outer loop
      vertex 3 -31 0
      vertex 0.471396 -24.8819 0
      vertex 0.55557 -24.8315 0
    endloop
  endfacet
  facet normal 0 0 -1
    outer loop
      vertex 3 -31 0
      vertex 0.382683 -24.9239 0
      vertex 0.471396 -24.8819 0
    endloop
  endfacet
  facet normal 0 0 -1
    outer loop
      vertex 3 -31 0
      vertex 0.290284 -24.9569 0
      vertex 0.382683 -24.9239 0
    endloop
  endfacet
  facet normal 0 0 -1
    outer loop
      vertex 3 -31 0
      vertex 0.19509 -24.9808 0
      vertex 0.290284 -24.9569 0
    endloop
  endfacet
  facet normal 0 0 -1
    outer loop
      vertex 3 -31 0
      vertex 0.0980167 -24.9952 0
      vertex 0.19509 -24.9808 0
    endloop
  endfacet
  facet normal 0 0 -1
    outer loop
      vertex 3 -31 0
      vertex 0 -25 0
      vertex 0.0980167 -24.9952 0
    endloop
  endfacet
  facet normal 0 0 -1
    outer loop
      vertex -3 -31 0
      vertex 0 -25 0
      vertex 3 -31 0
    endloop
  endfacet
  facet normal -0 0 -1
    outer loop
      vertex 0 -25 0
      vertex -3 -31 0
      vertex -0.0980167 -24.9952 0
    endloop
  endfacet
  facet normal -0 0 -1
    outer loop
      vertex -0.0980167 -24.9952 0
      vertex -3 -31 0
      vertex -0.19509 -24.9808 0
    endloop
  endfacet
  facet normal -0 0 -1
    outer loop
      vertex -0.19509 -24.9808 0
      vertex -3 -31 0
      vertex -0.290284 -24.9569 0
    endloop
  endfacet
  facet normal -0 0 -1
    outer loop
      vertex -0.290284 -24.9569 0
      vertex -3 -31 0
      vertex -0.382683 -24.9239 0
    endloop
  endfacet
  facet normal -0 0 -1
    outer loop
      vertex -0.382683 -24.9239 0
      vertex -3 -31 0
      vertex -0.471396 -24.8819 0
    endloop
  endfacet
  facet normal -0 0 -1
    outer loop
      vertex -0.471396 -24.8819 0
      vertex -3 -31 0
      vertex -0.55557 -24.8315 0
    endloop
  endfacet
  facet normal -0 0 -1
    outer loop
      vertex -0.55557 -24.8315 0
      vertex -3 -31 0
      vertex -0.634393 -24.773 0
    endloop
  endfacet
  facet normal -0 0 -1
    outer loop
      vertex -0.634393 -24.773 0
      vertex -3 -31 0
      vertex -0.707107 -24.7071 0
    endloop
  endfacet
  facet normal -0 0 -1
    outer loop
      vertex -0.707107 -24.7071 0
      vertex -3 -31 0
      vertex -0.77301 -24.6344 0
    endloop
  endfacet
  facet normal -0 0 -1
    outer loop
      vertex -0.77301 -24.6344 0
      vertex -3 -31 0
      vertex -0.83147 -24.5556 0
    endloop
  endfacet
  facet normal -0 0 -1
    outer loop
      vertex -0.995184 -24.098 0
      vertex -3 -31 0
      vertex -1 -24 0
    endloop
  endfacet
  facet normal -0 0 -1
    outer loop
      vertex -0.980784 -24.1951 0
      vertex -3 -31 0
      vertex -0.995184 -24.098 0
    endloop
  endfacet
  facet normal -0 0 -1
    outer loop
      vertex -0.95694 -24.2903 0
      vertex -3 -31 0
      vertex -0.980784 -24.1951 0
    endloop
  endfacet
  facet normal -0 0 -1
    outer loop
      vertex -0.923879 -24.3827 0
      vertex -3 -31 0
      vertex -0.95694 -24.2903 0
    endloop
  endfacet
  facet normal -0 0 -1
    outer loop
      vertex -0.881921 -24.4714 0
      vertex -3 -31 0
      vertex -0.923879 -24.3827 0
    endloop
  endfacet
  facet normal -0 0 -1
    outer loop
      vertex -0.83147 -24.5556 0
      vertex -3 -31 0
      vertex -0.881921 -24.4714 0
    endloop
  endfacet
  facet normal 0 0 -1
    outer loop
      vertex 5 -0.7 0
      vertex 6 0 0
      vertex 5.97111 -0.588102 0
    endloop
  endfacet
  facet normal 0 0 -1
    outer loop
      vertex 5 -0.7 0
      vertex 5.97111 -0.588102 0
      vertex 5.88471 -1.17054 0
    endloop
  endfacet
  facet normal 0 0 -1
    outer loop
      vertex 5 0.7 0
      vertex 6 0 0
      vertex 5 -0.7 0
    endloop
  endfacet
  facet normal 0 0 -1
    outer loop
      vertex 5 -0.7 0
      vertex 5.88471 -1.17054 0
      vertex 5.74164 -1.74171 0
    endloop
  endfacet
  facet normal 0 0 -1
    outer loop
      vertex 6 0 0
      vertex 5 0.7 0
      vertex 5.97111 0.588102 0
    endloop
  endfacet
  facet normal 0 0 -1
    outer loop
      vertex 5 -0.7 0
      vertex 5.74164 -1.74171 0
      vertex 5.54328 -2.2961 0
    endloop
  endfacet
  facet normal 0 0 -1
    outer loop
      vertex 5.97111 0.588102 0
      vertex 5 0.7 0
      vertex 5.88471 1.17054 0
    endloop
  endfacet
  facet normal 0 0 -1
    outer loop
      vertex 5 -0.7 0
      vertex 5.54328 -2.2961 0
      vertex 5.29153 -2.82838 0
    endloop
  endfacet
  facet normal -0 0 -1
    outer loop
      vertex 5.88471 1.17054 0
      vertex 5 0.7 0
      vertex 5.74164 1.74171 0
    endloop
  endfacet
  facet normal -0 0 -1
    outer loop
      vertex 5.74164 1.74171 0
      vertex 5 0.7 0
      vertex 5.54328 2.2961 0
    endloop
  endfacet
  facet normal 0 0 -1
    outer loop
      vertex 4.98882 -3.33342 0
      vertex 5 -0.7 0
      vertex 5.29153 -2.82838 0
    endloop
  endfacet
  facet normal 0 0 -1
    outer loop
      vertex 0.848347 -0.7 0
      vertex 4.98882 -3.33342 0
      vertex 4.63806 -3.80636 0
    endloop
  endfacet
  facet normal 0 0 -1
    outer loop
      vertex 0.848347 -0.7 0
      vertex 4.63806 -3.80636 0
      vertex 4.24264 -4.24264 0
    endloop
  endfacet
  facet normal 0 0 -1
    outer loop
      vertex 0.777817 -0.777817 0
      vertex 4.24264 -4.24264 0
      vertex 3.80636 -4.63806 0
    endloop
  endfacet
  facet normal 0 0 -1
    outer loop
      vertex 0.7 -0.848347 0
      vertex 3.80636 -4.63806 0
      vertex 3.33342 -4.98882 0
    endloop
  endfacet
  facet normal 0 0 -1
    outer loop
      vertex 0.7 -5 0
      vertex 3.33342 -4.98882 0
      vertex 3 -5.18866 0
    endloop
  endfacet
  facet normal 0 0 -1
    outer loop
      vertex 0.980784 -23.8049 0
      vertex 3 -31 0
      vertex 0.995184 -23.902 0
    endloop
  endfacet
  facet normal 0 0 -1
    outer loop
      vertex 3 -31 0
      vertex 0.980784 -23.8049 0
      vertex 3 -5.18866 0
    endloop
  endfacet
  facet normal 0 0 -1
    outer loop
      vertex 0.95694 -23.7097 0
      vertex 3 -5.18866 0
      vertex 0.980784 -23.8049 0
    endloop
  endfacet
  facet normal 0 0 -1
    outer loop
      vertex 0.923879 -23.6173 0
      vertex 3 -5.18866 0
      vertex 0.95694 -23.7097 0
    endloop
  endfacet
  facet normal 0 0 -1
    outer loop
      vertex 0.881921 -23.5286 0
      vertex 3 -5.18866 0
      vertex 0.923879 -23.6173 0
    endloop
  endfacet
  facet normal 0 0 -1
    outer loop
      vertex 4.98882 -3.33342 0
      vertex 0.848347 -0.7 0
      vertex 5 -0.7 0
    endloop
  endfacet
  facet normal 0 0 -1
    outer loop
      vertex 0.83147 -23.4444 0
      vertex 3 -5.18866 0
      vertex 0.881921 -23.5286 0
    endloop
  endfacet
  facet normal 0 0 -1
    outer loop
      vertex 0.77301 -23.3656 0
      vertex 3 -5.18866 0
      vertex 0.83147 -23.4444 0
    endloop
  endfacet
  facet normal -0 0 -1
    outer loop
      vertex 3.33342 -4.98882 0
      vertex 0.7 -5 0
      vertex 0.7 -0.848347 0
    endloop
  endfacet
  facet normal 0 0 -1
    outer loop
      vertex 0.707107 -23.2929 0
      vertex 3 -5.18866 0
      vertex 0.77301 -23.3656 0
    endloop
  endfacet
  facet normal 0 0 -1
    outer loop
      vertex 0.634393 -23.227 0
      vertex 3 -5.18866 0
      vertex 0.707107 -23.2929 0
    endloop
  endfacet
  facet normal 0 0 -1
    outer loop
      vertex 4.24264 -4.24264 0
      vertex 0.777817 -0.777817 0
      vertex 0.848347 -0.7 0
    endloop
  endfacet
  facet normal 0 0 -1
    outer loop
      vertex 3.80636 -4.63806 0
      vertex 0.7 -0.848347 0
      vertex 0.777817 -0.777817 0
    endloop
  endfacet
  facet normal -0 0 -1
    outer loop
      vertex 5.54328 2.2961 0
      vertex 5 0.7 0
      vertex 5.29153 2.82838 0
    endloop
  endfacet
  facet normal 0 0 -1
    outer loop
      vertex 5 0.7 0
      vertex 4.98882 3.33342 0
      vertex 5.29153 2.82838 0
    endloop
  endfacet
  facet normal 0 0 -1
    outer loop
      vertex 0.848347 0.7 0
      vertex 4.98882 3.33342 0
      vertex 5 0.7 0
    endloop
  endfacet
  facet normal -0 0 -1
    outer loop
      vertex 4.98882 3.33342 0
      vertex 0.848347 0.7 0
      vertex 4.63806 3.80636 0
    endloop
  endfacet
  facet normal -0 0 -1
    outer loop
      vertex 4.63806 3.80636 0
      vertex 0.848347 0.7 0
      vertex 4.24264 4.24264 0
    endloop
  endfacet
  facet normal 0 0 -1
    outer loop
      vertex 0.777817 0.777817 0
      vertex 4.24264 4.24264 0
      vertex 0.848347 0.7 0
    endloop
  endfacet
  facet normal -0 0 -1
    outer loop
      vertex 4.24264 4.24264 0
      vertex 0.777817 0.777817 0
      vertex 3.80636 4.63806 0
    endloop
  endfacet
  facet normal 0 0 -1
    outer loop
      vertex 0.7 0.848347 0
      vertex 3.80636 4.63806 0
      vertex 0.777817 0.777817 0
    endloop
  endfacet
  facet normal 0 0 -1
    outer loop
      vertex 0.7 5 0
      vertex 3.33342 4.98882 0
      vertex 0.7 0.848347 0
    endloop
  endfacet
  facet normal -0 0 -1
    outer loop
      vertex 2.2961 5.54328 0
      vertex 0.7 5 0
      vertex 1.74171 5.74164 0
    endloop
  endfacet
  facet normal -0 0 -1
    outer loop
      vertex 3.80636 4.63806 0
      vertex 0.7 0.848347 0
      vertex 3.33342 4.98882 0
    endloop
  endfacet
  facet normal 0 0 -1
    outer loop
      vertex 3.33342 4.98882 0
      vertex 0.7 5 0
      vertex 2.82838 5.29153 0
    endloop
  endfacet
  facet normal -0 0 -1
    outer loop
      vertex 2.82838 5.29153 0
      vertex 0.7 5 0
      vertex 2.2961 5.54328 0
    endloop
  endfacet
  facet normal -0 0 -1
    outer loop
      vertex 1.74171 5.74164 0
      vertex 0.7 5 0
      vertex 1.17054 5.88471 0
    endloop
  endfacet
  facet normal 0 0 -1
    outer loop
      vertex 0.7 5 0
      vertex 0.588102 5.97111 0
      vertex 1.17054 5.88471 0
    endloop
  endfacet
  facet normal 0 0 -1
    outer loop
      vertex 0.7 5 0
      vertex 0 6 0
      vertex 0.588102 5.97111 0
    endloop
  endfacet
  facet normal 0 0 -1
    outer loop
      vertex -0.7 5 0
      vertex 0 6 0
      vertex 0.7 5 0
    endloop
  endfacet
  facet normal 0 0 -1
    outer loop
      vertex 0 6 0
      vertex -0.7 5 0
      vertex -0.588102 5.97111 0
    endloop
  endfacet
  facet normal 0 0 -1
    outer loop
      vertex -4.24264 4.24264 0
      vertex -0.777817 0.777817 0
      vertex -0.848347 0.7 0
    endloop
  endfacet
  facet normal 0 0 -1
    outer loop
      vertex -0.7 5 0
      vertex -1.17054 5.88471 0
      vertex -0.588102 5.97111 0
    endloop
  endfacet
  facet normal 0 0 -1
    outer loop
      vertex -0.7 0.848347 0
      vertex -3.33342 4.98882 0
      vertex -0.7 5 0
    endloop
  endfacet
  facet normal 0 0 -1
    outer loop
      vertex -0.7 5 0
      vertex -1.74171 5.74164 0
      vertex -1.17054 5.88471 0
    endloop
  endfacet
  facet normal 0 0 -1
    outer loop
      vertex -0.7 5 0
      vertex -2.2961 5.54328 0
      vertex -1.74171 5.74164 0
    endloop
  endfacet
  facet normal 0 0 -1
    outer loop
      vertex -0.7 5 0
      vertex -2.82838 5.29153 0
      vertex -2.2961 5.54328 0
    endloop
  endfacet
  facet normal -0 0 -1
    outer loop
      vertex -0.7 5 0
      vertex -3.33342 4.98882 0
      vertex -2.82838 5.29153 0
    endloop
  endfacet
  facet normal 0 0 -1
    outer loop
      vertex -0.7 0.848347 0
      vertex -3.80636 4.63806 0
      vertex -3.33342 4.98882 0
    endloop
  endfacet
  facet normal 0 0 -1
    outer loop
      vertex -0.777817 0.777817 0
      vertex -4.24264 4.24264 0
      vertex -3.80636 4.63806 0
    endloop
  endfacet
  facet normal 0 0 -1
    outer loop
      vertex -0.848347 0.7 0
      vertex -4.63806 3.80636 0
      vertex -4.24264 4.24264 0
    endloop
  endfacet
  facet normal 0 0 -1
    outer loop
      vertex -0.848347 0.7 0
      vertex -4.98882 3.33342 0
      vertex -4.63806 3.80636 0
    endloop
  endfacet
  facet normal 0 0 -1
    outer loop
      vertex -5 0.7 0
      vertex -4.98882 3.33342 0
      vertex -0.848347 0.7 0
    endloop
  endfacet
  facet normal 0 0 -1
    outer loop
      vertex -5.74164 -1.74171 0
      vertex -5 -0.7 0
      vertex -5.54328 -2.2961 0
    endloop
  endfacet
  facet normal 0 0 -1
    outer loop
      vertex -5 0.7 0
      vertex -5.29153 2.82838 0
      vertex -4.98882 3.33342 0
    endloop
  endfacet
  facet normal 0 0 -1
    outer loop
      vertex -5.88471 -1.17054 0
      vertex -5 -0.7 0
      vertex -5.74164 -1.74171 0
    endloop
  endfacet
  facet normal 0 0 -1
    outer loop
      vertex -5 0.7 0
      vertex -5.54328 2.2961 0
      vertex -5.29153 2.82838 0
    endloop
  endfacet
  facet normal 0 0 -1
    outer loop
      vertex -5.97111 -0.588102 0
      vertex -5 -0.7 0
      vertex -5.88471 -1.17054 0
    endloop
  endfacet
  facet normal 0 0 -1
    outer loop
      vertex -5 0.7 0
      vertex -5.74164 1.74171 0
      vertex -5.54328 2.2961 0
    endloop
  endfacet
  facet normal 0 0 -1
    outer loop
      vertex -6 0 0
      vertex -5 -0.7 0
      vertex -5.97111 -0.588102 0
    endloop
  endfacet
  facet normal 0 0 -1
    outer loop
      vertex -5 0.7 0
      vertex -5.88471 1.17054 0
      vertex -5.74164 1.74171 0
    endloop
  endfacet
  facet normal 0 0 -1
    outer loop
      vertex -5 -0.7 0
      vertex -6 0 0
      vertex -5 0.7 0
    endloop
  endfacet
  facet normal -0 0 -1
    outer loop
      vertex -5 0.7 0
      vertex -5.97111 0.588102 0
      vertex -5.88471 1.17054 0
    endloop
  endfacet
  facet normal 0 0 -1
    outer loop
      vertex -5 0.7 0
      vertex -6 0 0
      vertex -5.97111 0.588102 0
    endloop
  endfacet
  facet normal -0.595703 0.803204 0
    outer loop
      vertex -3.33342 4.98882 0
      vertex -3.80636 4.63806 3
      vertex -3.33342 4.98882 3
    endloop
  endfacet
  facet normal -0.595703 0.803204 0
    outer loop
      vertex -3.80636 4.63806 3
      vertex -3.33342 4.98882 0
      vertex -3.80636 4.63806 0
    endloop
  endfacet
  facet normal 0.242979 0.970032 -0
    outer loop
      vertex 1.74171 5.74164 0
      vertex 1.17054 5.88471 3
      vertex 1.74171 5.74164 3
    endloop
  endfacet
  facet normal 0.242979 0.970032 0
    outer loop
      vertex 1.17054 5.88471 3
      vertex 1.74171 5.74164 0
      vertex 1.17054 5.88471 0
    endloop
  endfacet
  facet normal 0.998796 -0.049065 0
    outer loop
      vertex 5.97111 -0.588102 3
      vertex 6 0 0
      vertex 6 0 3
    endloop
  endfacet
  facet normal 0.998796 -0.049065 0
    outer loop
      vertex 6 0 0
      vertex 5.97111 -0.588102 3
      vertex 5.97111 -0.588102 0
    endloop
  endfacet
  facet normal -0.427556 0.903989 0
    outer loop
      vertex -2.2961 5.54328 0
      vertex -2.82838 5.29153 3
      vertex -2.2961 5.54328 3
    endloop
  endfacet
  facet normal -0.427556 0.903989 0
    outer loop
      vertex -2.82838 5.29153 3
      vertex -2.2961 5.54328 0
      vertex -2.82838 5.29153 0
    endloop
  endfacet
  facet normal -0.941546 -0.336884 0
    outer loop
      vertex -5.54328 -2.2961 0
      vertex -5.74164 -1.74171 3
      vertex -5.74164 -1.74171 0
    endloop
  endfacet
  facet normal -0.941546 -0.336884 0
    outer loop
      vertex -5.74164 -1.74171 3
      vertex -5.54328 -2.2961 0
      vertex -5.54328 -2.2961 3
    endloop
  endfacet
  facet normal 0.514104 0.857728 -0
    outer loop
      vertex 3.33342 4.98882 0
      vertex 2.82838 5.29153 3
      vertex 3.33342 4.98882 3
    endloop
  endfacet
  facet normal 0.514104 0.857728 0
    outer loop
      vertex 2.82838 5.29153 3
      vertex 3.33342 4.98882 0
      vertex 2.82838 5.29153 0
    endloop
  endfacet
  facet normal 0.595703 0.803204 -0
    outer loop
      vertex 3.80636 4.63806 0
      vertex 3.33342 4.98882 3
      vertex 3.80636 4.63806 3
    endloop
  endfacet
  facet normal 0.595703 0.803204 0
    outer loop
      vertex 3.33342 4.98882 3
      vertex 3.80636 4.63806 0
      vertex 3.33342 4.98882 0
    endloop
  endfacet
  facet normal 0.740952 -0.671558 0
    outer loop
      vertex 4.24264 -4.24264 3
      vertex 4.63806 -3.80636 0
      vertex 4.63806 -3.80636 3
    endloop
  endfacet
  facet normal 0.740952 -0.671558 0
    outer loop
      vertex 4.63806 -3.80636 0
      vertex 4.24264 -4.24264 3
      vertex 4.24264 -4.24264 0
    endloop
  endfacet
  facet normal 0.803204 -0.595703 0
    outer loop
      vertex 4.63806 -3.80636 3
      vertex 4.98882 -3.33342 0
      vertex 4.98882 -3.33342 3
    endloop
  endfacet
  facet normal 0.803204 -0.595703 0
    outer loop
      vertex 4.98882 -3.33342 0
      vertex 4.63806 -3.80636 3
      vertex 4.63806 -3.80636 0
    endloop
  endfacet
  facet normal 0.941546 -0.336884 0
    outer loop
      vertex 5.54328 -2.2961 3
      vertex 5.74164 -1.74171 0
      vertex 5.74164 -1.74171 3
    endloop
  endfacet
  facet normal 0.941546 -0.336884 0
    outer loop
      vertex 5.74164 -1.74171 0
      vertex 5.54328 -2.2961 3
      vertex 5.54328 -2.2961 0
    endloop
  endfacet
  facet normal -0.242979 0.970032 0
    outer loop
      vertex -1.17054 5.88471 0
      vertex -1.74171 5.74164 3
      vertex -1.17054 5.88471 3
    endloop
  endfacet
  facet normal -0.242979 0.970032 0
    outer loop
      vertex -1.74171 5.74164 3
      vertex -1.17054 5.88471 0
      vertex -1.74171 5.74164 0
    endloop
  endfacet
  facet normal -0.903989 -0.427556 0
    outer loop
      vertex -5.29153 -2.82838 0
      vertex -5.54328 -2.2961 3
      vertex -5.54328 -2.2961 0
    endloop
  endfacet
  facet normal -0.903989 -0.427556 0
    outer loop
      vertex -5.54328 -2.2961 3
      vertex -5.29153 -2.82838 0
      vertex -5.29153 -2.82838 3
    endloop
  endfacet
  facet normal -0.989176 0.146736 0
    outer loop
      vertex -5.97111 0.588102 0
      vertex -5.88471 1.17054 3
      vertex -5.88471 1.17054 0
    endloop
  endfacet
  facet normal -0.989176 0.146736 0
    outer loop
      vertex -5.88471 1.17054 3
      vertex -5.97111 0.588102 0
      vertex -5.97111 0.588102 3
    endloop
  endfacet
  facet normal 0.427556 0.903989 -0
    outer loop
      vertex 2.82838 5.29153 0
      vertex 2.2961 5.54328 3
      vertex 2.82838 5.29153 3
    endloop
  endfacet
  facet normal 0.427556 0.903989 0
    outer loop
      vertex 2.2961 5.54328 3
      vertex 2.82838 5.29153 0
      vertex 2.2961 5.54328 0
    endloop
  endfacet
  facet normal -0.740952 -0.671558 0
    outer loop
      vertex -4.24264 -4.24264 0
      vertex -4.63806 -3.80636 3
      vertex -4.63806 -3.80636 0
    endloop
  endfacet
  facet normal -0.740952 -0.671558 0
    outer loop
      vertex -4.63806 -3.80636 3
      vertex -4.24264 -4.24264 0
      vertex -4.24264 -4.24264 3
    endloop
  endfacet
  facet normal -0.857728 -0.514104 0
    outer loop
      vertex -4.98882 -3.33342 0
      vertex -5.29153 -2.82838 3
      vertex -5.29153 -2.82838 0
    endloop
  endfacet
  facet normal -0.857728 -0.514104 0
    outer loop
      vertex -5.29153 -2.82838 3
      vertex -4.98882 -3.33342 0
      vertex -4.98882 -3.33342 3
    endloop
  endfacet
  facet normal -0.336884 0.941546 0
    outer loop
      vertex -1.74171 5.74164 0
      vertex -2.2961 5.54328 3
      vertex -1.74171 5.74164 3
    endloop
  endfacet
  facet normal -0.336884 0.941546 0
    outer loop
      vertex -2.2961 5.54328 3
      vertex -1.74171 5.74164 0
      vertex -2.2961 5.54328 0
    endloop
  endfacet
  facet normal -0.514095 -0.857733 0
    outer loop
      vertex -3.33342 -4.98882 0
      vertex -3 -5.18866 3
      vertex -3.33342 -4.98882 3
    endloop
  endfacet
  facet normal -0.514095 -0.857733 -0
    outer loop
      vertex -3 -5.18866 3
      vertex -3.33342 -4.98882 0
      vertex -3 -5.18866 0
    endloop
  endfacet
  facet normal -0.941546 0.336884 0
    outer loop
      vertex -5.74164 1.74171 0
      vertex -5.54328 2.2961 3
      vertex -5.54328 2.2961 0
    endloop
  endfacet
  facet normal -0.941546 0.336884 0
    outer loop
      vertex -5.54328 2.2961 3
      vertex -5.74164 1.74171 0
      vertex -5.74164 1.74171 3
    endloop
  endfacet
  facet normal 0.595703 -0.803204 0
    outer loop
      vertex 3.33342 -4.98882 0
      vertex 3.80636 -4.63806 3
      vertex 3.33342 -4.98882 3
    endloop
  endfacet
  facet normal 0.595703 -0.803204 0
    outer loop
      vertex 3.80636 -4.63806 3
      vertex 3.33342 -4.98882 0
      vertex 3.80636 -4.63806 0
    endloop
  endfacet
  facet normal 0.740952 0.671558 0
    outer loop
      vertex 4.63806 3.80636 3
      vertex 4.24264 4.24264 0
      vertex 4.24264 4.24264 3
    endloop
  endfacet
  facet normal 0.740952 0.671558 0
    outer loop
      vertex 4.24264 4.24264 0
      vertex 4.63806 3.80636 3
      vertex 4.63806 3.80636 0
    endloop
  endfacet
  facet normal -0.803204 -0.595703 0
    outer loop
      vertex -4.63806 -3.80636 0
      vertex -4.98882 -3.33342 3
      vertex -4.98882 -3.33342 0
    endloop
  endfacet
  facet normal -0.803204 -0.595703 0
    outer loop
      vertex -4.98882 -3.33342 3
      vertex -4.63806 -3.80636 0
      vertex -4.63806 -3.80636 3
    endloop
  endfacet
  facet normal -0.514104 0.857728 0
    outer loop
      vertex -2.82838 5.29153 0
      vertex -3.33342 4.98882 3
      vertex -2.82838 5.29153 3
    endloop
  endfacet
  facet normal -0.514104 0.857728 0
    outer loop
      vertex -3.33342 4.98882 3
      vertex -2.82838 5.29153 0
      vertex -3.33342 4.98882 0
    endloop
  endfacet
  facet normal -0.989176 -0.146736 0
    outer loop
      vertex -5.88471 -1.17054 0
      vertex -5.97111 -0.588102 3
      vertex -5.97111 -0.588102 0
    endloop
  endfacet
  facet normal -0.989176 -0.146736 0
    outer loop
      vertex -5.97111 -0.588102 3
      vertex -5.88471 -1.17054 0
      vertex -5.88471 -1.17054 3
    endloop
  endfacet
  facet normal -0.903989 0.427556 0
    outer loop
      vertex -5.54328 2.2961 0
      vertex -5.29153 2.82838 3
      vertex -5.29153 2.82838 0
    endloop
  endfacet
  facet normal -0.903989 0.427556 0
    outer loop
      vertex -5.29153 2.82838 3
      vertex -5.54328 2.2961 0
      vertex -5.54328 2.2961 3
    endloop
  endfacet
  facet normal 0.514095 -0.857733 0
    outer loop
      vertex 3 -5.18866 0
      vertex 3.33342 -4.98882 3
      vertex 3 -5.18866 3
    endloop
  endfacet
  facet normal 0.514095 -0.857733 0
    outer loop
      vertex 3.33342 -4.98882 3
      vertex 3 -5.18866 0
      vertex 3.33342 -4.98882 0
    endloop
  endfacet
  facet normal -0.671558 -0.740952 0
    outer loop
      vertex -4.24264 -4.24264 0
      vertex -3.80636 -4.63806 3
      vertex -4.24264 -4.24264 3
    endloop
  endfacet
  facet normal -0.671558 -0.740952 -0
    outer loop
      vertex -3.80636 -4.63806 3
      vertex -4.24264 -4.24264 0
      vertex -3.80636 -4.63806 0
    endloop
  endfacet
  facet normal -0.803204 0.595703 0
    outer loop
      vertex -4.98882 3.33342 0
      vertex -4.63806 3.80636 3
      vertex -4.63806 3.80636 0
    endloop
  endfacet
  facet normal -0.803204 0.595703 0
    outer loop
      vertex -4.63806 3.80636 3
      vertex -4.98882 3.33342 0
      vertex -4.98882 3.33342 3
    endloop
  endfacet
  facet normal -0 0 1
    outer loop
      vertex -3.33342 -4.98882 3
      vertex -0.7 -5 3
      vertex -0.7 -0.848347 3
    endloop
  endfacet
  facet normal 0 0 1
    outer loop
      vertex -0.7 -5 3
      vertex -3 -5.18866 3
      vertex -0.707107 -23.2929 3
    endloop
  endfacet
  facet normal 0 0 1
    outer loop
      vertex -3.80636 -4.63806 3
      vertex -0.7 -0.848347 3
      vertex -0.777817 -0.777817 3
    endloop
  endfacet
  facet normal 0 0 1
    outer loop
      vertex -0.707107 -23.2929 3
      vertex -3 -5.18866 3
      vertex -0.77301 -23.3656 3
    endloop
  endfacet
  facet normal 0 0 1
    outer loop
      vertex -4.24264 -4.24264 3
      vertex -0.777817 -0.777817 3
      vertex -0.848347 -0.7 3
    endloop
  endfacet
  facet normal 0 0 1
    outer loop
      vertex -0.77301 -23.3656 3
      vertex -3 -5.18866 3
      vertex -0.83147 -23.4444 3
    endloop
  endfacet
  facet normal 0 0 1
    outer loop
      vertex -0.83147 -23.4444 3
      vertex -3 -5.18866 3
      vertex -0.881921 -23.5286 3
    endloop
  endfacet
  facet normal 0 0 1
    outer loop
      vertex -0.881921 -23.5286 3
      vertex -3 -5.18866 3
      vertex -0.923879 -23.6173 3
    endloop
  endfacet
  facet normal 0 0 1
    outer loop
      vertex -0.923879 -23.6173 3
      vertex -3 -5.18866 3
      vertex -0.95694 -23.7097 3
    endloop
  endfacet
  facet normal 0 0 1
    outer loop
      vertex -0.95694 -23.7097 3
      vertex -3 -5.18866 3
      vertex -0.980784 -23.8049 3
    endloop
  endfacet
  facet normal 0 0 1
    outer loop
      vertex -3 -31 3
      vertex -0.980784 -23.8049 3
      vertex -3 -5.18866 3
    endloop
  endfacet
  facet normal 0 0 1
    outer loop
      vertex -0.980784 -23.8049 3
      vertex -3 -31 3
      vertex -0.995184 -23.902 3
    endloop
  endfacet
  facet normal 0 0 1
    outer loop
      vertex -0.7 -5 3
      vertex -3.33342 -4.98882 3
      vertex -3 -5.18866 3
    endloop
  endfacet
  facet normal 0 0 1
    outer loop
      vertex -0.7 -0.848347 3
      vertex -3.80636 -4.63806 3
      vertex -3.33342 -4.98882 3
    endloop
  endfacet
  facet normal 0 0 1
    outer loop
      vertex -0.777817 -0.777817 3
      vertex -4.24264 -4.24264 3
      vertex -3.80636 -4.63806 3
    endloop
  endfacet
  facet normal 0 0 1
    outer loop
      vertex -0.848347 -0.7 3
      vertex -4.63806 -3.80636 3
      vertex -4.24264 -4.24264 3
    endloop
  endfacet
  facet normal 0 0 1
    outer loop
      vertex -0.848347 -0.7 3
      vertex -4.98882 -3.33342 3
      vertex -4.63806 -3.80636 3
    endloop
  endfacet
  facet normal -0 0 1
    outer loop
      vertex -5 -0.7 3
      vertex -4.98882 -3.33342 3
      vertex -0.848347 -0.7 3
    endloop
  endfacet
  facet normal -0 0 1
    outer loop
      vertex -5.74164 1.74171 3
      vertex -5 0.7 3
      vertex -5.54328 2.2961 3
    endloop
  endfacet
  facet normal 0 0 1
    outer loop
      vertex -5 -0.7 3
      vertex -5.29153 -2.82838 3
      vertex -4.98882 -3.33342 3
    endloop
  endfacet
  facet normal -0 0 1
    outer loop
      vertex -5.88471 1.17054 3
      vertex -5 0.7 3
      vertex -5.74164 1.74171 3
    endloop
  endfacet
  facet normal 0 0 1
    outer loop
      vertex -5 -0.7 3
      vertex -5.54328 -2.2961 3
      vertex -5.29153 -2.82838 3
    endloop
  endfacet
  facet normal 0 0 1
    outer loop
      vertex -5.97111 0.588102 3
      vertex -5 0.7 3
      vertex -5.88471 1.17054 3
    endloop
  endfacet
  facet normal 0 0 1
    outer loop
      vertex -5 -0.7 3
      vertex -5.74164 -1.74171 3
      vertex -5.54328 -2.2961 3
    endloop
  endfacet
  facet normal 0 0 1
    outer loop
      vertex -6 0 3
      vertex -5 0.7 3
      vertex -5.97111 0.588102 3
    endloop
  endfacet
  facet normal 0 0 1
    outer loop
      vertex -5 -0.7 3
      vertex -5.88471 -1.17054 3
      vertex -5.74164 -1.74171 3
    endloop
  endfacet
  facet normal 0 0 1
    outer loop
      vertex -5 0.7 3
      vertex -6 0 3
      vertex -5 -0.7 3
    endloop
  endfacet
  facet normal 0 0 1
    outer loop
      vertex -5 -0.7 3
      vertex -5.97111 -0.588102 3
      vertex -5.88471 -1.17054 3
    endloop
  endfacet
  facet normal 0 0 1
    outer loop
      vertex -5 -0.7 3
      vertex -6 0 3
      vertex -5.97111 -0.588102 3
    endloop
  endfacet
  facet normal 0 0 1
    outer loop
      vertex 5 0.7 3
      vertex 6 0 3
      vertex 5.97111 0.588102 3
    endloop
  endfacet
  facet normal -0 0 1
    outer loop
      vertex 5 0.7 3
      vertex 5.97111 0.588102 3
      vertex 5.88471 1.17054 3
    endloop
  endfacet
  facet normal 0 0 1
    outer loop
      vertex 5 -0.7 3
      vertex 6 0 3
      vertex 5 0.7 3
    endloop
  endfacet
  facet normal 0 0 1
    outer loop
      vertex 5 0.7 3
      vertex 5.88471 1.17054 3
      vertex 5.74164 1.74171 3
    endloop
  endfacet
  facet normal 0 0 1
    outer loop
      vertex 6 0 3
      vertex 5 -0.7 3
      vertex 5.97111 -0.588102 3
    endloop
  endfacet
  facet normal 0 0 1
    outer loop
      vertex 5 0.7 3
      vertex 5.74164 1.74171 3
      vertex 5.54328 2.2961 3
    endloop
  endfacet
  facet normal 0 0 1
    outer loop
      vertex 5.97111 -0.588102 3
      vertex 5 -0.7 3
      vertex 5.88471 -1.17054 3
    endloop
  endfacet
  facet normal 0 0 1
    outer loop
      vertex 5 0.7 3
      vertex 5.54328 2.2961 3
      vertex 5.29153 2.82838 3
    endloop
  endfacet
  facet normal 0 0 1
    outer loop
      vertex 5.88471 -1.17054 3
      vertex 5 -0.7 3
      vertex 5.74164 -1.74171 3
    endloop
  endfacet
  facet normal 0 0 1
    outer loop
      vertex 5.74164 -1.74171 3
      vertex 5 -0.7 3
      vertex 5.54328 -2.2961 3
    endloop
  endfacet
  facet normal 0 0 1
    outer loop
      vertex 4.98882 3.33342 3
      vertex 5 0.7 3
      vertex 5.29153 2.82838 3
    endloop
  endfacet
  facet normal 0 0 1
    outer loop
      vertex 0.848347 0.7 3
      vertex 4.98882 3.33342 3
      vertex 4.63806 3.80636 3
    endloop
  endfacet
  facet normal 0 0 1
    outer loop
      vertex 0.848347 0.7 3
      vertex 4.63806 3.80636 3
      vertex 4.24264 4.24264 3
    endloop
  endfacet
  facet normal 0 0 1
    outer loop
      vertex 0.777817 0.777817 3
      vertex 4.24264 4.24264 3
      vertex 3.80636 4.63806 3
    endloop
  endfacet
  facet normal 0 0 1
    outer loop
      vertex 0.7 0.848347 3
      vertex 3.80636 4.63806 3
      vertex 3.33342 4.98882 3
    endloop
  endfacet
  facet normal -0 0 1
    outer loop
      vertex 0.7 5 3
      vertex 3.33342 4.98882 3
      vertex 2.82838 5.29153 3
    endloop
  endfacet
  facet normal 0 0 1
    outer loop
      vertex 0.7 5 3
      vertex 2.82838 5.29153 3
      vertex 2.2961 5.54328 3
    endloop
  endfacet
  facet normal 0 0 1
    outer loop
      vertex 0.7 5 3
      vertex 2.2961 5.54328 3
      vertex 1.74171 5.74164 3
    endloop
  endfacet
  facet normal 0 0 1
    outer loop
      vertex 0.7 5 3
      vertex 1.74171 5.74164 3
      vertex 1.17054 5.88471 3
    endloop
  endfacet
  facet normal 0 0 1
    outer loop
      vertex 3.33342 4.98882 3
      vertex 0.7 5 3
      vertex 0.7 0.848347 3
    endloop
  endfacet
  facet normal 0 0 1
    outer loop
      vertex 4.24264 4.24264 3
      vertex 0.777817 0.777817 3
      vertex 0.848347 0.7 3
    endloop
  endfacet
  facet normal 0 0 1
    outer loop
      vertex 4.98882 3.33342 3
      vertex 0.848347 0.7 3
      vertex 5 0.7 3
    endloop
  endfacet
  facet normal 0 0 1
    outer loop
      vertex 0.588102 5.97111 3
      vertex 0.7 5 3
      vertex 1.17054 5.88471 3
    endloop
  endfacet
  facet normal 0 0 1
    outer loop
      vertex 0 6 3
      vertex 0.7 5 3
      vertex 0.588102 5.97111 3
    endloop
  endfacet
  facet normal 0 0 1
    outer loop
      vertex -0.7 5 3
      vertex 0 6 3
      vertex -0.588102 5.97111 3
    endloop
  endfacet
  facet normal 0 0 1
    outer loop
      vertex 0 6 3
      vertex -0.7 5 3
      vertex 0.7 5 3
    endloop
  endfacet
  facet normal -0 0 1
    outer loop
      vertex -3.33342 4.98882 3
      vertex -0.7 0.848347 3
      vertex -0.7 5 3
    endloop
  endfacet
  facet normal -0 0 1
    outer loop
      vertex -3.80636 4.63806 3
      vertex -0.7 0.848347 3
      vertex -3.33342 4.98882 3
    endloop
  endfacet
  facet normal -0 0 1
    outer loop
      vertex -1.17054 5.88471 3
      vertex -0.7 5 3
      vertex -0.588102 5.97111 3
    endloop
  endfacet
  facet normal -0 0 1
    outer loop
      vertex -1.74171 5.74164 3
      vertex -0.7 5 3
      vertex -1.17054 5.88471 3
    endloop
  endfacet
  facet normal -0 0 1
    outer loop
      vertex -2.2961 5.54328 3
      vertex -0.7 5 3
      vertex -1.74171 5.74164 3
    endloop
  endfacet
  facet normal -0 0 1
    outer loop
      vertex -2.82838 5.29153 3
      vertex -0.7 5 3
      vertex -2.2961 5.54328 3
    endloop
  endfacet
  facet normal 0 0 1
    outer loop
      vertex -3.33342 4.98882 3
      vertex -0.7 5 3
      vertex -2.82838 5.29153 3
    endloop
  endfacet
  facet normal 0 0 1
    outer loop
      vertex -0.7 0.848347 3
      vertex -3.80636 4.63806 3
      vertex -0.777817 0.777817 3
    endloop
  endfacet
  facet normal -0 0 1
    outer loop
      vertex -4.24264 4.24264 3
      vertex -0.777817 0.777817 3
      vertex -3.80636 4.63806 3
    endloop
  endfacet
  facet normal 0 0 1
    outer loop
      vertex -0.777817 0.777817 3
      vertex -4.24264 4.24264 3
      vertex -0.848347 0.7 3
    endloop
  endfacet
  facet normal -0 0 1
    outer loop
      vertex -4.63806 3.80636 3
      vertex -0.848347 0.7 3
      vertex -4.24264 4.24264 3
    endloop
  endfacet
  facet normal -0 0 1
    outer loop
      vertex -4.98882 3.33342 3
      vertex -0.848347 0.7 3
      vertex -4.63806 3.80636 3
    endloop
  endfacet
  facet normal 0 0 1
    outer loop
      vertex -4.98882 3.33342 3
      vertex -5 0.7 3
      vertex -0.848347 0.7 3
    endloop
  endfacet
  facet normal -0 0 1
    outer loop
      vertex -5.54328 2.2961 3
      vertex -5 0.7 3
      vertex -5.29153 2.82838 3
    endloop
  endfacet
  facet normal -0 0 1
    outer loop
      vertex -5.29153 2.82838 3
      vertex -5 0.7 3
      vertex -4.98882 3.33342 3
    endloop
  endfacet
  facet normal 0 0 1
    outer loop
      vertex 5.54328 -2.2961 3
      vertex 5 -0.7 3
      vertex 5.29153 -2.82838 3
    endloop
  endfacet
  facet normal 0 0 1
    outer loop
      vertex 5 -0.7 3
      vertex 4.98882 -3.33342 3
      vertex 5.29153 -2.82838 3
    endloop
  endfacet
  facet normal -0 0 1
    outer loop
      vertex 0.848347 -0.7 3
      vertex 4.98882 -3.33342 3
      vertex 5 -0.7 3
    endloop
  endfacet
  facet normal 0 0 1
    outer loop
      vertex 4.98882 -3.33342 3
      vertex 0.848347 -0.7 3
      vertex 4.63806 -3.80636 3
    endloop
  endfacet
  facet normal 0 0 1
    outer loop
      vertex 4.63806 -3.80636 3
      vertex 0.848347 -0.7 3
      vertex 4.24264 -4.24264 3
    endloop
  endfacet
  facet normal -0 0 1
    outer loop
      vertex 0.777817 -0.777817 3
      vertex 4.24264 -4.24264 3
      vertex 0.848347 -0.7 3
    endloop
  endfacet
  facet normal 0 0 1
    outer loop
      vertex 4.24264 -4.24264 3
      vertex 0.777817 -0.777817 3
      vertex 3.80636 -4.63806 3
    endloop
  endfacet
  facet normal -0 0 1
    outer loop
      vertex 0.980784 -23.8049 3
      vertex 3 -31 3
      vertex 3 -5.18866 3
    endloop
  endfacet
  facet normal 0 0 1
    outer loop
      vertex 3 -31 3
      vertex 0.995184 -23.902 3
      vertex 1 -24 3
    endloop
  endfacet
  facet normal 0 0 1
    outer loop
      vertex 3 -31 3
      vertex 0.980784 -23.8049 3
      vertex 0.995184 -23.902 3
    endloop
  endfacet
  facet normal 0 0 1
    outer loop
      vertex 3 -5.18866 3
      vertex 0.95694 -23.7097 3
      vertex 0.980784 -23.8049 3
    endloop
  endfacet
  facet normal 0 0 1
    outer loop
      vertex 3 -5.18866 3
      vertex 0.923879 -23.6173 3
      vertex 0.95694 -23.7097 3
    endloop
  endfacet
  facet normal 0 0 1
    outer loop
      vertex 3 -5.18866 3
      vertex 0.881921 -23.5286 3
      vertex 0.923879 -23.6173 3
    endloop
  endfacet
  facet normal -0 0 1
    outer loop
      vertex 0.7 -0.848347 3
      vertex 3.80636 -4.63806 3
      vertex 0.777817 -0.777817 3
    endloop
  endfacet
  facet normal 0 0 1
    outer loop
      vertex 3.80636 -4.63806 3
      vertex 0.7 -0.848347 3
      vertex 3.33342 -4.98882 3
    endloop
  endfacet
  facet normal 0 0 1
    outer loop
      vertex 0.0980167 -23.0048 3
      vertex 3 -5.18866 3
      vertex 0.7 -5 3
    endloop
  endfacet
  facet normal 0 0 1
    outer loop
      vertex 0.7 -5 3
      vertex 3.33342 -4.98882 3
      vertex 0.7 -0.848347 3
    endloop
  endfacet
  facet normal 0 0 1
    outer loop
      vertex 3 -5.18866 3
      vertex 0.83147 -23.4444 3
      vertex 0.881921 -23.5286 3
    endloop
  endfacet
  facet normal 0 0 1
    outer loop
      vertex 3 -5.18866 3
      vertex 0.77301 -23.3656 3
      vertex 0.83147 -23.4444 3
    endloop
  endfacet
  facet normal 0 0 1
    outer loop
      vertex 3.33342 -4.98882 3
      vertex 0.7 -5 3
      vertex 3 -5.18866 3
    endloop
  endfacet
  facet normal 0 0 1
    outer loop
      vertex 3 -5.18866 3
      vertex 0.707107 -23.2929 3
      vertex 0.77301 -23.3656 3
    endloop
  endfacet
  facet normal 0 0 1
    outer loop
      vertex 3 -5.18866 3
      vertex 0.634393 -23.227 3
      vertex 0.707107 -23.2929 3
    endloop
  endfacet
  facet normal 0 0 1
    outer loop
      vertex 3 -5.18866 3
      vertex 0.55557 -23.1685 3
      vertex 0.634393 -23.227 3
    endloop
  endfacet
  facet normal 0 0 1
    outer loop
      vertex 3 -5.18866 3
      vertex 0.471396 -23.1181 3
      vertex 0.55557 -23.1685 3
    endloop
  endfacet
  facet normal 0 0 1
    outer loop
      vertex 3 -5.18866 3
      vertex 0.382683 -23.0761 3
      vertex 0.471396 -23.1181 3
    endloop
  endfacet
  facet normal 0 0 1
    outer loop
      vertex 3 -5.18866 3
      vertex 0.290284 -23.0431 3
      vertex 0.382683 -23.0761 3
    endloop
  endfacet
  facet normal 0 0 1
    outer loop
      vertex 3 -5.18866 3
      vertex 0.19509 -23.0192 3
      vertex 0.290284 -23.0431 3
    endloop
  endfacet
  facet normal 0 0 1
    outer loop
      vertex 3 -5.18866 3
      vertex 0.0980167 -23.0048 3
      vertex 0.19509 -23.0192 3
    endloop
  endfacet
  facet normal 0 0 1
    outer loop
      vertex 0.7 -5 3
      vertex 0 -23 3
      vertex 0.0980167 -23.0048 3
    endloop
  endfacet
  facet normal -0 0 1
    outer loop
      vertex -0.7 -5 3
      vertex 0 -23 3
      vertex 0.7 -5 3
    endloop
  endfacet
  facet normal 0 0 1
    outer loop
      vertex 0 -23 3
      vertex -0.7 -5 3
      vertex -0.0980167 -23.0048 3
    endloop
  endfacet
  facet normal 0 0 1
    outer loop
      vertex -0.0980167 -23.0048 3
      vertex -0.7 -5 3
      vertex -0.19509 -23.0192 3
    endloop
  endfacet
  facet normal 0 0 1
    outer loop
      vertex -0.19509 -23.0192 3
      vertex -0.7 -5 3
      vertex -0.290284 -23.0431 3
    endloop
  endfacet
  facet normal 0 0 1
    outer loop
      vertex -0.290284 -23.0431 3
      vertex -0.7 -5 3
      vertex -0.382683 -23.0761 3
    endloop
  endfacet
  facet normal 0 0 1
    outer loop
      vertex -0.382683 -23.0761 3
      vertex -0.7 -5 3
      vertex -0.471396 -23.1181 3
    endloop
  endfacet
  facet normal 0 0 1
    outer loop
      vertex -0.471396 -23.1181 3
      vertex -0.7 -5 3
      vertex -0.55557 -23.1685 3
    endloop
  endfacet
  facet normal 0 0 1
    outer loop
      vertex -0.55557 -23.1685 3
      vertex -0.7 -5 3
      vertex -0.634393 -23.227 3
    endloop
  endfacet
  facet normal 0 0 1
    outer loop
      vertex -0.634393 -23.227 3
      vertex -0.7 -5 3
      vertex -0.707107 -23.2929 3
    endloop
  endfacet
  facet normal -0 0 1
    outer loop
      vertex 0.995184 -24.098 3
      vertex 3 -31 3
      vertex 1 -24 3
    endloop
  endfacet
  facet normal -0 0 1
    outer loop
      vertex 0.980784 -24.1951 3
      vertex 3 -31 3
      vertex 0.995184 -24.098 3
    endloop
  endfacet
  facet normal -0 0 1
    outer loop
      vertex 0.95694 -24.2903 3
      vertex 3 -31 3
      vertex 0.980784 -24.1951 3
    endloop
  endfacet
  facet normal -0 0 1
    outer loop
      vertex 0.923879 -24.3827 3
      vertex 3 -31 3
      vertex 0.95694 -24.2903 3
    endloop
  endfacet
  facet normal -0 0 1
    outer loop
      vertex 0.881921 -24.4714 3
      vertex 3 -31 3
      vertex 0.923879 -24.3827 3
    endloop
  endfacet
  facet normal -0 0 1
    outer loop
      vertex 0.83147 -24.5556 3
      vertex 3 -31 3
      vertex 0.881921 -24.4714 3
    endloop
  endfacet
  facet normal -0 0 1
    outer loop
      vertex 0.77301 -24.6344 3
      vertex 3 -31 3
      vertex 0.83147 -24.5556 3
    endloop
  endfacet
  facet normal -0 0 1
    outer loop
      vertex 0.707107 -24.7071 3
      vertex 3 -31 3
      vertex 0.77301 -24.6344 3
    endloop
  endfacet
  facet normal -0 0 1
    outer loop
      vertex 0.634393 -24.773 3
      vertex 3 -31 3
      vertex 0.707107 -24.7071 3
    endloop
  endfacet
  facet normal -0 0 1
    outer loop
      vertex 0.55557 -24.8315 3
      vertex 3 -31 3
      vertex 0.634393 -24.773 3
    endloop
  endfacet
  facet normal -0 0 1
    outer loop
      vertex 0.471396 -24.8819 3
      vertex 3 -31 3
      vertex 0.55557 -24.8315 3
    endloop
  endfacet
  facet normal -0 0 1
    outer loop
      vertex 0.382683 -24.9239 3
      vertex 3 -31 3
      vertex 0.471396 -24.8819 3
    endloop
  endfacet
  facet normal -0 0 1
    outer loop
      vertex 0.290284 -24.9569 3
      vertex 3 -31 3
      vertex 0.382683 -24.9239 3
    endloop
  endfacet
  facet normal -0 0 1
    outer loop
      vertex 0.19509 -24.9808 3
      vertex 3 -31 3
      vertex 0.290284 -24.9569 3
    endloop
  endfacet
  facet normal -0 0 1
    outer loop
      vertex 0.0980167 -24.9952 3
      vertex 3 -31 3
      vertex 0.19509 -24.9808 3
    endloop
  endfacet
  facet normal -0 0 1
    outer loop
      vertex 0 -25 3
      vertex 3 -31 3
      vertex 0.0980167 -24.9952 3
    endloop
  endfacet
  facet normal 0 0 1
    outer loop
      vertex -3 -31 3
      vertex 0 -25 3
      vertex -0.0980167 -24.9952 3
    endloop
  endfacet
  facet normal 0 0 1
    outer loop
      vertex -3 -31 3
      vertex -0.0980167 -24.9952 3
      vertex -0.19509 -24.9808 3
    endloop
  endfacet
  facet normal 0 0 1
    outer loop
      vertex -3 -31 3
      vertex -0.19509 -24.9808 3
      vertex -0.290284 -24.9569 3
    endloop
  endfacet
  facet normal 0 0 1
    outer loop
      vertex -3 -31 3
      vertex -0.290284 -24.9569 3
      vertex -0.382683 -24.9239 3
    endloop
  endfacet
  facet normal 0 0 1
    outer loop
      vertex -3 -31 3
      vertex -0.382683 -24.9239 3
      vertex -0.471396 -24.8819 3
    endloop
  endfacet
  facet normal 0 0 1
    outer loop
      vertex -3 -31 3
      vertex -0.471396 -24.8819 3
      vertex -0.55557 -24.8315 3
    endloop
  endfacet
  facet normal 0 0 1
    outer loop
      vertex -3 -31 3
      vertex -0.55557 -24.8315 3
      vertex -0.634393 -24.773 3
    endloop
  endfacet
  facet normal 0 0 1
    outer loop
      vertex -3 -31 3
      vertex -0.634393 -24.773 3
      vertex -0.707107 -24.7071 3
    endloop
  endfacet
  facet normal 0 0 1
    outer loop
      vertex -3 -31 3
      vertex -0.707107 -24.7071 3
      vertex -0.77301 -24.6344 3
    endloop
  endfacet
  facet normal 0 0 1
    outer loop
      vertex -3 -31 3
      vertex -0.77301 -24.6344 3
      vertex -0.83147 -24.5556 3
    endloop
  endfacet
  facet normal 0 0 1
    outer loop
      vertex -3 -31 3
      vertex -0.83147 -24.5556 3
      vertex -0.881921 -24.4714 3
    endloop
  endfacet
  facet normal 0 0 1
    outer loop
      vertex -0.995184 -23.902 3
      vertex -3 -31 3
      vertex -1 -24 3
    endloop
  endfacet
  facet normal 0 0 1
    outer loop
      vertex 0 -25 3
      vertex -3 -31 3
      vertex 3 -31 3
    endloop
  endfacet
  facet normal 0 0 1
    outer loop
      vertex -0.923879 -24.3827 3
      vertex -3 -31 3
      vertex -0.881921 -24.4714 3
    endloop
  endfacet
  facet normal 0 0 1
    outer loop
      vertex -0.95694 -24.2903 3
      vertex -3 -31 3
      vertex -0.923879 -24.3827 3
    endloop
  endfacet
  facet normal 0 0 1
    outer loop
      vertex -0.980784 -24.1951 3
      vertex -3 -31 3
      vertex -0.95694 -24.2903 3
    endloop
  endfacet
  facet normal 0 0 1
    outer loop
      vertex -0.995184 -24.098 3
      vertex -3 -31 3
      vertex -0.980784 -24.1951 3
    endloop
  endfacet
  facet normal 0 0 1
    outer loop
      vertex -1 -24 3
      vertex -3 -31 3
      vertex -0.995184 -24.098 3
    endloop
  endfacet
  facet normal 0 0 1
    outer loop
      vertex 3.80636 4.63806 3
      vertex 0.7 0.848347 3
      vertex 0.777817 0.777817 3
    endloop
  endfacet
  facet normal -0.998796 0.049065 0
    outer loop
      vertex -6 0 0
      vertex -5.97111 0.588102 3
      vertex -5.97111 0.588102 0
    endloop
  endfacet
  facet normal -0.998796 0.049065 0
    outer loop
      vertex -5.97111 0.588102 3
      vertex -6 0 0
      vertex -6 0 3
    endloop
  endfacet
  facet normal 0.671558 -0.740952 0
    outer loop
      vertex 3.80636 -4.63806 0
      vertex 4.24264 -4.24264 3
      vertex 3.80636 -4.63806 3
    endloop
  endfacet
  facet normal 0.671558 -0.740952 0
    outer loop
      vertex 4.24264 -4.24264 3
      vertex 3.80636 -4.63806 0
      vertex 4.24264 -4.24264 0
    endloop
  endfacet
  facet normal 1 -0 0
    outer loop
      vertex 3 -31 3
      vertex 3 -5.18866 0
      vertex 3 -5.18866 3
    endloop
  endfacet
  facet normal 1 0 0
    outer loop
      vertex 3 -5.18866 0
      vertex 3 -31 3
      vertex 3 -31 0
    endloop
  endfacet
  facet normal -1 0 0
    outer loop
      vertex -3 -31 0
      vertex -3 -5.18866 3
      vertex -3 -5.18866 0
    endloop
  endfacet
  facet normal -1 -0 0
    outer loop
      vertex -3 -5.18866 3
      vertex -3 -31 0
      vertex -3 -31 3
    endloop
  endfacet
  facet normal 0 -1 0
    outer loop
      vertex -3 -31 0
      vertex 3 -31 3
      vertex -3 -31 3
    endloop
  endfacet
  facet normal 0 -1 -0
    outer loop
      vertex 3 -31 3
      vertex -3 -31 0
      vertex 3 -31 0
    endloop
  endfacet
  facet normal 0.740947 -0.671563 0
    outer loop
      vertex -0.848347 0.7 3
      vertex -0.777817 0.777817 0
      vertex -0.777817 0.777817 3
    endloop
  endfacet
  facet normal 0.740947 -0.671563 0
    outer loop
      vertex -0.777817 0.777817 0
      vertex -0.848347 0.7 3
      vertex -0.848347 0.7 0
    endloop
  endfacet
  facet normal 0.671563 -0.740947 0
    outer loop
      vertex -0.777817 0.777817 0
      vertex -0.7 0.848347 3
      vertex -0.777817 0.777817 3
    endloop
  endfacet
  facet normal 0.671563 -0.740947 0
    outer loop
      vertex -0.7 0.848347 3
      vertex -0.777817 0.777817 0
      vertex -0.7 0.848347 0
    endloop
  endfacet
  facet normal -0.671563 -0.740947 0
    outer loop
      vertex 0.7 0.848347 0
      vertex 0.777817 0.777817 3
      vertex 0.7 0.848347 3
    endloop
  endfacet
  facet normal -0.671563 -0.740947 -0
    outer loop
      vertex 0.777817 0.777817 3
      vertex 0.7 0.848347 0
      vertex 0.777817 0.777817 0
    endloop
  endfacet
  facet normal 0.740947 0.671563 0
    outer loop
      vertex -0.777817 -0.777817 3
      vertex -0.848347 -0.7 0
      vertex -0.848347 -0.7 3
    endloop
  endfacet
  facet normal 0.740947 0.671563 0
    outer loop
      vertex -0.848347 -0.7 0
      vertex -0.777817 -0.777817 3
      vertex -0.777817 -0.777817 0
    endloop
  endfacet
  facet normal -0.740947 0.671563 0
    outer loop
      vertex 0.777817 -0.777817 0
      vertex 0.848347 -0.7 3
      vertex 0.848347 -0.7 0
    endloop
  endfacet
  facet normal -0.740947 0.671563 0
    outer loop
      vertex 0.848347 -0.7 3
      vertex 0.777817 -0.777817 0
      vertex 0.777817 -0.777817 3
    endloop
  endfacet
  facet normal 0.671563 0.740947 -0
    outer loop
      vertex -0.7 -0.848347 0
      vertex -0.777817 -0.777817 3
      vertex -0.7 -0.848347 3
    endloop
  endfacet
  facet normal 0.671563 0.740947 0
    outer loop
      vertex -0.777817 -0.777817 3
      vertex -0.7 -0.848347 0
      vertex -0.777817 -0.777817 0
    endloop
  endfacet
  facet normal -0.671563 0.740947 0
    outer loop
      vertex 0.777817 -0.777817 0
      vertex 0.7 -0.848347 3
      vertex 0.777817 -0.777817 3
    endloop
  endfacet
  facet normal -0.671563 0.740947 0
    outer loop
      vertex 0.7 -0.848347 3
      vertex 0.777817 -0.777817 0
      vertex 0.7 -0.848347 0
    endloop
  endfacet
  facet normal -0.740947 -0.671563 0
    outer loop
      vertex 0.848347 0.7 0
      vertex 0.777817 0.777817 3
      vertex 0.777817 0.777817 0
    endloop
  endfacet
  facet normal -0.740947 -0.671563 0
    outer loop
      vertex 0.777817 0.777817 3
      vertex 0.848347 0.7 0
      vertex 0.848347 0.7 3
    endloop
  endfacet
  facet normal -1 0 0
    outer loop
      vertex 5 -0.7 0
      vertex 5 0.7 3
      vertex 5 0.7 0
    endloop
  endfacet
  facet normal -1 -0 0
    outer loop
      vertex 5 0.7 3
      vertex 5 -0.7 0
      vertex 5 -0.7 3
    endloop
  endfacet
  facet normal 1 -0 0
    outer loop
      vertex -5 -0.7 3
      vertex -5 0.7 0
      vertex -5 0.7 3
    endloop
  endfacet
  facet normal 1 0 0
    outer loop
      vertex -5 0.7 0
      vertex -5 -0.7 3
      vertex -5 -0.7 0
    endloop
  endfacet
  facet normal 0 -1 0
    outer loop
      vertex -5 0.7 0
      vertex -0.848347 0.7 3
      vertex -5 0.7 3
    endloop
  endfacet
  facet normal 0 -1 -0
    outer loop
      vertex -0.848347 0.7 3
      vertex -5 0.7 0
      vertex -0.848347 0.7 0
    endloop
  endfacet
  facet normal 0 -1 0
    outer loop
      vertex 0.848347 0.7 0
      vertex 5 0.7 3
      vertex 0.848347 0.7 3
    endloop
  endfacet
  facet normal 0 -1 -0
    outer loop
      vertex 5 0.7 3
      vertex 0.848347 0.7 0
      vertex 5 0.7 0
    endloop
  endfacet
  facet normal 0 1 -0
    outer loop
      vertex -0.848347 -0.7 0
      vertex -5 -0.7 3
      vertex -0.848347 -0.7 3
    endloop
  endfacet
  facet normal 0 1 0
    outer loop
      vertex -5 -0.7 3
      vertex -0.848347 -0.7 0
      vertex -5 -0.7 0
    endloop
  endfacet
  facet normal 0 1 -0
    outer loop
      vertex 5 -0.7 0
      vertex 0.848347 -0.7 3
      vertex 5 -0.7 3
    endloop
  endfacet
  facet normal 0 1 0
    outer loop
      vertex 0.848347 -0.7 3
      vertex 5 -0.7 0
      vertex 0.848347 -0.7 0
    endloop
  endfacet
  facet normal -1 0 0
    outer loop
      vertex 0.7 -5 0
      vertex 0.7 -0.848347 3
      vertex 0.7 -0.848347 0
    endloop
  endfacet
  facet normal -1 -0 0
    outer loop
      vertex 0.7 -0.848347 3
      vertex 0.7 -5 0
      vertex 0.7 -5 3
    endloop
  endfacet
  facet normal -1 0 0
    outer loop
      vertex 0.7 0.848347 0
      vertex 0.7 5 3
      vertex 0.7 5 0
    endloop
  endfacet
  facet normal -1 -0 0
    outer loop
      vertex 0.7 5 3
      vertex 0.7 0.848347 0
      vertex 0.7 0.848347 3
    endloop
  endfacet
  facet normal 1 -0 0
    outer loop
      vertex -0.7 -5 3
      vertex -0.7 -0.848347 0
      vertex -0.7 -0.848347 3
    endloop
  endfacet
  facet normal 1 0 0
    outer loop
      vertex -0.7 -0.848347 0
      vertex -0.7 -5 3
      vertex -0.7 -5 0
    endloop
  endfacet
  facet normal 1 -0 0
    outer loop
      vertex -0.7 0.848347 3
      vertex -0.7 5 0
      vertex -0.7 5 3
    endloop
  endfacet
  facet normal 1 0 0
    outer loop
      vertex -0.7 5 0
      vertex -0.7 0.848347 3
      vertex -0.7 0.848347 0
    endloop
  endfacet
  facet normal 0 -1 0
    outer loop
      vertex -0.7 5 0
      vertex 0.7 5 3
      vertex -0.7 5 3
    endloop
  endfacet
  facet normal 0 -1 -0
    outer loop
      vertex 0.7 5 3
      vertex -0.7 5 0
      vertex 0.7 5 0
    endloop
  endfacet
  facet normal 0 1 -0
    outer loop
      vertex 0.7 -5 0
      vertex -0.7 -5 3
      vertex 0.7 -5 3
    endloop
  endfacet
  facet normal 0 1 0
    outer loop
      vertex -0.7 -5 3
      vertex 0.7 -5 0
      vertex -0.7 -5 0
    endloop
  endfacet
  facet normal -0.941545 0.336888 0
    outer loop
      vertex 0.923879 -24.3827 0
      vertex 0.95694 -24.2903 3
      vertex 0.95694 -24.2903 0
    endloop
  endfacet
  facet normal -0.941545 0.336888 0
    outer loop
      vertex 0.95694 -24.2903 3
      vertex 0.923879 -24.3827 0
      vertex 0.923879 -24.3827 3
    endloop
  endfacet
  facet normal -0.989182 -0.146696 0
    outer loop
      vertex 0.995184 -23.902 0
      vertex 0.980784 -23.8049 3
      vertex 0.980784 -23.8049 0
    endloop
  endfacet
  facet normal -0.989182 -0.146696 0
    outer loop
      vertex 0.980784 -23.8049 3
      vertex 0.995184 -23.902 0
      vertex 0.995184 -23.902 3
    endloop
  endfacet
  facet normal -0.998795 -0.0490836 0
    outer loop
      vertex 1 -24 0
      vertex 0.995184 -23.902 3
      vertex 0.995184 -23.902 0
    endloop
  endfacet
  facet normal -0.998795 -0.0490836 0
    outer loop
      vertex 0.995184 -23.902 3
      vertex 1 -24 0
      vertex 1 -24 3
    endloop
  endfacet
  facet normal -0.970037 -0.242958 0
    outer loop
      vertex 0.980784 -23.8049 0
      vertex 0.95694 -23.7097 3
      vertex 0.95694 -23.7097 0
    endloop
  endfacet
  facet normal -0.970037 -0.242958 0
    outer loop
      vertex 0.95694 -23.7097 3
      vertex 0.980784 -23.8049 0
      vertex 0.980784 -23.8049 3
    endloop
  endfacet
  facet normal -0.243509 -0.969899 0
    outer loop
      vertex 0.19509 -23.0192 0
      vertex 0.290284 -23.0431 3
      vertex 0.19509 -23.0192 3
    endloop
  endfacet
  facet normal -0.243509 -0.969899 -0
    outer loop
      vertex 0.290284 -23.0431 3
      vertex 0.19509 -23.0192 0
      vertex 0.290284 -23.0431 0
    endloop
  endfacet
  facet normal 0.970037 -0.242958 0
    outer loop
      vertex -0.980784 -23.8049 3
      vertex -0.95694 -23.7097 0
      vertex -0.95694 -23.7097 3
    endloop
  endfacet
  facet normal 0.970037 -0.242958 0
    outer loop
      vertex -0.95694 -23.7097 0
      vertex -0.980784 -23.8049 3
      vertex -0.980784 -23.8049 0
    endloop
  endfacet
  facet normal -0.941545 -0.336888 0
    outer loop
      vertex 0.95694 -23.7097 0
      vertex 0.923879 -23.6173 3
      vertex 0.923879 -23.6173 0
    endloop
  endfacet
  facet normal -0.941545 -0.336888 0
    outer loop
      vertex 0.923879 -23.6173 3
      vertex 0.95694 -23.7097 0
      vertex 0.95694 -23.7097 3
    endloop
  endfacet
  facet normal -0.33634 -0.941741 0
    outer loop
      vertex 0.290284 -23.0431 0
      vertex 0.382683 -23.0761 3
      vertex 0.290284 -23.0431 3
    endloop
  endfacet
  facet normal -0.33634 -0.941741 -0
    outer loop
      vertex 0.382683 -23.0761 3
      vertex 0.290284 -23.0431 0
      vertex 0.382683 -23.0761 0
    endloop
  endfacet
  facet normal 0.513713 -0.857962 0
    outer loop
      vertex -0.55557 -23.1685 0
      vertex -0.471396 -23.1181 3
      vertex -0.55557 -23.1685 3
    endloop
  endfacet
  facet normal 0.513713 -0.857962 0
    outer loop
      vertex -0.471396 -23.1181 3
      vertex -0.55557 -23.1685 0
      vertex -0.471396 -23.1181 0
    endloop
  endfacet
  facet normal -0.427904 0.903824 0
    outer loop
      vertex 0.471396 -24.8819 0
      vertex 0.382683 -24.9239 3
      vertex 0.471396 -24.8819 3
    endloop
  endfacet
  facet normal -0.427904 0.903824 0
    outer loop
      vertex 0.382683 -24.9239 3
      vertex 0.471396 -24.8819 0
      vertex 0.382683 -24.9239 0
    endloop
  endfacet
  facet normal -0.146736 0.989176 0
    outer loop
      vertex 0.19509 -24.9808 0
      vertex 0.0980167 -24.9952 3
      vertex 0.19509 -24.9808 3
    endloop
  endfacet
  facet normal -0.146736 0.989176 0
    outer loop
      vertex 0.0980167 -24.9952 3
      vertex 0.19509 -24.9808 0
      vertex 0.0980167 -24.9952 0
    endloop
  endfacet
  facet normal 0.0489126 0.998803 -0
    outer loop
      vertex 0 -25 0
      vertex -0.0980167 -24.9952 3
      vertex 0 -25 3
    endloop
  endfacet
  facet normal 0.0489126 0.998803 0
    outer loop
      vertex -0.0980167 -24.9952 3
      vertex 0 -25 0
      vertex -0.0980167 -24.9952 0
    endloop
  endfacet
  facet normal -0.33634 0.941741 0
    outer loop
      vertex 0.382683 -24.9239 0
      vertex 0.290284 -24.9569 3
      vertex 0.382683 -24.9239 3
    endloop
  endfacet
  facet normal -0.33634 0.941741 0
    outer loop
      vertex 0.290284 -24.9569 3
      vertex 0.382683 -24.9239 0
      vertex 0.290284 -24.9569 0
    endloop
  endfacet
  facet normal 0.857803 -0.513979 0
    outer loop
      vertex -0.881921 -23.5286 3
      vertex -0.83147 -23.4444 0
      vertex -0.83147 -23.4444 3
    endloop
  endfacet
  facet normal 0.857803 -0.513979 0
    outer loop
      vertex -0.83147 -23.4444 0
      vertex -0.881921 -23.5286 3
      vertex -0.881921 -23.5286 0
    endloop
  endfacet
  facet normal -0.740892 0.671624 0
    outer loop
      vertex 0.707107 -24.7071 0
      vertex 0.77301 -24.6344 3
      vertex 0.77301 -24.6344 0
    endloop
  endfacet
  facet normal -0.740892 0.671624 0
    outer loop
      vertex 0.77301 -24.6344 3
      vertex 0.707107 -24.7071 0
      vertex 0.707107 -24.7071 3
    endloop
  endfacet
  facet normal 0.970037 0.242958 0
    outer loop
      vertex -0.95694 -24.2903 3
      vertex -0.980784 -24.1951 0
      vertex -0.980784 -24.1951 3
    endloop
  endfacet
  facet normal 0.970037 0.242958 0
    outer loop
      vertex -0.980784 -24.1951 0
      vertex -0.95694 -24.2903 3
      vertex -0.95694 -24.2903 0
    endloop
  endfacet
  facet normal 0.513713 0.857962 -0
    outer loop
      vertex -0.471396 -24.8819 0
      vertex -0.55557 -24.8315 3
      vertex -0.471396 -24.8819 3
    endloop
  endfacet
  facet normal 0.513713 0.857962 0
    outer loop
      vertex -0.55557 -24.8315 3
      vertex -0.471396 -24.8819 0
      vertex -0.55557 -24.8315 0
    endloop
  endfacet
  facet normal -0.989182 0.146696 0
    outer loop
      vertex 0.980784 -24.1951 0
      vertex 0.995184 -24.098 3
      vertex 0.995184 -24.098 0
    endloop
  endfacet
  facet normal -0.989182 0.146696 0
    outer loop
      vertex 0.995184 -24.098 3
      vertex 0.980784 -24.1951 0
      vertex 0.980784 -24.1951 3
    endloop
  endfacet
  facet normal -0.513713 0.857962 0
    outer loop
      vertex 0.55557 -24.8315 0
      vertex 0.471396 -24.8819 3
      vertex 0.55557 -24.8315 3
    endloop
  endfacet
  facet normal -0.513713 0.857962 0
    outer loop
      vertex 0.471396 -24.8819 3
      vertex 0.55557 -24.8315 0
      vertex 0.471396 -24.8819 0
    endloop
  endfacet
  facet normal 0.740892 0.671624 0
    outer loop
      vertex -0.707107 -24.7071 3
      vertex -0.77301 -24.6344 0
      vertex -0.77301 -24.6344 3
    endloop
  endfacet
  facet normal 0.740892 0.671624 0
    outer loop
      vertex -0.77301 -24.6344 0
      vertex -0.707107 -24.7071 3
      vertex -0.707107 -24.7071 0
    endloop
  endfacet
  facet normal -0.427904 -0.903824 0
    outer loop
      vertex 0.382683 -23.0761 0
      vertex 0.471396 -23.1181 3
      vertex 0.382683 -23.0761 3
    endloop
  endfacet
  facet normal -0.427904 -0.903824 -0
    outer loop
      vertex 0.471396 -23.1181 3
      vertex 0.382683 -23.0761 0
      vertex 0.471396 -23.1181 0
    endloop
  endfacet
  facet normal -0.970037 0.242958 0
    outer loop
      vertex 0.95694 -24.2903 0
      vertex 0.980784 -24.1951 3
      vertex 0.980784 -24.1951 0
    endloop
  endfacet
  facet normal -0.970037 0.242958 0
    outer loop
      vertex 0.980784 -24.1951 3
      vertex 0.95694 -24.2903 0
      vertex 0.95694 -24.2903 3
    endloop
  endfacet
  facet normal 0.595968 -0.803008 0
    outer loop
      vertex -0.634393 -23.227 0
      vertex -0.55557 -23.1685 3
      vertex -0.634393 -23.227 3
    endloop
  endfacet
  facet normal 0.595968 -0.803008 0
    outer loop
      vertex -0.55557 -23.1685 3
      vertex -0.634393 -23.227 0
      vertex -0.55557 -23.1685 0
    endloop
  endfacet
  facet normal 0.33634 -0.941741 0
    outer loop
      vertex -0.382683 -23.0761 0
      vertex -0.290284 -23.0431 3
      vertex -0.382683 -23.0761 3
    endloop
  endfacet
  facet normal 0.33634 -0.941741 0
    outer loop
      vertex -0.290284 -23.0431 3
      vertex -0.382683 -23.0761 0
      vertex -0.290284 -23.0431 0
    endloop
  endfacet
  facet normal -0.146736 -0.989176 0
    outer loop
      vertex 0.0980167 -23.0048 0
      vertex 0.19509 -23.0192 3
      vertex 0.0980167 -23.0048 3
    endloop
  endfacet
  facet normal -0.146736 -0.989176 -0
    outer loop
      vertex 0.19509 -23.0192 3
      vertex 0.0980167 -23.0048 0
      vertex 0.19509 -23.0192 0
    endloop
  endfacet
  facet normal -0.80312 -0.595817 0
    outer loop
      vertex 0.83147 -23.4444 0
      vertex 0.77301 -23.3656 3
      vertex 0.77301 -23.3656 0
    endloop
  endfacet
  facet normal -0.80312 -0.595817 0
    outer loop
      vertex 0.77301 -23.3656 3
      vertex 0.83147 -23.4444 0
      vertex 0.83147 -23.4444 3
    endloop
  endfacet
  facet normal 0.998795 0.0490836 0
    outer loop
      vertex -0.995184 -24.098 3
      vertex -1 -24 0
      vertex -1 -24 3
    endloop
  endfacet
  facet normal 0.998795 0.0490836 0
    outer loop
      vertex -1 -24 0
      vertex -0.995184 -24.098 3
      vertex -0.995184 -24.098 0
    endloop
  endfacet
  facet normal 0.146736 -0.989176 0
    outer loop
      vertex -0.19509 -23.0192 0
      vertex -0.0980167 -23.0048 3
      vertex -0.19509 -23.0192 3
    endloop
  endfacet
  facet normal 0.146736 -0.989176 0
    outer loop
      vertex -0.0980167 -23.0048 3
      vertex -0.19509 -23.0192 0
      vertex -0.0980167 -23.0048 0
    endloop
  endfacet
  facet normal -0.998795 0.0490836 0
    outer loop
      vertex 0.995184 -24.098 0
      vertex 1 -24 3
      vertex 1 -24 0
    endloop
  endfacet
  facet normal -0.998795 0.0490836 0
    outer loop
      vertex 1 -24 3
      vertex 0.995184 -24.098 0
      vertex 0.995184 -24.098 3
    endloop
  endfacet
  facet normal -0.857803 0.513979 0
    outer loop
      vertex 0.83147 -24.5556 0
      vertex 0.881921 -24.4714 3
      vertex 0.881921 -24.4714 0
    endloop
  endfacet
  facet normal -0.857803 0.513979 0
    outer loop
      vertex 0.881921 -24.4714 3
      vertex 0.83147 -24.5556 0
      vertex 0.83147 -24.5556 3
    endloop
  endfacet
  facet normal -0.595968 -0.803008 0
    outer loop
      vertex 0.55557 -23.1685 0
      vertex 0.634393 -23.227 3
      vertex 0.55557 -23.1685 3
    endloop
  endfacet
  facet normal -0.595968 -0.803008 -0
    outer loop
      vertex 0.634393 -23.227 3
      vertex 0.55557 -23.1685 0
      vertex 0.634393 -23.227 0
    endloop
  endfacet
  facet normal 0.671536 0.740972 -0
    outer loop
      vertex -0.634393 -24.773 0
      vertex -0.707107 -24.7071 3
      vertex -0.634393 -24.773 3
    endloop
  endfacet
  facet normal 0.671536 0.740972 0
    outer loop
      vertex -0.707107 -24.7071 3
      vertex -0.634393 -24.773 0
      vertex -0.707107 -24.7071 0
    endloop
  endfacet
  facet normal -0.513713 -0.857962 0
    outer loop
      vertex 0.471396 -23.1181 0
      vertex 0.55557 -23.1685 3
      vertex 0.471396 -23.1181 3
    endloop
  endfacet
  facet normal -0.513713 -0.857962 -0
    outer loop
      vertex 0.55557 -23.1685 3
      vertex 0.471396 -23.1181 0
      vertex 0.55557 -23.1685 0
    endloop
  endfacet
  facet normal -0.0489126 0.998803 0
    outer loop
      vertex 0.0980167 -24.9952 0
      vertex 0 -25 3
      vertex 0.0980167 -24.9952 3
    endloop
  endfacet
  facet normal -0.0489126 0.998803 0
    outer loop
      vertex 0 -25 3
      vertex 0.0980167 -24.9952 0
      vertex 0 -25 0
    endloop
  endfacet
  facet normal -0.80312 0.595817 0
    outer loop
      vertex 0.77301 -24.6344 0
      vertex 0.83147 -24.5556 3
      vertex 0.83147 -24.5556 0
    endloop
  endfacet
  facet normal -0.80312 0.595817 0
    outer loop
      vertex 0.83147 -24.5556 3
      vertex 0.77301 -24.6344 0
      vertex 0.77301 -24.6344 3
    endloop
  endfacet
  facet normal 0.998795 -0.0490836 0
    outer loop
      vertex -1 -24 3
      vertex -0.995184 -23.902 0
      vertex -0.995184 -23.902 3
    endloop
  endfacet
  facet normal 0.998795 -0.0490836 0
    outer loop
      vertex -0.995184 -23.902 0
      vertex -1 -24 3
      vertex -1 -24 0
    endloop
  endfacet
  facet normal -0.243509 0.969899 0
    outer loop
      vertex 0.290284 -24.9569 0
      vertex 0.19509 -24.9808 3
      vertex 0.290284 -24.9569 3
    endloop
  endfacet
  facet normal -0.243509 0.969899 0
    outer loop
      vertex 0.19509 -24.9808 3
      vertex 0.290284 -24.9569 0
      vertex 0.19509 -24.9808 0
    endloop
  endfacet
  facet normal -0.740892 -0.671624 0
    outer loop
      vertex 0.77301 -23.3656 0
      vertex 0.707107 -23.2929 3
      vertex 0.707107 -23.2929 0
    endloop
  endfacet
  facet normal -0.740892 -0.671624 0
    outer loop
      vertex 0.707107 -23.2929 3
      vertex 0.77301 -23.3656 0
      vertex 0.77301 -23.3656 3
    endloop
  endfacet
  facet normal 0.0489126 -0.998803 0
    outer loop
      vertex -0.0980167 -23.0048 0
      vertex 0 -23 3
      vertex -0.0980167 -23.0048 3
    endloop
  endfacet
  facet normal 0.0489126 -0.998803 0
    outer loop
      vertex 0 -23 3
      vertex -0.0980167 -23.0048 0
      vertex 0 -23 0
    endloop
  endfacet
  facet normal -0.0489126 -0.998803 0
    outer loop
      vertex 0 -23 0
      vertex 0.0980167 -23.0048 3
      vertex 0 -23 3
    endloop
  endfacet
  facet normal -0.0489126 -0.998803 -0
    outer loop
      vertex 0.0980167 -23.0048 3
      vertex 0 -23 0
      vertex 0.0980167 -23.0048 0
    endloop
  endfacet
  facet normal -0.903966 -0.427605 0
    outer loop
      vertex 0.923879 -23.6173 0
      vertex 0.881921 -23.5286 3
      vertex 0.881921 -23.5286 0
    endloop
  endfacet
  facet normal -0.903966 -0.427605 0
    outer loop
      vertex 0.881921 -23.5286 3
      vertex 0.923879 -23.6173 0
      vertex 0.923879 -23.6173 3
    endloop
  endfacet
  facet normal -0.903966 0.427605 0
    outer loop
      vertex 0.881921 -24.4714 0
      vertex 0.923879 -24.3827 3
      vertex 0.923879 -24.3827 0
    endloop
  endfacet
  facet normal -0.903966 0.427605 0
    outer loop
      vertex 0.923879 -24.3827 3
      vertex 0.881921 -24.4714 0
      vertex 0.881921 -24.4714 3
    endloop
  endfacet
  facet normal -0.595968 0.803008 0
    outer loop
      vertex 0.634393 -24.773 0
      vertex 0.55557 -24.8315 3
      vertex 0.634393 -24.773 3
    endloop
  endfacet
  facet normal -0.595968 0.803008 0
    outer loop
      vertex 0.55557 -24.8315 3
      vertex 0.634393 -24.773 0
      vertex 0.55557 -24.8315 0
    endloop
  endfacet
  facet normal -0.857803 -0.513979 0
    outer loop
      vertex 0.881921 -23.5286 0
      vertex 0.83147 -23.4444 3
      vertex 0.83147 -23.4444 0
    endloop
  endfacet
  facet normal -0.857803 -0.513979 0
    outer loop
      vertex 0.83147 -23.4444 3
      vertex 0.881921 -23.5286 0
      vertex 0.881921 -23.5286 3
    endloop
  endfacet
  facet normal 0.427904 0.903824 -0
    outer loop
      vertex -0.382683 -24.9239 0
      vertex -0.471396 -24.8819 3
      vertex -0.382683 -24.9239 3
    endloop
  endfacet
  facet normal 0.427904 0.903824 0
    outer loop
      vertex -0.471396 -24.8819 3
      vertex -0.382683 -24.9239 0
      vertex -0.471396 -24.8819 0
    endloop
  endfacet
  facet normal 0.671536 -0.740972 0
    outer loop
      vertex -0.707107 -23.2929 0
      vertex -0.634393 -23.227 3
      vertex -0.707107 -23.2929 3
    endloop
  endfacet
  facet normal 0.671536 -0.740972 0
    outer loop
      vertex -0.634393 -23.227 3
      vertex -0.707107 -23.2929 0
      vertex -0.634393 -23.227 0
    endloop
  endfacet
  facet normal 0.427904 -0.903824 0
    outer loop
      vertex -0.471396 -23.1181 0
      vertex -0.382683 -23.0761 3
      vertex -0.471396 -23.1181 3
    endloop
  endfacet
  facet normal 0.427904 -0.903824 0
    outer loop
      vertex -0.382683 -23.0761 3
      vertex -0.471396 -23.1181 0
      vertex -0.382683 -23.0761 0
    endloop
  endfacet
  facet normal 0.941545 0.336888 0
    outer loop
      vertex -0.923879 -24.3827 3
      vertex -0.95694 -24.2903 0
      vertex -0.95694 -24.2903 3
    endloop
  endfacet
  facet normal 0.941545 0.336888 0
    outer loop
      vertex -0.95694 -24.2903 0
      vertex -0.923879 -24.3827 3
      vertex -0.923879 -24.3827 0
    endloop
  endfacet
  facet normal 0.989182 0.146696 0
    outer loop
      vertex -0.980784 -24.1951 3
      vertex -0.995184 -24.098 0
      vertex -0.995184 -24.098 3
    endloop
  endfacet
  facet normal 0.989182 0.146696 0
    outer loop
      vertex -0.995184 -24.098 0
      vertex -0.980784 -24.1951 3
      vertex -0.980784 -24.1951 0
    endloop
  endfacet
  facet normal -0.671536 -0.740972 0
    outer loop
      vertex 0.634393 -23.227 0
      vertex 0.707107 -23.2929 3
      vertex 0.634393 -23.227 3
    endloop
  endfacet
  facet normal -0.671536 -0.740972 -0
    outer loop
      vertex 0.707107 -23.2929 3
      vertex 0.634393 -23.227 0
      vertex 0.707107 -23.2929 0
    endloop
  endfacet
  facet normal 0.903966 0.427605 0
    outer loop
      vertex -0.881921 -24.4714 3
      vertex -0.923879 -24.3827 0
      vertex -0.923879 -24.3827 3
    endloop
  endfacet
  facet normal 0.903966 0.427605 0
    outer loop
      vertex -0.923879 -24.3827 0
      vertex -0.881921 -24.4714 3
      vertex -0.881921 -24.4714 0
    endloop
  endfacet
  facet normal 0.243509 -0.969899 0
    outer loop
      vertex -0.290284 -23.0431 0
      vertex -0.19509 -23.0192 3
      vertex -0.290284 -23.0431 3
    endloop
  endfacet
  facet normal 0.243509 -0.969899 0
    outer loop
      vertex -0.19509 -23.0192 3
      vertex -0.290284 -23.0431 0
      vertex -0.19509 -23.0192 0
    endloop
  endfacet
  facet normal 0.941545 -0.336888 0
    outer loop
      vertex -0.95694 -23.7097 3
      vertex -0.923879 -23.6173 0
      vertex -0.923879 -23.6173 3
    endloop
  endfacet
  facet normal 0.941545 -0.336888 0
    outer loop
      vertex -0.923879 -23.6173 0
      vertex -0.95694 -23.7097 3
      vertex -0.95694 -23.7097 0
    endloop
  endfacet
  facet normal 0.740892 -0.671624 0
    outer loop
      vertex -0.77301 -23.3656 3
      vertex -0.707107 -23.2929 0
      vertex -0.707107 -23.2929 3
    endloop
  endfacet
  facet normal 0.740892 -0.671624 0
    outer loop
      vertex -0.707107 -23.2929 0
      vertex -0.77301 -23.3656 3
      vertex -0.77301 -23.3656 0
    endloop
  endfacet
  facet normal 0.595968 0.803008 -0
    outer loop
      vertex -0.55557 -24.8315 0
      vertex -0.634393 -24.773 3
      vertex -0.55557 -24.8315 3
    endloop
  endfacet
  facet normal 0.595968 0.803008 0
    outer loop
      vertex -0.634393 -24.773 3
      vertex -0.55557 -24.8315 0
      vertex -0.634393 -24.773 0
    endloop
  endfacet
  facet normal 0.146736 0.989176 -0
    outer loop
      vertex -0.0980167 -24.9952 0
      vertex -0.19509 -24.9808 3
      vertex -0.0980167 -24.9952 3
    endloop
  endfacet
  facet normal 0.146736 0.989176 0
    outer loop
      vertex -0.19509 -24.9808 3
      vertex -0.0980167 -24.9952 0
      vertex -0.19509 -24.9808 0
    endloop
  endfacet
  facet normal 0.80312 0.595817 0
    outer loop
      vertex -0.77301 -24.6344 3
      vertex -0.83147 -24.5556 0
      vertex -0.83147 -24.5556 3
    endloop
  endfacet
  facet normal 0.80312 0.595817 0
    outer loop
      vertex -0.83147 -24.5556 0
      vertex -0.77301 -24.6344 3
      vertex -0.77301 -24.6344 0
    endloop
  endfacet
  facet normal 0.33634 0.941741 -0
    outer loop
      vertex -0.290284 -24.9569 0
      vertex -0.382683 -24.9239 3
      vertex -0.290284 -24.9569 3
    endloop
  endfacet
  facet normal 0.33634 0.941741 0
    outer loop
      vertex -0.382683 -24.9239 3
      vertex -0.290284 -24.9569 0
      vertex -0.382683 -24.9239 0
    endloop
  endfacet
  facet normal 0.243509 0.969899 -0
    outer loop
      vertex -0.19509 -24.9808 0
      vertex -0.290284 -24.9569 3
      vertex -0.19509 -24.9808 3
    endloop
  endfacet
  facet normal 0.243509 0.969899 0
    outer loop
      vertex -0.290284 -24.9569 3
      vertex -0.19509 -24.9808 0
      vertex -0.290284 -24.9569 0
    endloop
  endfacet
  facet normal 0.903966 -0.427605 0
    outer loop
      vertex -0.923879 -23.6173 3
      vertex -0.881921 -23.5286 0
      vertex -0.881921 -23.5286 3
    endloop
  endfacet
  facet normal 0.903966 -0.427605 0
    outer loop
      vertex -0.881921 -23.5286 0
      vertex -0.923879 -23.6173 3
      vertex -0.923879 -23.6173 0
    endloop
  endfacet
  facet normal 0.80312 -0.595817 0
    outer loop
      vertex -0.83147 -23.4444 3
      vertex -0.77301 -23.3656 0
      vertex -0.77301 -23.3656 3
    endloop
  endfacet
  facet normal 0.80312 -0.595817 0
    outer loop
      vertex -0.77301 -23.3656 0
      vertex -0.83147 -23.4444 3
      vertex -0.83147 -23.4444 0
    endloop
  endfacet
  facet normal 0.857803 0.513979 0
    outer loop
      vertex -0.83147 -24.5556 3
      vertex -0.881921 -24.4714 0
      vertex -0.881921 -24.4714 3
    endloop
  endfacet
  facet normal 0.857803 0.513979 0
    outer loop
      vertex -0.881921 -24.4714 0
      vertex -0.83147 -24.5556 3
      vertex -0.83147 -24.5556 0
    endloop
  endfacet
  facet normal 0.989182 -0.146696 0
    outer loop
      vertex -0.995184 -23.902 3
      vertex -0.980784 -23.8049 0
      vertex -0.980784 -23.8049 3
    endloop
  endfacet
  facet normal 0.989182 -0.146696 0
    outer loop
      vertex -0.980784 -23.8049 0
      vertex -0.995184 -23.902 3
      vertex -0.995184 -23.902 0
    endloop
  endfacet
  facet normal -0.671536 0.740972 0
    outer loop
      vertex 0.707107 -24.7071 0
      vertex 0.634393 -24.773 3
      vertex 0.707107 -24.7071 3
    endloop
  endfacet
  facet normal -0.671536 0.740972 0
    outer loop
      vertex 0.634393 -24.773 3
      vertex 0.707107 -24.7071 0
      vertex 0.634393 -24.773 0
    endloop
  endfacet
endsolid OpenSCAD_Model
