solid OpenSCAD_Model
  facet normal 0.0654075 -0.997859 0
    outer loop
      vertex 0 -7 0
      vertex 0.913683 -6.94011 4
      vertex 0 -7 4
    endloop
  endfacet
  facet normal 0.0654075 -0.997859 0
    outer loop
      vertex 0.913683 -6.94011 4
      vertex 0 -7 0
      vertex 0.913683 -6.94011 0
    endloop
  endfacet
  facet normal 0.980786 0.195088 0
    outer loop
      vertex 6.94011 0.913683 4
      vertex 6.76148 1.81173 0
      vertex 6.76148 1.81173 4
    endloop
  endfacet
  facet normal 0.980786 0.195088 0
    outer loop
      vertex 6.76148 1.81173 0
      vertex 6.94011 0.913683 4
      vertex 6.94011 0.913683 0
    endloop
  endfacet
  facet normal 0.997859 0.0654075 0
    outer loop
      vertex 7 0 4
      vertex 6.94011 0.913683 0
      vertex 6.94011 0.913683 4
    endloop
  endfacet
  facet normal 0.997859 0.0654075 0
    outer loop
      vertex 6.94011 0.913683 0
      vertex 7 0 4
      vertex 7 0 0
    endloop
  endfacet
  facet normal 0.321436 0.946931 -0
    outer loop
      vertex 2.67878 6.46716 0
      vertex 1.81173 6.76148 4
      vertex 2.67878 6.46716 4
    endloop
  endfacet
  facet normal 0.321436 0.946931 0
    outer loop
      vertex 1.81173 6.76148 4
      vertex 2.67878 6.46716 0
      vertex 1.81173 6.76148 0
    endloop
  endfacet
  facet normal -0.997859 -0.0654075 0
    outer loop
      vertex -6.94011 -0.913683 0
      vertex -7 0 4
      vertex -7 0 0
    endloop
  endfacet
  facet normal -0.997859 -0.0654075 0
    outer loop
      vertex -7 0 4
      vertex -6.94011 -0.913683 0
      vertex -6.94011 -0.913683 4
    endloop
  endfacet
  facet normal 0.946931 -0.321436 0
    outer loop
      vertex 6.46716 -2.67878 4
      vertex 6.76148 -1.81173 0
      vertex 6.76148 -1.81173 4
    endloop
  endfacet
  facet normal 0.946931 -0.321436 0
    outer loop
      vertex 6.76148 -1.81173 0
      vertex 6.46716 -2.67878 4
      vertex 6.46716 -2.67878 0
    endloop
  endfacet
  facet normal -0.980786 -0.195088 0
    outer loop
      vertex -6.76148 -1.81173 0
      vertex -6.94011 -0.913683 4
      vertex -6.94011 -0.913683 0
    endloop
  endfacet
  facet normal -0.980786 -0.195088 0
    outer loop
      vertex -6.94011 -0.913683 4
      vertex -6.76148 -1.81173 0
      vertex -6.76148 -1.81173 4
    endloop
  endfacet
  facet normal -0.442288 0.896873 0
    outer loop
      vertex -2.67878 6.46716 0
      vertex -3.5 6.06218 4
      vertex -2.67878 6.46716 4
    endloop
  endfacet
  facet normal -0.442288 0.896873 0
    outer loop
      vertex -3.5 6.06218 4
      vertex -2.67878 6.46716 0
      vertex -3.5 6.06218 0
    endloop
  endfacet
  facet normal 0.946931 0.321436 0
    outer loop
      vertex 6.76148 1.81173 4
      vertex 6.46716 2.67878 0
      vertex 6.46716 2.67878 4
    endloop
  endfacet
  facet normal 0.946931 0.321436 0
    outer loop
      vertex 6.46716 2.67878 0
      vertex 6.76148 1.81173 4
      vertex 6.76148 1.81173 0
    endloop
  endfacet
  facet normal 0.896873 -0.442288 0
    outer loop
      vertex 6.06218 -3.5 4
      vertex 6.46716 -2.67878 0
      vertex 6.46716 -2.67878 4
    endloop
  endfacet
  facet normal 0.896873 -0.442288 0
    outer loop
      vertex 6.46716 -2.67878 0
      vertex 6.06218 -3.5 4
      vertex 6.06218 -3.5 0
    endloop
  endfacet
  facet normal -0.321436 0.946931 0
    outer loop
      vertex -1.81173 6.76148 0
      vertex -2.67878 6.46716 4
      vertex -1.81173 6.76148 4
    endloop
  endfacet
  facet normal -0.321436 0.946931 0
    outer loop
      vertex -2.67878 6.46716 4
      vertex -1.81173 6.76148 0
      vertex -2.67878 6.46716 0
    endloop
  endfacet
  facet normal -0.659341 -0.751844 0
    outer loop
      vertex -4.94975 -4.94975 0
      vertex -4.26133 -5.55347 4
      vertex -4.94975 -4.94975 4
    endloop
  endfacet
  facet normal -0.659341 -0.751844 -0
    outer loop
      vertex -4.26133 -5.55347 4
      vertex -4.94975 -4.94975 0
      vertex -4.26133 -5.55347 0
    endloop
  endfacet
  facet normal 0.442288 0.896873 -0
    outer loop
      vertex 3.5 6.06218 0
      vertex 2.67878 6.46716 4
      vertex 3.5 6.06218 4
    endloop
  endfacet
  facet normal 0.442288 0.896873 0
    outer loop
      vertex 2.67878 6.46716 4
      vertex 3.5 6.06218 0
      vertex 2.67878 6.46716 0
    endloop
  endfacet
  facet normal 0.997859 -0.0654075 0
    outer loop
      vertex 6.94011 -0.913683 4
      vertex 7 0 0
      vertex 7 0 4
    endloop
  endfacet
  facet normal 0.997859 -0.0654075 0
    outer loop
      vertex 7 0 0
      vertex 6.94011 -0.913683 4
      vertex 6.94011 -0.913683 0
    endloop
  endfacet
  facet normal 0.831467 -0.555574 0
    outer loop
      vertex 5.55347 -4.26133 4
      vertex 6.06218 -3.5 0
      vertex 6.06218 -3.5 4
    endloop
  endfacet
  facet normal 0.831467 -0.555574 0
    outer loop
      vertex 6.06218 -3.5 0
      vertex 5.55347 -4.26133 4
      vertex 5.55347 -4.26133 0
    endloop
  endfacet
  facet normal -0.751844 -0.659341 0
    outer loop
      vertex -4.94975 -4.94975 0
      vertex -5.55347 -4.26133 4
      vertex -5.55347 -4.26133 0
    endloop
  endfacet
  facet normal -0.751844 -0.659341 0
    outer loop
      vertex -5.55347 -4.26133 4
      vertex -4.94975 -4.94975 0
      vertex -4.94975 -4.94975 4
    endloop
  endfacet
  facet normal 0.751844 0.659341 0
    outer loop
      vertex 5.55347 4.26133 4
      vertex 4.94975 4.94975 0
      vertex 4.94975 4.94975 4
    endloop
  endfacet
  facet normal 0.751844 0.659341 0
    outer loop
      vertex 4.94975 4.94975 0
      vertex 5.55347 4.26133 4
      vertex 5.55347 4.26133 0
    endloop
  endfacet
  facet normal -0.195088 0.980786 0
    outer loop
      vertex -0.913683 6.94011 0
      vertex -1.81173 6.76148 4
      vertex -0.913683 6.94011 4
    endloop
  endfacet
  facet normal -0.195088 0.980786 0
    outer loop
      vertex -1.81173 6.76148 4
      vertex -0.913683 6.94011 0
      vertex -1.81173 6.76148 0
    endloop
  endfacet
  facet normal 0.0654075 0.997859 -0
    outer loop
      vertex 0.913683 6.94011 0
      vertex 0 7 4
      vertex 0.913683 6.94011 4
    endloop
  endfacet
  facet normal 0.0654075 0.997859 0
    outer loop
      vertex 0 7 4
      vertex 0.913683 6.94011 0
      vertex 0 7 0
    endloop
  endfacet
  facet normal 0.659341 0.751844 -0
    outer loop
      vertex 4.94975 4.94975 0
      vertex 4.26133 5.55347 4
      vertex 4.94975 4.94975 4
    endloop
  endfacet
  facet normal 0.659341 0.751844 0
    outer loop
      vertex 4.26133 5.55347 4
      vertex 4.94975 4.94975 0
      vertex 4.26133 5.55347 0
    endloop
  endfacet
  facet normal 0.896873 0.442288 0
    outer loop
      vertex 6.46716 2.67878 4
      vertex 6.06218 3.5 0
      vertex 6.06218 3.5 4
    endloop
  endfacet
  facet normal 0.896873 0.442288 0
    outer loop
      vertex 6.06218 3.5 0
      vertex 6.46716 2.67878 4
      vertex 6.46716 2.67878 0
    endloop
  endfacet
  facet normal 0.321436 -0.946931 0
    outer loop
      vertex 1.81173 -6.76148 0
      vertex 2.67878 -6.46716 4
      vertex 1.81173 -6.76148 4
    endloop
  endfacet
  facet normal 0.321436 -0.946931 0
    outer loop
      vertex 2.67878 -6.46716 4
      vertex 1.81173 -6.76148 0
      vertex 2.67878 -6.46716 0
    endloop
  endfacet
  facet normal 0.442288 -0.896873 0
    outer loop
      vertex 2.67878 -6.46716 0
      vertex 3.5 -6.06218 4
      vertex 2.67878 -6.46716 4
    endloop
  endfacet
  facet normal 0.442288 -0.896873 0
    outer loop
      vertex 3.5 -6.06218 4
      vertex 2.67878 -6.46716 0
      vertex 3.5 -6.06218 0
    endloop
  endfacet
  facet normal 0.751844 -0.659341 0
    outer loop
      vertex 4.94975 -4.94975 4
      vertex 5.55347 -4.26133 0
      vertex 5.55347 -4.26133 4
    endloop
  endfacet
  facet normal 0.751844 -0.659341 0
    outer loop
      vertex 5.55347 -4.26133 0
      vertex 4.94975 -4.94975 4
      vertex 4.94975 -4.94975 0
    endloop
  endfacet
  facet normal 0.980786 -0.195088 0
    outer loop
      vertex 6.76148 -1.81173 4
      vertex 6.94011 -0.913683 0
      vertex 6.94011 -0.913683 4
    endloop
  endfacet
  facet normal 0.980786 -0.195088 0
    outer loop
      vertex 6.94011 -0.913683 0
      vertex 6.76148 -1.81173 4
      vertex 6.76148 -1.81173 0
    endloop
  endfacet
  facet normal -0.0654075 -0.997859 0
    outer loop
      vertex -0.913683 -6.94011 0
      vertex 0 -7 4
      vertex -0.913683 -6.94011 4
    endloop
  endfacet
  facet normal -0.0654075 -0.997859 -0
    outer loop
      vertex 0 -7 4
      vertex -0.913683 -6.94011 0
      vertex 0 -7 0
    endloop
  endfacet
  facet normal 0.831467 0.555574 0
    outer loop
      vertex 6.06218 3.5 4
      vertex 5.55347 4.26133 0
      vertex 5.55347 4.26133 4
    endloop
  endfacet
  facet normal 0.831467 0.555574 0
    outer loop
      vertex 5.55347 4.26133 0
      vertex 6.06218 3.5 4
      vertex 6.06218 3.5 0
    endloop
  endfacet
  facet normal 0 0 -1
    outer loop
      vertex 1.1 0 0
      vertex 7 0 0
      vertex 6.94011 -0.913683 0
    endloop
  endfacet
  facet normal 0 0 -1
    outer loop
      vertex 1.09059 -0.143579 0
      vertex 6.94011 -0.913683 0
      vertex 6.76148 -1.81173 0
    endloop
  endfacet
  facet normal 0 0 -1
    outer loop
      vertex 7 0 0
      vertex 1.1 0 0
      vertex 6.94011 0.913683 0
    endloop
  endfacet
  facet normal 0 0 -1
    outer loop
      vertex 1.06252 -0.2847 0
      vertex 6.76148 -1.81173 0
      vertex 6.46716 -2.67878 0
    endloop
  endfacet
  facet normal 0 0 -1
    outer loop
      vertex 1.09059 0.143579 0
      vertex 6.94011 0.913683 0
      vertex 1.1 0 0
    endloop
  endfacet
  facet normal 0 0 -1
    outer loop
      vertex 1.01627 -0.420951 0
      vertex 6.46716 -2.67878 0
      vertex 6.06218 -3.5 0
    endloop
  endfacet
  facet normal -0 0 -1
    outer loop
      vertex 6.94011 0.913683 0
      vertex 1.09059 0.143579 0
      vertex 6.76148 1.81173 0
    endloop
  endfacet
  facet normal 0 0 -1
    outer loop
      vertex 0.952627 -0.549999 0
      vertex 6.06218 -3.5 0
      vertex 5.55347 -4.26133 0
    endloop
  endfacet
  facet normal 0 0 -1
    outer loop
      vertex 1.06252 0.2847 0
      vertex 6.76148 1.81173 0
      vertex 1.09059 0.143579 0
    endloop
  endfacet
  facet normal 0 0 -1
    outer loop
      vertex 0.872688 -0.669637 0
      vertex 5.55347 -4.26133 0
      vertex 4.94975 -4.94975 0
    endloop
  endfacet
  facet normal -0 0 -1
    outer loop
      vertex 6.76148 1.81173 0
      vertex 1.06252 0.2847 0
      vertex 6.46716 2.67878 0
    endloop
  endfacet
  facet normal 0 0 -1
    outer loop
      vertex 0.777817 -0.777817 0
      vertex 4.94975 -4.94975 0
      vertex 4.26133 -5.55347 0
    endloop
  endfacet
  facet normal 0 0 -1
    outer loop
      vertex 1.01627 0.420951 0
      vertex 6.46716 2.67878 0
      vertex 1.06252 0.2847 0
    endloop
  endfacet
  facet normal 0 0 -1
    outer loop
      vertex 0.669637 -0.872688 0
      vertex 4.26133 -5.55347 0
      vertex 3.5 -6.06218 0
    endloop
  endfacet
  facet normal -0 0 -1
    outer loop
      vertex 6.46716 2.67878 0
      vertex 1.01627 0.420951 0
      vertex 6.06218 3.5 0
    endloop
  endfacet
  facet normal 0 0 -1
    outer loop
      vertex 0.549999 -0.952627 0
      vertex 3.5 -6.06218 0
      vertex 2.67878 -6.46716 0
    endloop
  endfacet
  facet normal 0 0 -1
    outer loop
      vertex 0.952627 0.549999 0
      vertex 6.06218 3.5 0
      vertex 1.01627 0.420951 0
    endloop
  endfacet
  facet normal 0 0 -1
    outer loop
      vertex 0.420951 -1.01627 0
      vertex 2.67878 -6.46716 0
      vertex 1.81173 -6.76148 0
    endloop
  endfacet
  facet normal -0 0 -1
    outer loop
      vertex 6.06218 3.5 0
      vertex 0.952627 0.549999 0
      vertex 5.55347 4.26133 0
    endloop
  endfacet
  facet normal 0 0 -1
    outer loop
      vertex 0.872688 0.669637 0
      vertex 5.55347 4.26133 0
      vertex 0.952627 0.549999 0
    endloop
  endfacet
  facet normal 0 0 -1
    outer loop
      vertex 6.94011 -0.913683 0
      vertex 1.09059 -0.143579 0
      vertex 1.1 0 0
    endloop
  endfacet
  facet normal 0 0 -1
    outer loop
      vertex 6.76148 -1.81173 0
      vertex 1.06252 -0.2847 0
      vertex 1.09059 -0.143579 0
    endloop
  endfacet
  facet normal 0 0 -1
    outer loop
      vertex 6.46716 -2.67878 0
      vertex 1.01627 -0.420951 0
      vertex 1.06252 -0.2847 0
    endloop
  endfacet
  facet normal 0 0 -1
    outer loop
      vertex 6.06218 -3.5 0
      vertex 0.952627 -0.549999 0
      vertex 1.01627 -0.420951 0
    endloop
  endfacet
  facet normal 0 0 -1
    outer loop
      vertex 0.2847 -1.06252 0
      vertex 1.81173 -6.76148 0
      vertex 0.913683 -6.94011 0
    endloop
  endfacet
  facet normal 0 0 -1
    outer loop
      vertex 5.55347 -4.26133 0
      vertex 0.872688 -0.669637 0
      vertex 0.952627 -0.549999 0
    endloop
  endfacet
  facet normal 0 0 -1
    outer loop
      vertex 4.94975 -4.94975 0
      vertex 0.777817 -0.777817 0
      vertex 0.872688 -0.669637 0
    endloop
  endfacet
  facet normal 0 0 -1
    outer loop
      vertex 4.26133 -5.55347 0
      vertex 0.669637 -0.872688 0
      vertex 0.777817 -0.777817 0
    endloop
  endfacet
  facet normal 0 0 -1
    outer loop
      vertex 3.5 -6.06218 0
      vertex 0.549999 -0.952627 0
      vertex 0.669637 -0.872688 0
    endloop
  endfacet
  facet normal 0 0 -1
    outer loop
      vertex 2.67878 -6.46716 0
      vertex 0.420951 -1.01627 0
      vertex 0.549999 -0.952627 0
    endloop
  endfacet
  facet normal 0 0 -1
    outer loop
      vertex 1.81173 -6.76148 0
      vertex 0.2847 -1.06252 0
      vertex 0.420951 -1.01627 0
    endloop
  endfacet
  facet normal 0 0 -1
    outer loop
      vertex 0.913683 -6.94011 0
      vertex 0.143579 -1.09059 0
      vertex 0.2847 -1.06252 0
    endloop
  endfacet
  facet normal 0 0 -1
    outer loop
      vertex 0 -7 0
      vertex 0.143579 -1.09059 0
      vertex 0.913683 -6.94011 0
    endloop
  endfacet
  facet normal 0 0 -1
    outer loop
      vertex 0 -7 0
      vertex 0 -1.1 0
      vertex 0.143579 -1.09059 0
    endloop
  endfacet
  facet normal 0 0 -1
    outer loop
      vertex 0 -7 0
      vertex -0.143579 -1.09059 0
      vertex 0 -1.1 0
    endloop
  endfacet
  facet normal 0 0 -1
    outer loop
      vertex -0.913683 -6.94011 0
      vertex -0.143579 -1.09059 0
      vertex 0 -7 0
    endloop
  endfacet
  facet normal -0 0 -1
    outer loop
      vertex -0.143579 -1.09059 0
      vertex -0.913683 -6.94011 0
      vertex -0.2847 -1.06252 0
    endloop
  endfacet
  facet normal 0 0 -1
    outer loop
      vertex -1.81173 -6.76148 0
      vertex -0.2847 -1.06252 0
      vertex -0.913683 -6.94011 0
    endloop
  endfacet
  facet normal -0 0 -1
    outer loop
      vertex -0.2847 -1.06252 0
      vertex -1.81173 -6.76148 0
      vertex -0.420951 -1.01627 0
    endloop
  endfacet
  facet normal 0 0 -1
    outer loop
      vertex -2.67878 -6.46716 0
      vertex -0.420951 -1.01627 0
      vertex -1.81173 -6.76148 0
    endloop
  endfacet
  facet normal -0 0 -1
    outer loop
      vertex -0.420951 -1.01627 0
      vertex -2.67878 -6.46716 0
      vertex -0.549999 -0.952627 0
    endloop
  endfacet
  facet normal 0 0 -1
    outer loop
      vertex -3.5 -6.06218 0
      vertex -0.549999 -0.952627 0
      vertex -2.67878 -6.46716 0
    endloop
  endfacet
  facet normal -0 0 -1
    outer loop
      vertex -0.549999 -0.952627 0
      vertex -3.5 -6.06218 0
      vertex -0.669637 -0.872688 0
    endloop
  endfacet
  facet normal 0 0 -1
    outer loop
      vertex -4.26133 -5.55347 0
      vertex -0.669637 -0.872688 0
      vertex -3.5 -6.06218 0
    endloop
  endfacet
  facet normal -0 0 -1
    outer loop
      vertex -0.669637 -0.872688 0
      vertex -4.26133 -5.55347 0
      vertex -0.777817 -0.777817 0
    endloop
  endfacet
  facet normal 0 0 -1
    outer loop
      vertex -4.94975 -4.94975 0
      vertex -0.777817 -0.777817 0
      vertex -4.26133 -5.55347 0
    endloop
  endfacet
  facet normal -0 0 -1
    outer loop
      vertex -0.777817 -0.777817 0
      vertex -4.94975 -4.94975 0
      vertex -0.872688 -0.669637 0
    endloop
  endfacet
  facet normal 0 0 -1
    outer loop
      vertex -5.55347 -4.26133 0
      vertex -0.872688 -0.669637 0
      vertex -4.94975 -4.94975 0
    endloop
  endfacet
  facet normal -0 0 -1
    outer loop
      vertex 5.55347 4.26133 0
      vertex 0.872688 0.669637 0
      vertex 4.94975 4.94975 0
    endloop
  endfacet
  facet normal 0 0 -1
    outer loop
      vertex 0.777817 0.777817 0
      vertex 4.94975 4.94975 0
      vertex 0.872688 0.669637 0
    endloop
  endfacet
  facet normal -0 0 -1
    outer loop
      vertex 4.94975 4.94975 0
      vertex 0.777817 0.777817 0
      vertex 4.26133 5.55347 0
    endloop
  endfacet
  facet normal 0 0 -1
    outer loop
      vertex 0.669637 0.872688 0
      vertex 4.26133 5.55347 0
      vertex 0.777817 0.777817 0
    endloop
  endfacet
  facet normal -0 0 -1
    outer loop
      vertex 4.26133 5.55347 0
      vertex 0.669637 0.872688 0
      vertex 3.5 6.06218 0
    endloop
  endfacet
  facet normal 0 0 -1
    outer loop
      vertex 0.549999 0.952627 0
      vertex 3.5 6.06218 0
      vertex 0.669637 0.872688 0
    endloop
  endfacet
  facet normal -0 0 -1
    outer loop
      vertex 3.5 6.06218 0
      vertex 0.549999 0.952627 0
      vertex 2.67878 6.46716 0
    endloop
  endfacet
  facet normal 0 0 -1
    outer loop
      vertex 0.420951 1.01627 0
      vertex 2.67878 6.46716 0
      vertex 0.549999 0.952627 0
    endloop
  endfacet
  facet normal -0 0 -1
    outer loop
      vertex 2.67878 6.46716 0
      vertex 0.420951 1.01627 0
      vertex 1.81173 6.76148 0
    endloop
  endfacet
  facet normal 0 0 -1
    outer loop
      vertex 0.2847 1.06252 0
      vertex 1.81173 6.76148 0
      vertex 0.420951 1.01627 0
    endloop
  endfacet
  facet normal -0 0 -1
    outer loop
      vertex 1.81173 6.76148 0
      vertex 0.2847 1.06252 0
      vertex 0.913683 6.94011 0
    endloop
  endfacet
  facet normal 0 0 -1
    outer loop
      vertex 0.143579 1.09059 0
      vertex 0.913683 6.94011 0
      vertex 0.2847 1.06252 0
    endloop
  endfacet
  facet normal 0 0 -1
    outer loop
      vertex 0 1.1 0
      vertex 0.913683 6.94011 0
      vertex 0.143579 1.09059 0
    endloop
  endfacet
  facet normal 0 0 -1
    outer loop
      vertex 0 1.1 0
      vertex 0 7 0
      vertex 0.913683 6.94011 0
    endloop
  endfacet
  facet normal 0 0 -1
    outer loop
      vertex -0.143579 1.09059 0
      vertex 0 7 0
      vertex 0 1.1 0
    endloop
  endfacet
  facet normal 0 0 -1
    outer loop
      vertex -0.913683 6.94011 0
      vertex -0.143579 1.09059 0
      vertex -0.2847 1.06252 0
    endloop
  endfacet
  facet normal 0 0 -1
    outer loop
      vertex -1.81173 6.76148 0
      vertex -0.2847 1.06252 0
      vertex -0.420951 1.01627 0
    endloop
  endfacet
  facet normal 0 0 -1
    outer loop
      vertex -2.67878 6.46716 0
      vertex -0.420951 1.01627 0
      vertex -0.549999 0.952627 0
    endloop
  endfacet
  facet normal 0 0 -1
    outer loop
      vertex -3.5 6.06218 0
      vertex -0.549999 0.952627 0
      vertex -0.669637 0.872688 0
    endloop
  endfacet
  facet normal 0 0 -1
    outer loop
      vertex -4.26133 5.55347 0
      vertex -0.669637 0.872688 0
      vertex -0.777817 0.777817 0
    endloop
  endfacet
  facet normal 0 0 -1
    outer loop
      vertex -4.94975 4.94975 0
      vertex -0.777817 0.777817 0
      vertex -0.872688 0.669637 0
    endloop
  endfacet
  facet normal 0 0 -1
    outer loop
      vertex -0.143579 1.09059 0
      vertex -0.913683 6.94011 0
      vertex 0 7 0
    endloop
  endfacet
  facet normal 0 0 -1
    outer loop
      vertex -5.55347 4.26133 0
      vertex -0.872688 0.669637 0
      vertex -0.952627 0.549999 0
    endloop
  endfacet
  facet normal 0 0 -1
    outer loop
      vertex -6.06218 3.5 0
      vertex -0.952627 0.549999 0
      vertex -1.01627 0.420951 0
    endloop
  endfacet
  facet normal 0 0 -1
    outer loop
      vertex -6.46716 2.67878 0
      vertex -1.01627 0.420951 0
      vertex -1.06252 0.2847 0
    endloop
  endfacet
  facet normal 0 0 -1
    outer loop
      vertex -6.76148 1.81173 0
      vertex -1.06252 0.2847 0
      vertex -1.09059 0.143579 0
    endloop
  endfacet
  facet normal 0 0 -1
    outer loop
      vertex -6.94011 0.913683 0
      vertex -1.09059 0.143579 0
      vertex -1.1 0 0
    endloop
  endfacet
  facet normal -0 0 -1
    outer loop
      vertex -0.872688 -0.669637 0
      vertex -5.55347 -4.26133 0
      vertex -0.952627 -0.549999 0
    endloop
  endfacet
  facet normal 0 0 -1
    outer loop
      vertex -0.2847 1.06252 0
      vertex -1.81173 6.76148 0
      vertex -0.913683 6.94011 0
    endloop
  endfacet
  facet normal 0 0 -1
    outer loop
      vertex -6.06218 -3.5 0
      vertex -0.952627 -0.549999 0
      vertex -5.55347 -4.26133 0
    endloop
  endfacet
  facet normal 0 0 -1
    outer loop
      vertex -0.420951 1.01627 0
      vertex -2.67878 6.46716 0
      vertex -1.81173 6.76148 0
    endloop
  endfacet
  facet normal -0 0 -1
    outer loop
      vertex -0.952627 -0.549999 0
      vertex -6.06218 -3.5 0
      vertex -1.01627 -0.420951 0
    endloop
  endfacet
  facet normal 0 0 -1
    outer loop
      vertex -0.549999 0.952627 0
      vertex -3.5 6.06218 0
      vertex -2.67878 6.46716 0
    endloop
  endfacet
  facet normal 0 0 -1
    outer loop
      vertex -6.46716 -2.67878 0
      vertex -1.01627 -0.420951 0
      vertex -6.06218 -3.5 0
    endloop
  endfacet
  facet normal 0 0 -1
    outer loop
      vertex -0.669637 0.872688 0
      vertex -4.26133 5.55347 0
      vertex -3.5 6.06218 0
    endloop
  endfacet
  facet normal -0 0 -1
    outer loop
      vertex -1.01627 -0.420951 0
      vertex -6.46716 -2.67878 0
      vertex -1.06252 -0.2847 0
    endloop
  endfacet
  facet normal 0 0 -1
    outer loop
      vertex -0.777817 0.777817 0
      vertex -4.94975 4.94975 0
      vertex -4.26133 5.55347 0
    endloop
  endfacet
  facet normal 0 0 -1
    outer loop
      vertex -6.76148 -1.81173 0
      vertex -1.06252 -0.2847 0
      vertex -6.46716 -2.67878 0
    endloop
  endfacet
  facet normal 0 0 -1
    outer loop
      vertex -0.872688 0.669637 0
      vertex -5.55347 4.26133 0
      vertex -4.94975 4.94975 0
    endloop
  endfacet
  facet normal -0 0 -1
    outer loop
      vertex -1.06252 -0.2847 0
      vertex -6.76148 -1.81173 0
      vertex -1.09059 -0.143579 0
    endloop
  endfacet
  facet normal 0 0 -1
    outer loop
      vertex -0.952627 0.549999 0
      vertex -6.06218 3.5 0
      vertex -5.55347 4.26133 0
    endloop
  endfacet
  facet normal 0 0 -1
    outer loop
      vertex -6.94011 -0.913683 0
      vertex -1.09059 -0.143579 0
      vertex -6.76148 -1.81173 0
    endloop
  endfacet
  facet normal 0 0 -1
    outer loop
      vertex -1.01627 0.420951 0
      vertex -6.46716 2.67878 0
      vertex -6.06218 3.5 0
    endloop
  endfacet
  facet normal -0 0 -1
    outer loop
      vertex -1.09059 -0.143579 0
      vertex -6.94011 -0.913683 0
      vertex -1.1 0 0
    endloop
  endfacet
  facet normal 0 0 -1
    outer loop
      vertex -1.06252 0.2847 0
      vertex -6.76148 1.81173 0
      vertex -6.46716 2.67878 0
    endloop
  endfacet
  facet normal 0 0 -1
    outer loop
      vertex -7 0 0
      vertex -1.1 0 0
      vertex -6.94011 -0.913683 0
    endloop
  endfacet
  facet normal 0 0 -1
    outer loop
      vertex -1.09059 0.143579 0
      vertex -6.94011 0.913683 0
      vertex -6.76148 1.81173 0
    endloop
  endfacet
  facet normal 0 0 -1
    outer loop
      vertex -1.1 0 0
      vertex -7 0 0
      vertex -6.94011 0.913683 0
    endloop
  endfacet
  facet normal -0.555574 -0.831467 0
    outer loop
      vertex -4.26133 -5.55347 0
      vertex -3.5 -6.06218 4
      vertex -4.26133 -5.55347 4
    endloop
  endfacet
  facet normal -0.555574 -0.831467 -0
    outer loop
      vertex -3.5 -6.06218 4
      vertex -4.26133 -5.55347 0
      vertex -3.5 -6.06218 0
    endloop
  endfacet
  facet normal -0.831467 0.555574 0
    outer loop
      vertex -6.06218 3.5 0
      vertex -5.55347 4.26133 4
      vertex -5.55347 4.26133 0
    endloop
  endfacet
  facet normal -0.831467 0.555574 0
    outer loop
      vertex -5.55347 4.26133 4
      vertex -6.06218 3.5 0
      vertex -6.06218 3.5 4
    endloop
  endfacet
  facet normal 0.195088 -0.980786 0
    outer loop
      vertex 0.913683 -6.94011 0
      vertex 1.81173 -6.76148 4
      vertex 0.913683 -6.94011 4
    endloop
  endfacet
  facet normal 0.195088 -0.980786 0
    outer loop
      vertex 1.81173 -6.76148 4
      vertex 0.913683 -6.94011 0
      vertex 1.81173 -6.76148 0
    endloop
  endfacet
  facet normal -0.896873 0.442288 0
    outer loop
      vertex -6.46716 2.67878 0
      vertex -6.06218 3.5 4
      vertex -6.06218 3.5 0
    endloop
  endfacet
  facet normal -0.896873 0.442288 0
    outer loop
      vertex -6.06218 3.5 4
      vertex -6.46716 2.67878 0
      vertex -6.46716 2.67878 4
    endloop
  endfacet
  facet normal -0.946931 -0.321436 0
    outer loop
      vertex -6.46716 -2.67878 0
      vertex -6.76148 -1.81173 4
      vertex -6.76148 -1.81173 0
    endloop
  endfacet
  facet normal -0.946931 -0.321436 0
    outer loop
      vertex -6.76148 -1.81173 4
      vertex -6.46716 -2.67878 0
      vertex -6.46716 -2.67878 4
    endloop
  endfacet
  facet normal -0.0654075 0.997859 0
    outer loop
      vertex 0 7 0
      vertex -0.913683 6.94011 4
      vertex 0 7 4
    endloop
  endfacet
  facet normal -0.0654075 0.997859 0
    outer loop
      vertex -0.913683 6.94011 4
      vertex 0 7 0
      vertex -0.913683 6.94011 0
    endloop
  endfacet
  facet normal -0.896873 -0.442288 0
    outer loop
      vertex -6.06218 -3.5 0
      vertex -6.46716 -2.67878 4
      vertex -6.46716 -2.67878 0
    endloop
  endfacet
  facet normal -0.896873 -0.442288 0
    outer loop
      vertex -6.46716 -2.67878 4
      vertex -6.06218 -3.5 0
      vertex -6.06218 -3.5 4
    endloop
  endfacet
  facet normal -0.751844 0.659341 0
    outer loop
      vertex -5.55347 4.26133 0
      vertex -4.94975 4.94975 4
      vertex -4.94975 4.94975 0
    endloop
  endfacet
  facet normal -0.751844 0.659341 0
    outer loop
      vertex -4.94975 4.94975 4
      vertex -5.55347 4.26133 0
      vertex -5.55347 4.26133 4
    endloop
  endfacet
  facet normal -0.980786 0.195088 0
    outer loop
      vertex -6.94011 0.913683 0
      vertex -6.76148 1.81173 4
      vertex -6.76148 1.81173 0
    endloop
  endfacet
  facet normal -0.980786 0.195088 0
    outer loop
      vertex -6.76148 1.81173 4
      vertex -6.94011 0.913683 0
      vertex -6.94011 0.913683 4
    endloop
  endfacet
  facet normal 0.555574 0.831467 -0
    outer loop
      vertex 4.26133 5.55347 0
      vertex 3.5 6.06218 4
      vertex 4.26133 5.55347 4
    endloop
  endfacet
  facet normal 0.555574 0.831467 0
    outer loop
      vertex 3.5 6.06218 4
      vertex 4.26133 5.55347 0
      vertex 3.5 6.06218 0
    endloop
  endfacet
  facet normal 0 0 1
    outer loop
      vertex 5 0 4
      vertex 7 0 4
      vertex 6.94011 0.913683 4
    endloop
  endfacet
  facet normal 0 0 1
    outer loop
      vertex 4.95722 0.652631 4
      vertex 6.94011 0.913683 4
      vertex 6.76148 1.81173 4
    endloop
  endfacet
  facet normal 0 0 1
    outer loop
      vertex 7 0 4
      vertex 5 0 4
      vertex 6.94011 -0.913683 4
    endloop
  endfacet
  facet normal 0 0 1
    outer loop
      vertex 4.82963 1.2941 4
      vertex 6.76148 1.81173 4
      vertex 6.46716 2.67878 4
    endloop
  endfacet
  facet normal -0 0 1
    outer loop
      vertex 4.95722 -0.652631 4
      vertex 6.94011 -0.913683 4
      vertex 5 0 4
    endloop
  endfacet
  facet normal 0 0 1
    outer loop
      vertex 4.6194 1.91342 4
      vertex 6.46716 2.67878 4
      vertex 6.06218 3.5 4
    endloop
  endfacet
  facet normal 0 0 1
    outer loop
      vertex 6.94011 -0.913683 4
      vertex 4.95722 -0.652631 4
      vertex 6.76148 -1.81173 4
    endloop
  endfacet
  facet normal 0 0 1
    outer loop
      vertex 4.33013 2.5 4
      vertex 6.06218 3.5 4
      vertex 5.55347 4.26133 4
    endloop
  endfacet
  facet normal -0 0 1
    outer loop
      vertex 4.82963 -1.2941 4
      vertex 6.76148 -1.81173 4
      vertex 4.95722 -0.652631 4
    endloop
  endfacet
  facet normal 0 0 1
    outer loop
      vertex 6.76148 -1.81173 4
      vertex 4.82963 -1.2941 4
      vertex 6.46716 -2.67878 4
    endloop
  endfacet
  facet normal 0 0 1
    outer loop
      vertex 6.94011 0.913683 4
      vertex 4.95722 0.652631 4
      vertex 5 0 4
    endloop
  endfacet
  facet normal 0 0 1
    outer loop
      vertex 3.96677 3.04381 4
      vertex 5.55347 4.26133 4
      vertex 4.94975 4.94975 4
    endloop
  endfacet
  facet normal 0 0 1
    outer loop
      vertex 6.76148 1.81173 4
      vertex 4.82963 1.2941 4
      vertex 4.95722 0.652631 4
    endloop
  endfacet
  facet normal 0 0 1
    outer loop
      vertex 6.46716 2.67878 4
      vertex 4.6194 1.91342 4
      vertex 4.82963 1.2941 4
    endloop
  endfacet
  facet normal 0 0 1
    outer loop
      vertex 6.06218 3.5 4
      vertex 4.33013 2.5 4
      vertex 4.6194 1.91342 4
    endloop
  endfacet
  facet normal 0 0 1
    outer loop
      vertex 3.53553 3.53553 4
      vertex 4.94975 4.94975 4
      vertex 4.26133 5.55347 4
    endloop
  endfacet
  facet normal 0 0 1
    outer loop
      vertex 5.55347 4.26133 4
      vertex 3.96677 3.04381 4
      vertex 4.33013 2.5 4
    endloop
  endfacet
  facet normal 0 0 1
    outer loop
      vertex 4.94975 4.94975 4
      vertex 3.53553 3.53553 4
      vertex 3.96677 3.04381 4
    endloop
  endfacet
  facet normal 0 0 1
    outer loop
      vertex 3.04381 3.96677 4
      vertex 4.26133 5.55347 4
      vertex 3.5 6.06218 4
    endloop
  endfacet
  facet normal 0 0 1
    outer loop
      vertex 4.26133 5.55347 4
      vertex 3.04381 3.96677 4
      vertex 3.53553 3.53553 4
    endloop
  endfacet
  facet normal 0 0 1
    outer loop
      vertex 2.5 4.33013 4
      vertex 3.5 6.06218 4
      vertex 2.67878 6.46716 4
    endloop
  endfacet
  facet normal 0 0 1
    outer loop
      vertex 3.5 6.06218 4
      vertex 2.5 4.33013 4
      vertex 3.04381 3.96677 4
    endloop
  endfacet
  facet normal 0 0 1
    outer loop
      vertex 2.67878 6.46716 4
      vertex 1.91342 4.6194 4
      vertex 2.5 4.33013 4
    endloop
  endfacet
  facet normal 0 0 1
    outer loop
      vertex 1.81173 6.76148 4
      vertex 1.91342 4.6194 4
      vertex 2.67878 6.46716 4
    endloop
  endfacet
  facet normal 0 0 1
    outer loop
      vertex 1.81173 6.76148 4
      vertex 1.2941 4.82963 4
      vertex 1.91342 4.6194 4
    endloop
  endfacet
  facet normal 0 0 1
    outer loop
      vertex 0.913683 6.94011 4
      vertex 1.2941 4.82963 4
      vertex 1.81173 6.76148 4
    endloop
  endfacet
  facet normal 0 0 1
    outer loop
      vertex 0.913683 6.94011 4
      vertex 0.652631 4.95722 4
      vertex 1.2941 4.82963 4
    endloop
  endfacet
  facet normal 0 0 1
    outer loop
      vertex 0 7 4
      vertex 0.652631 4.95722 4
      vertex 0.913683 6.94011 4
    endloop
  endfacet
  facet normal 0 0 1
    outer loop
      vertex 0 7 4
      vertex 0 5 4
      vertex 0.652631 4.95722 4
    endloop
  endfacet
  facet normal 0 0 1
    outer loop
      vertex 0 7 4
      vertex -0.652631 4.95722 4
      vertex 0 5 4
    endloop
  endfacet
  facet normal -0 0 1
    outer loop
      vertex -0.913683 6.94011 4
      vertex -0.652631 4.95722 4
      vertex 0 7 4
    endloop
  endfacet
  facet normal 0 0 1
    outer loop
      vertex -0.913683 6.94011 4
      vertex -1.2941 4.82963 4
      vertex -0.652631 4.95722 4
    endloop
  endfacet
  facet normal -0 0 1
    outer loop
      vertex -1.81173 6.76148 4
      vertex -1.2941 4.82963 4
      vertex -0.913683 6.94011 4
    endloop
  endfacet
  facet normal 0 0 1
    outer loop
      vertex -1.81173 6.76148 4
      vertex -1.91342 4.6194 4
      vertex -1.2941 4.82963 4
    endloop
  endfacet
  facet normal -0 0 1
    outer loop
      vertex -2.67878 6.46716 4
      vertex -1.91342 4.6194 4
      vertex -1.81173 6.76148 4
    endloop
  endfacet
  facet normal 0 0 1
    outer loop
      vertex -1.91342 4.6194 4
      vertex -2.67878 6.46716 4
      vertex -2.5 4.33013 4
    endloop
  endfacet
  facet normal -0 0 1
    outer loop
      vertex -3.5 6.06218 4
      vertex -2.5 4.33013 4
      vertex -2.67878 6.46716 4
    endloop
  endfacet
  facet normal 0 0 1
    outer loop
      vertex -2.5 4.33013 4
      vertex -3.5 6.06218 4
      vertex -3.04381 3.96677 4
    endloop
  endfacet
  facet normal -0 0 1
    outer loop
      vertex -4.26133 5.55347 4
      vertex -3.04381 3.96677 4
      vertex -3.5 6.06218 4
    endloop
  endfacet
  facet normal 0 0 1
    outer loop
      vertex -3.04381 3.96677 4
      vertex -4.26133 5.55347 4
      vertex -3.53553 3.53553 4
    endloop
  endfacet
  facet normal -0 0 1
    outer loop
      vertex -4.94975 4.94975 4
      vertex -3.53553 3.53553 4
      vertex -4.26133 5.55347 4
    endloop
  endfacet
  facet normal 0 0 1
    outer loop
      vertex -3.53553 3.53553 4
      vertex -4.94975 4.94975 4
      vertex -3.96677 3.04381 4
    endloop
  endfacet
  facet normal -0 0 1
    outer loop
      vertex -5.55347 4.26133 4
      vertex -3.96677 3.04381 4
      vertex -4.94975 4.94975 4
    endloop
  endfacet
  facet normal 0 0 1
    outer loop
      vertex -3.96677 3.04381 4
      vertex -5.55347 4.26133 4
      vertex -4.33013 2.5 4
    endloop
  endfacet
  facet normal -0 0 1
    outer loop
      vertex -6.06218 3.5 4
      vertex -4.33013 2.5 4
      vertex -5.55347 4.26133 4
    endloop
  endfacet
  facet normal 0 0 1
    outer loop
      vertex -4.33013 2.5 4
      vertex -6.06218 3.5 4
      vertex -4.6194 1.91342 4
    endloop
  endfacet
  facet normal -0 0 1
    outer loop
      vertex -6.46716 2.67878 4
      vertex -4.6194 1.91342 4
      vertex -6.06218 3.5 4
    endloop
  endfacet
  facet normal 0 0 1
    outer loop
      vertex -4.6194 1.91342 4
      vertex -6.46716 2.67878 4
      vertex -4.82963 1.2941 4
    endloop
  endfacet
  facet normal -0 0 1
    outer loop
      vertex 4.6194 -1.91342 4
      vertex 6.46716 -2.67878 4
      vertex 4.82963 -1.2941 4
    endloop
  endfacet
  facet normal 0 0 1
    outer loop
      vertex 6.46716 -2.67878 4
      vertex 4.6194 -1.91342 4
      vertex 6.06218 -3.5 4
    endloop
  endfacet
  facet normal -0 0 1
    outer loop
      vertex 4.33013 -2.5 4
      vertex 6.06218 -3.5 4
      vertex 4.6194 -1.91342 4
    endloop
  endfacet
  facet normal 0 0 1
    outer loop
      vertex 6.06218 -3.5 4
      vertex 4.33013 -2.5 4
      vertex 5.55347 -4.26133 4
    endloop
  endfacet
  facet normal -0 0 1
    outer loop
      vertex 3.96677 -3.04381 4
      vertex 5.55347 -4.26133 4
      vertex 4.33013 -2.5 4
    endloop
  endfacet
  facet normal 0 0 1
    outer loop
      vertex 5.55347 -4.26133 4
      vertex 3.96677 -3.04381 4
      vertex 4.94975 -4.94975 4
    endloop
  endfacet
  facet normal -0 0 1
    outer loop
      vertex 3.53553 -3.53553 4
      vertex 4.94975 -4.94975 4
      vertex 3.96677 -3.04381 4
    endloop
  endfacet
  facet normal 0 0 1
    outer loop
      vertex 4.94975 -4.94975 4
      vertex 3.53553 -3.53553 4
      vertex 4.26133 -5.55347 4
    endloop
  endfacet
  facet normal -0 0 1
    outer loop
      vertex 3.04381 -3.96677 4
      vertex 4.26133 -5.55347 4
      vertex 3.53553 -3.53553 4
    endloop
  endfacet
  facet normal 0 0 1
    outer loop
      vertex 4.26133 -5.55347 4
      vertex 3.04381 -3.96677 4
      vertex 3.5 -6.06218 4
    endloop
  endfacet
  facet normal -0 0 1
    outer loop
      vertex 2.5 -4.33013 4
      vertex 3.5 -6.06218 4
      vertex 3.04381 -3.96677 4
    endloop
  endfacet
  facet normal 0 0 1
    outer loop
      vertex 3.5 -6.06218 4
      vertex 2.5 -4.33013 4
      vertex 2.67878 -6.46716 4
    endloop
  endfacet
  facet normal -0 0 1
    outer loop
      vertex 1.91342 -4.6194 4
      vertex 2.67878 -6.46716 4
      vertex 2.5 -4.33013 4
    endloop
  endfacet
  facet normal 0 0 1
    outer loop
      vertex 1.91342 -4.6194 4
      vertex 1.81173 -6.76148 4
      vertex 2.67878 -6.46716 4
    endloop
  endfacet
  facet normal -0 0 1
    outer loop
      vertex 1.2941 -4.82963 4
      vertex 1.81173 -6.76148 4
      vertex 1.91342 -4.6194 4
    endloop
  endfacet
  facet normal 0 0 1
    outer loop
      vertex 1.2941 -4.82963 4
      vertex 0.913683 -6.94011 4
      vertex 1.81173 -6.76148 4
    endloop
  endfacet
  facet normal -0 0 1
    outer loop
      vertex 0.652631 -4.95722 4
      vertex 0.913683 -6.94011 4
      vertex 1.2941 -4.82963 4
    endloop
  endfacet
  facet normal -0 0 1
    outer loop
      vertex 0 -5 4
      vertex 0.913683 -6.94011 4
      vertex 0.652631 -4.95722 4
    endloop
  endfacet
  facet normal 0 0 1
    outer loop
      vertex 0 -5 4
      vertex 0 -7 4
      vertex 0.913683 -6.94011 4
    endloop
  endfacet
  facet normal 0 0 1
    outer loop
      vertex -0.652631 -4.95722 4
      vertex 0 -7 4
      vertex 0 -5 4
    endloop
  endfacet
  facet normal 0 0 1
    outer loop
      vertex -0.652631 -4.95722 4
      vertex -0.913683 -6.94011 4
      vertex 0 -7 4
    endloop
  endfacet
  facet normal 0 0 1
    outer loop
      vertex -1.2941 -4.82963 4
      vertex -0.913683 -6.94011 4
      vertex -0.652631 -4.95722 4
    endloop
  endfacet
  facet normal 0 0 1
    outer loop
      vertex -1.2941 -4.82963 4
      vertex -1.81173 -6.76148 4
      vertex -0.913683 -6.94011 4
    endloop
  endfacet
  facet normal 0 0 1
    outer loop
      vertex -1.91342 -4.6194 4
      vertex -1.81173 -6.76148 4
      vertex -1.2941 -4.82963 4
    endloop
  endfacet
  facet normal 0 0 1
    outer loop
      vertex -2.67878 -6.46716 4
      vertex -1.91342 -4.6194 4
      vertex -2.5 -4.33013 4
    endloop
  endfacet
  facet normal 0 0 1
    outer loop
      vertex -1.91342 -4.6194 4
      vertex -2.67878 -6.46716 4
      vertex -1.81173 -6.76148 4
    endloop
  endfacet
  facet normal 0 0 1
    outer loop
      vertex -3.5 -6.06218 4
      vertex -2.5 -4.33013 4
      vertex -3.04381 -3.96677 4
    endloop
  endfacet
  facet normal 0 0 1
    outer loop
      vertex -2.5 -4.33013 4
      vertex -3.5 -6.06218 4
      vertex -2.67878 -6.46716 4
    endloop
  endfacet
  facet normal 0 0 1
    outer loop
      vertex -4.26133 -5.55347 4
      vertex -3.04381 -3.96677 4
      vertex -3.53553 -3.53553 4
    endloop
  endfacet
  facet normal 0 0 1
    outer loop
      vertex -4.94975 -4.94975 4
      vertex -3.53553 -3.53553 4
      vertex -3.96677 -3.04381 4
    endloop
  endfacet
  facet normal 0 0 1
    outer loop
      vertex -3.04381 -3.96677 4
      vertex -4.26133 -5.55347 4
      vertex -3.5 -6.06218 4
    endloop
  endfacet
  facet normal 0 0 1
    outer loop
      vertex -5.55347 -4.26133 4
      vertex -3.96677 -3.04381 4
      vertex -4.33013 -2.5 4
    endloop
  endfacet
  facet normal 0 0 1
    outer loop
      vertex -6.06218 -3.5 4
      vertex -4.33013 -2.5 4
      vertex -4.6194 -1.91342 4
    endloop
  endfacet
  facet normal 0 0 1
    outer loop
      vertex -6.46716 -2.67878 4
      vertex -4.6194 -1.91342 4
      vertex -4.82963 -1.2941 4
    endloop
  endfacet
  facet normal 0 0 1
    outer loop
      vertex -3.53553 -3.53553 4
      vertex -4.94975 -4.94975 4
      vertex -4.26133 -5.55347 4
    endloop
  endfacet
  facet normal 0 0 1
    outer loop
      vertex -6.76148 -1.81173 4
      vertex -4.82963 -1.2941 4
      vertex -4.95722 -0.652631 4
    endloop
  endfacet
  facet normal 0 0 1
    outer loop
      vertex -6.94011 -0.913683 4
      vertex -4.95722 -0.652631 4
      vertex -5 0 4
    endloop
  endfacet
  facet normal -0 0 1
    outer loop
      vertex -6.76148 1.81173 4
      vertex -4.82963 1.2941 4
      vertex -6.46716 2.67878 4
    endloop
  endfacet
  facet normal 0 0 1
    outer loop
      vertex -3.96677 -3.04381 4
      vertex -5.55347 -4.26133 4
      vertex -4.94975 -4.94975 4
    endloop
  endfacet
  facet normal 0 0 1
    outer loop
      vertex -4.82963 1.2941 4
      vertex -6.76148 1.81173 4
      vertex -4.95722 0.652631 4
    endloop
  endfacet
  facet normal 0 0 1
    outer loop
      vertex -4.33013 -2.5 4
      vertex -6.06218 -3.5 4
      vertex -5.55347 -4.26133 4
    endloop
  endfacet
  facet normal -0 0 1
    outer loop
      vertex -6.94011 0.913683 4
      vertex -4.95722 0.652631 4
      vertex -6.76148 1.81173 4
    endloop
  endfacet
  facet normal 0 0 1
    outer loop
      vertex -4.6194 -1.91342 4
      vertex -6.46716 -2.67878 4
      vertex -6.06218 -3.5 4
    endloop
  endfacet
  facet normal 0 0 1
    outer loop
      vertex -4.95722 0.652631 4
      vertex -6.94011 0.913683 4
      vertex -5 0 4
    endloop
  endfacet
  facet normal 0 0 1
    outer loop
      vertex -4.82963 -1.2941 4
      vertex -6.76148 -1.81173 4
      vertex -6.46716 -2.67878 4
    endloop
  endfacet
  facet normal 0 0 1
    outer loop
      vertex -7 0 4
      vertex -5 0 4
      vertex -6.94011 0.913683 4
    endloop
  endfacet
  facet normal 0 0 1
    outer loop
      vertex -4.95722 -0.652631 4
      vertex -6.94011 -0.913683 4
      vertex -6.76148 -1.81173 4
    endloop
  endfacet
  facet normal 0 0 1
    outer loop
      vertex -5 0 4
      vertex -7 0 4
      vertex -6.94011 -0.913683 4
    endloop
  endfacet
  facet normal -0.659341 0.751844 0
    outer loop
      vertex -4.26133 5.55347 0
      vertex -4.94975 4.94975 4
      vertex -4.26133 5.55347 4
    endloop
  endfacet
  facet normal -0.659341 0.751844 0
    outer loop
      vertex -4.94975 4.94975 4
      vertex -4.26133 5.55347 0
      vertex -4.94975 4.94975 0
    endloop
  endfacet
  facet normal -0.997859 0.0654075 0
    outer loop
      vertex -7 0 0
      vertex -6.94011 0.913683 4
      vertex -6.94011 0.913683 0
    endloop
  endfacet
  facet normal -0.997859 0.0654075 0
    outer loop
      vertex -6.94011 0.913683 4
      vertex -7 0 0
      vertex -7 0 4
    endloop
  endfacet
  facet normal -0.555574 0.831467 0
    outer loop
      vertex -3.5 6.06218 0
      vertex -4.26133 5.55347 4
      vertex -3.5 6.06218 4
    endloop
  endfacet
  facet normal -0.555574 0.831467 0
    outer loop
      vertex -4.26133 5.55347 4
      vertex -3.5 6.06218 0
      vertex -4.26133 5.55347 0
    endloop
  endfacet
  facet normal -0.195088 -0.980786 0
    outer loop
      vertex -1.81173 -6.76148 0
      vertex -0.913683 -6.94011 4
      vertex -1.81173 -6.76148 4
    endloop
  endfacet
  facet normal -0.195088 -0.980786 -0
    outer loop
      vertex -0.913683 -6.94011 4
      vertex -1.81173 -6.76148 0
      vertex -0.913683 -6.94011 0
    endloop
  endfacet
  facet normal -0.321436 -0.946931 0
    outer loop
      vertex -2.67878 -6.46716 0
      vertex -1.81173 -6.76148 4
      vertex -2.67878 -6.46716 4
    endloop
  endfacet
  facet normal -0.321436 -0.946931 -0
    outer loop
      vertex -1.81173 -6.76148 4
      vertex -2.67878 -6.46716 0
      vertex -1.81173 -6.76148 0
    endloop
  endfacet
  facet normal -0.442288 -0.896873 0
    outer loop
      vertex -3.5 -6.06218 0
      vertex -2.67878 -6.46716 4
      vertex -3.5 -6.06218 4
    endloop
  endfacet
  facet normal -0.442288 -0.896873 -0
    outer loop
      vertex -2.67878 -6.46716 4
      vertex -3.5 -6.06218 0
      vertex -2.67878 -6.46716 0
    endloop
  endfacet
  facet normal -0.831467 -0.555574 0
    outer loop
      vertex -5.55347 -4.26133 0
      vertex -6.06218 -3.5 4
      vertex -6.06218 -3.5 0
    endloop
  endfacet
  facet normal -0.831467 -0.555574 0
    outer loop
      vertex -6.06218 -3.5 4
      vertex -5.55347 -4.26133 0
      vertex -5.55347 -4.26133 4
    endloop
  endfacet
  facet normal -0.946931 0.321436 0
    outer loop
      vertex -6.76148 1.81173 0
      vertex -6.46716 2.67878 4
      vertex -6.46716 2.67878 0
    endloop
  endfacet
  facet normal -0.946931 0.321436 0
    outer loop
      vertex -6.46716 2.67878 4
      vertex -6.76148 1.81173 0
      vertex -6.76148 1.81173 4
    endloop
  endfacet
  facet normal 0.659341 -0.751844 0
    outer loop
      vertex 4.26133 -5.55347 0
      vertex 4.94975 -4.94975 4
      vertex 4.26133 -5.55347 4
    endloop
  endfacet
  facet normal 0.659341 -0.751844 0
    outer loop
      vertex 4.94975 -4.94975 4
      vertex 4.26133 -5.55347 0
      vertex 4.94975 -4.94975 0
    endloop
  endfacet
  facet normal 0.555574 -0.831467 0
    outer loop
      vertex 3.5 -6.06218 0
      vertex 4.26133 -5.55347 4
      vertex 3.5 -6.06218 4
    endloop
  endfacet
  facet normal 0.555574 -0.831467 0
    outer loop
      vertex 4.26133 -5.55347 4
      vertex 3.5 -6.06218 0
      vertex 4.26133 -5.55347 0
    endloop
  endfacet
  facet normal 0.195088 0.980786 -0
    outer loop
      vertex 1.81173 6.76148 0
      vertex 0.913683 6.94011 4
      vertex 1.81173 6.76148 4
    endloop
  endfacet
  facet normal 0.195088 0.980786 0
    outer loop
      vertex 0.913683 6.94011 4
      vertex 1.81173 6.76148 0
      vertex 0.913683 6.94011 0
    endloop
  endfacet
  facet normal -0.980787 -0.195081 0
    outer loop
      vertex 4.95722 0.652631 3
      vertex 4.82963 1.2941 4
      vertex 4.82963 1.2941 3
    endloop
  endfacet
  facet normal -0.980787 -0.195081 0
    outer loop
      vertex 4.82963 1.2941 4
      vertex 4.95722 0.652631 3
      vertex 4.95722 0.652631 4
    endloop
  endfacet
  facet normal -0.997858 -0.0654097 0
    outer loop
      vertex 5 0 3
      vertex 4.95722 0.652631 4
      vertex 4.95722 0.652631 3
    endloop
  endfacet
  facet normal -0.997858 -0.0654097 0
    outer loop
      vertex 4.95722 0.652631 4
      vertex 5 0 3
      vertex 5 0 4
    endloop
  endfacet
  facet normal -0.321438 0.946931 0
    outer loop
      vertex 1.91342 -4.6194 3
      vertex 1.2941 -4.82963 4
      vertex 1.91342 -4.6194 4
    endloop
  endfacet
  facet normal -0.321438 0.946931 0
    outer loop
      vertex 1.2941 -4.82963 4
      vertex 1.91342 -4.6194 3
      vertex 1.2941 -4.82963 3
    endloop
  endfacet
  facet normal -0.831471 -0.555568 0
    outer loop
      vertex 4.33013 2.5 3
      vertex 3.96677 3.04381 4
      vertex 3.96677 3.04381 3
    endloop
  endfacet
  facet normal -0.831471 -0.555568 0
    outer loop
      vertex 3.96677 3.04381 4
      vertex 4.33013 2.5 3
      vertex 4.33013 2.5 4
    endloop
  endfacet
  facet normal 0.896872 -0.44229 0
    outer loop
      vertex -4.6194 1.91342 4
      vertex -4.33013 2.5 3
      vertex -4.33013 2.5 4
    endloop
  endfacet
  facet normal 0.896872 -0.44229 0
    outer loop
      vertex -4.33013 2.5 3
      vertex -4.6194 1.91342 4
      vertex -4.6194 1.91342 3
    endloop
  endfacet
  facet normal 0.555568 -0.831471 0
    outer loop
      vertex -3.04381 3.96677 3
      vertex -2.5 4.33013 4
      vertex -3.04381 3.96677 4
    endloop
  endfacet
  facet normal 0.555568 -0.831471 0
    outer loop
      vertex -2.5 4.33013 4
      vertex -3.04381 3.96677 3
      vertex -2.5 4.33013 3
    endloop
  endfacet
  facet normal 0.659357 -0.75183 0
    outer loop
      vertex -3.53553 3.53553 3
      vertex -3.04381 3.96677 4
      vertex -3.53553 3.53553 4
    endloop
  endfacet
  facet normal 0.659357 -0.75183 0
    outer loop
      vertex -3.04381 3.96677 4
      vertex -3.53553 3.53553 3
      vertex -3.04381 3.96677 3
    endloop
  endfacet
  facet normal 0.75183 -0.659357 0
    outer loop
      vertex -3.96677 3.04381 4
      vertex -3.53553 3.53553 3
      vertex -3.53553 3.53553 4
    endloop
  endfacet
  facet normal 0.75183 -0.659357 0
    outer loop
      vertex -3.53553 3.53553 3
      vertex -3.96677 3.04381 4
      vertex -3.96677 3.04381 3
    endloop
  endfacet
  facet normal -0.946931 0.321438 0
    outer loop
      vertex 4.6194 -1.91342 3
      vertex 4.82963 -1.2941 4
      vertex 4.82963 -1.2941 3
    endloop
  endfacet
  facet normal -0.946931 0.321438 0
    outer loop
      vertex 4.82963 -1.2941 4
      vertex 4.6194 -1.91342 3
      vertex 4.6194 -1.91342 4
    endloop
  endfacet
  facet normal 0.997858 -0.0654097 0
    outer loop
      vertex -5 0 4
      vertex -4.95722 0.652631 3
      vertex -4.95722 0.652631 4
    endloop
  endfacet
  facet normal 0.997858 -0.0654097 0
    outer loop
      vertex -4.95722 0.652631 3
      vertex -5 0 4
      vertex -5 0 3
    endloop
  endfacet
  facet normal -0.555568 -0.831471 0
    outer loop
      vertex 2.5 4.33013 3
      vertex 3.04381 3.96677 4
      vertex 2.5 4.33013 4
    endloop
  endfacet
  facet normal -0.555568 -0.831471 -0
    outer loop
      vertex 3.04381 3.96677 4
      vertex 2.5 4.33013 3
      vertex 3.04381 3.96677 3
    endloop
  endfacet
  facet normal 0.321438 0.946931 -0
    outer loop
      vertex -1.2941 -4.82963 3
      vertex -1.91342 -4.6194 4
      vertex -1.2941 -4.82963 4
    endloop
  endfacet
  facet normal 0.321438 0.946931 0
    outer loop
      vertex -1.91342 -4.6194 4
      vertex -1.2941 -4.82963 3
      vertex -1.91342 -4.6194 3
    endloop
  endfacet
  facet normal 0.75183 0.659357 0
    outer loop
      vertex -3.53553 -3.53553 4
      vertex -3.96677 -3.04381 3
      vertex -3.96677 -3.04381 4
    endloop
  endfacet
  facet normal 0.75183 0.659357 0
    outer loop
      vertex -3.96677 -3.04381 3
      vertex -3.53553 -3.53553 4
      vertex -3.53553 -3.53553 3
    endloop
  endfacet
  facet normal -0.195081 0.980787 0
    outer loop
      vertex 1.2941 -4.82963 3
      vertex 0.652631 -4.95722 4
      vertex 1.2941 -4.82963 4
    endloop
  endfacet
  facet normal -0.195081 0.980787 0
    outer loop
      vertex 0.652631 -4.95722 4
      vertex 1.2941 -4.82963 3
      vertex 0.652631 -4.95722 3
    endloop
  endfacet
  facet normal 0.321438 -0.946931 0
    outer loop
      vertex -1.91342 4.6194 3
      vertex -1.2941 4.82963 4
      vertex -1.91342 4.6194 4
    endloop
  endfacet
  facet normal 0.321438 -0.946931 0
    outer loop
      vertex -1.2941 4.82963 4
      vertex -1.91342 4.6194 3
      vertex -1.2941 4.82963 3
    endloop
  endfacet
  facet normal 0.831471 0.555568 0
    outer loop
      vertex -3.96677 -3.04381 4
      vertex -4.33013 -2.5 3
      vertex -4.33013 -2.5 4
    endloop
  endfacet
  facet normal 0.831471 0.555568 0
    outer loop
      vertex -4.33013 -2.5 3
      vertex -3.96677 -3.04381 4
      vertex -3.96677 -3.04381 3
    endloop
  endfacet
  facet normal -0.555568 0.831471 0
    outer loop
      vertex 3.04381 -3.96677 3
      vertex 2.5 -4.33013 4
      vertex 3.04381 -3.96677 4
    endloop
  endfacet
  facet normal -0.555568 0.831471 0
    outer loop
      vertex 2.5 -4.33013 4
      vertex 3.04381 -3.96677 3
      vertex 2.5 -4.33013 3
    endloop
  endfacet
  facet normal 0.946931 -0.321438 0
    outer loop
      vertex -4.82963 1.2941 4
      vertex -4.6194 1.91342 3
      vertex -4.6194 1.91342 4
    endloop
  endfacet
  facet normal 0.946931 -0.321438 0
    outer loop
      vertex -4.6194 1.91342 3
      vertex -4.82963 1.2941 4
      vertex -4.82963 1.2941 3
    endloop
  endfacet
  facet normal -0.321438 -0.946931 0
    outer loop
      vertex 1.2941 4.82963 3
      vertex 1.91342 4.6194 4
      vertex 1.2941 4.82963 4
    endloop
  endfacet
  facet normal -0.321438 -0.946931 -0
    outer loop
      vertex 1.91342 4.6194 4
      vertex 1.2941 4.82963 3
      vertex 1.91342 4.6194 3
    endloop
  endfacet
  facet normal -0.0654097 -0.997858 0
    outer loop
      vertex 0 5 3
      vertex 0.652631 4.95722 4
      vertex 0 5 4
    endloop
  endfacet
  facet normal -0.0654097 -0.997858 -0
    outer loop
      vertex 0.652631 4.95722 4
      vertex 0 5 3
      vertex 0.652631 4.95722 3
    endloop
  endfacet
  facet normal 0.44229 -0.896872 0
    outer loop
      vertex -2.5 4.33013 3
      vertex -1.91342 4.6194 4
      vertex -2.5 4.33013 4
    endloop
  endfacet
  facet normal 0.44229 -0.896872 0
    outer loop
      vertex -1.91342 4.6194 4
      vertex -2.5 4.33013 3
      vertex -1.91342 4.6194 3
    endloop
  endfacet
  facet normal -0.831471 0.555568 0
    outer loop
      vertex 3.96677 -3.04381 3
      vertex 4.33013 -2.5 4
      vertex 4.33013 -2.5 3
    endloop
  endfacet
  facet normal -0.831471 0.555568 0
    outer loop
      vertex 4.33013 -2.5 4
      vertex 3.96677 -3.04381 3
      vertex 3.96677 -3.04381 4
    endloop
  endfacet
  facet normal 0.997858 0.0654097 0
    outer loop
      vertex -4.95722 -0.652631 4
      vertex -5 0 3
      vertex -5 0 4
    endloop
  endfacet
  facet normal 0.997858 0.0654097 0
    outer loop
      vertex -5 0 3
      vertex -4.95722 -0.652631 4
      vertex -4.95722 -0.652631 3
    endloop
  endfacet
  facet normal 0.946931 0.321438 0
    outer loop
      vertex -4.6194 -1.91342 4
      vertex -4.82963 -1.2941 3
      vertex -4.82963 -1.2941 4
    endloop
  endfacet
  facet normal 0.946931 0.321438 0
    outer loop
      vertex -4.82963 -1.2941 3
      vertex -4.6194 -1.91342 4
      vertex -4.6194 -1.91342 3
    endloop
  endfacet
  facet normal 0.659357 0.75183 -0
    outer loop
      vertex -3.04381 -3.96677 3
      vertex -3.53553 -3.53553 4
      vertex -3.04381 -3.96677 4
    endloop
  endfacet
  facet normal 0.659357 0.75183 0
    outer loop
      vertex -3.53553 -3.53553 4
      vertex -3.04381 -3.96677 3
      vertex -3.53553 -3.53553 3
    endloop
  endfacet
  facet normal -0.44229 -0.896872 0
    outer loop
      vertex 1.91342 4.6194 3
      vertex 2.5 4.33013 4
      vertex 1.91342 4.6194 4
    endloop
  endfacet
  facet normal -0.44229 -0.896872 -0
    outer loop
      vertex 2.5 4.33013 4
      vertex 1.91342 4.6194 3
      vertex 2.5 4.33013 3
    endloop
  endfacet
  facet normal 0.195081 -0.980787 0
    outer loop
      vertex -1.2941 4.82963 3
      vertex -0.652631 4.95722 4
      vertex -1.2941 4.82963 4
    endloop
  endfacet
  facet normal 0.195081 -0.980787 0
    outer loop
      vertex -0.652631 4.95722 4
      vertex -1.2941 4.82963 3
      vertex -0.652631 4.95722 3
    endloop
  endfacet
  facet normal -0.75183 -0.659357 0
    outer loop
      vertex 3.96677 3.04381 3
      vertex 3.53553 3.53553 4
      vertex 3.53553 3.53553 3
    endloop
  endfacet
  facet normal -0.75183 -0.659357 0
    outer loop
      vertex 3.53553 3.53553 4
      vertex 3.96677 3.04381 3
      vertex 3.96677 3.04381 4
    endloop
  endfacet
  facet normal -0.195081 -0.980787 0
    outer loop
      vertex 0.652631 4.95722 3
      vertex 1.2941 4.82963 4
      vertex 0.652631 4.95722 4
    endloop
  endfacet
  facet normal -0.195081 -0.980787 -0
    outer loop
      vertex 1.2941 4.82963 4
      vertex 0.652631 4.95722 3
      vertex 1.2941 4.82963 3
    endloop
  endfacet
  facet normal -0.75183 0.659357 0
    outer loop
      vertex 3.53553 -3.53553 3
      vertex 3.96677 -3.04381 4
      vertex 3.96677 -3.04381 3
    endloop
  endfacet
  facet normal -0.75183 0.659357 0
    outer loop
      vertex 3.96677 -3.04381 4
      vertex 3.53553 -3.53553 3
      vertex 3.53553 -3.53553 4
    endloop
  endfacet
  facet normal 0.44229 0.896872 -0
    outer loop
      vertex -1.91342 -4.6194 3
      vertex -2.5 -4.33013 4
      vertex -1.91342 -4.6194 4
    endloop
  endfacet
  facet normal 0.44229 0.896872 0
    outer loop
      vertex -2.5 -4.33013 4
      vertex -1.91342 -4.6194 3
      vertex -2.5 -4.33013 3
    endloop
  endfacet
  facet normal 0.0654097 -0.997858 0
    outer loop
      vertex -0.652631 4.95722 3
      vertex 0 5 4
      vertex -0.652631 4.95722 4
    endloop
  endfacet
  facet normal 0.0654097 -0.997858 0
    outer loop
      vertex 0 5 4
      vertex -0.652631 4.95722 3
      vertex 0 5 3
    endloop
  endfacet
  facet normal 0.980787 -0.195081 0
    outer loop
      vertex -4.95722 0.652631 4
      vertex -4.82963 1.2941 3
      vertex -4.82963 1.2941 4
    endloop
  endfacet
  facet normal 0.980787 -0.195081 0
    outer loop
      vertex -4.82963 1.2941 3
      vertex -4.95722 0.652631 4
      vertex -4.95722 0.652631 3
    endloop
  endfacet
  facet normal -0.0654097 0.997858 0
    outer loop
      vertex 0.652631 -4.95722 3
      vertex 0 -5 4
      vertex 0.652631 -4.95722 4
    endloop
  endfacet
  facet normal -0.0654097 0.997858 0
    outer loop
      vertex 0 -5 4
      vertex 0.652631 -4.95722 3
      vertex 0 -5 3
    endloop
  endfacet
  facet normal -0.44229 0.896872 0
    outer loop
      vertex 2.5 -4.33013 3
      vertex 1.91342 -4.6194 4
      vertex 2.5 -4.33013 4
    endloop
  endfacet
  facet normal -0.44229 0.896872 0
    outer loop
      vertex 1.91342 -4.6194 4
      vertex 2.5 -4.33013 3
      vertex 1.91342 -4.6194 3
    endloop
  endfacet
  facet normal -0.659357 0.75183 0
    outer loop
      vertex 3.53553 -3.53553 3
      vertex 3.04381 -3.96677 4
      vertex 3.53553 -3.53553 4
    endloop
  endfacet
  facet normal -0.659357 0.75183 0
    outer loop
      vertex 3.04381 -3.96677 4
      vertex 3.53553 -3.53553 3
      vertex 3.04381 -3.96677 3
    endloop
  endfacet
  facet normal 0.896872 0.44229 0
    outer loop
      vertex -4.33013 -2.5 4
      vertex -4.6194 -1.91342 3
      vertex -4.6194 -1.91342 4
    endloop
  endfacet
  facet normal 0.896872 0.44229 0
    outer loop
      vertex -4.6194 -1.91342 3
      vertex -4.33013 -2.5 4
      vertex -4.33013 -2.5 3
    endloop
  endfacet
  facet normal -0.896872 0.44229 0
    outer loop
      vertex 4.33013 -2.5 3
      vertex 4.6194 -1.91342 4
      vertex 4.6194 -1.91342 3
    endloop
  endfacet
  facet normal -0.896872 0.44229 0
    outer loop
      vertex 4.6194 -1.91342 4
      vertex 4.33013 -2.5 3
      vertex 4.33013 -2.5 4
    endloop
  endfacet
  facet normal -0.659357 -0.75183 0
    outer loop
      vertex 3.04381 3.96677 3
      vertex 3.53553 3.53553 4
      vertex 3.04381 3.96677 4
    endloop
  endfacet
  facet normal -0.659357 -0.75183 -0
    outer loop
      vertex 3.53553 3.53553 4
      vertex 3.04381 3.96677 3
      vertex 3.53553 3.53553 3
    endloop
  endfacet
  facet normal -0.997858 0.0654097 0
    outer loop
      vertex 4.95722 -0.652631 3
      vertex 5 0 4
      vertex 5 0 3
    endloop
  endfacet
  facet normal -0.997858 0.0654097 0
    outer loop
      vertex 5 0 4
      vertex 4.95722 -0.652631 3
      vertex 4.95722 -0.652631 4
    endloop
  endfacet
  facet normal 0.555568 0.831471 -0
    outer loop
      vertex -2.5 -4.33013 3
      vertex -3.04381 -3.96677 4
      vertex -2.5 -4.33013 4
    endloop
  endfacet
  facet normal 0.555568 0.831471 0
    outer loop
      vertex -3.04381 -3.96677 4
      vertex -2.5 -4.33013 3
      vertex -3.04381 -3.96677 3
    endloop
  endfacet
  facet normal -0.896872 -0.44229 0
    outer loop
      vertex 4.6194 1.91342 3
      vertex 4.33013 2.5 4
      vertex 4.33013 2.5 3
    endloop
  endfacet
  facet normal -0.896872 -0.44229 0
    outer loop
      vertex 4.33013 2.5 4
      vertex 4.6194 1.91342 3
      vertex 4.6194 1.91342 4
    endloop
  endfacet
  facet normal -0.980787 0.195081 0
    outer loop
      vertex 4.82963 -1.2941 3
      vertex 4.95722 -0.652631 4
      vertex 4.95722 -0.652631 3
    endloop
  endfacet
  facet normal -0.980787 0.195081 0
    outer loop
      vertex 4.95722 -0.652631 4
      vertex 4.82963 -1.2941 3
      vertex 4.82963 -1.2941 4
    endloop
  endfacet
  facet normal -0.946931 -0.321438 0
    outer loop
      vertex 4.82963 1.2941 3
      vertex 4.6194 1.91342 4
      vertex 4.6194 1.91342 3
    endloop
  endfacet
  facet normal -0.946931 -0.321438 0
    outer loop
      vertex 4.6194 1.91342 4
      vertex 4.82963 1.2941 3
      vertex 4.82963 1.2941 4
    endloop
  endfacet
  facet normal 0 0 1
    outer loop
      vertex 1.1 0 3
      vertex 5 0 3
      vertex 4.95722 0.652631 3
    endloop
  endfacet
  facet normal 0 0 1
    outer loop
      vertex 1.09059 0.143579 3
      vertex 4.95722 0.652631 3
      vertex 4.82963 1.2941 3
    endloop
  endfacet
  facet normal 0 0 1
    outer loop
      vertex 5 0 3
      vertex 1.1 0 3
      vertex 4.95722 -0.652631 3
    endloop
  endfacet
  facet normal 0 0 1
    outer loop
      vertex 1.06252 0.2847 3
      vertex 4.82963 1.2941 3
      vertex 4.6194 1.91342 3
    endloop
  endfacet
  facet normal -0 0 1
    outer loop
      vertex 1.09059 -0.143579 3
      vertex 4.95722 -0.652631 3
      vertex 1.1 0 3
    endloop
  endfacet
  facet normal 0 0 1
    outer loop
      vertex 1.01627 0.420951 3
      vertex 4.6194 1.91342 3
      vertex 4.33013 2.5 3
    endloop
  endfacet
  facet normal 0 0 1
    outer loop
      vertex 4.95722 -0.652631 3
      vertex 1.09059 -0.143579 3
      vertex 4.82963 -1.2941 3
    endloop
  endfacet
  facet normal 0 0 1
    outer loop
      vertex 0.952627 0.549999 3
      vertex 4.33013 2.5 3
      vertex 3.96677 3.04381 3
    endloop
  endfacet
  facet normal -0 0 1
    outer loop
      vertex 1.06252 -0.2847 3
      vertex 4.82963 -1.2941 3
      vertex 1.09059 -0.143579 3
    endloop
  endfacet
  facet normal 0 0 1
    outer loop
      vertex 0.872688 0.669637 3
      vertex 3.96677 3.04381 3
      vertex 3.53553 3.53553 3
    endloop
  endfacet
  facet normal 0 0 1
    outer loop
      vertex 4.82963 -1.2941 3
      vertex 1.06252 -0.2847 3
      vertex 4.6194 -1.91342 3
    endloop
  endfacet
  facet normal 0 0 1
    outer loop
      vertex 0.777817 0.777817 3
      vertex 3.53553 3.53553 3
      vertex 3.04381 3.96677 3
    endloop
  endfacet
  facet normal -0 0 1
    outer loop
      vertex 1.01627 -0.420951 3
      vertex 4.6194 -1.91342 3
      vertex 1.06252 -0.2847 3
    endloop
  endfacet
  facet normal 0 0 1
    outer loop
      vertex 0.669637 0.872688 3
      vertex 3.04381 3.96677 3
      vertex 2.5 4.33013 3
    endloop
  endfacet
  facet normal 0 0 1
    outer loop
      vertex 4.6194 -1.91342 3
      vertex 1.01627 -0.420951 3
      vertex 4.33013 -2.5 3
    endloop
  endfacet
  facet normal 0 0 1
    outer loop
      vertex 0.549999 0.952627 3
      vertex 2.5 4.33013 3
      vertex 1.91342 4.6194 3
    endloop
  endfacet
  facet normal -0 0 1
    outer loop
      vertex 0.952627 -0.549999 3
      vertex 4.33013 -2.5 3
      vertex 1.01627 -0.420951 3
    endloop
  endfacet
  facet normal 0 0 1
    outer loop
      vertex 0.420951 1.01627 3
      vertex 1.91342 4.6194 3
      vertex 1.2941 4.82963 3
    endloop
  endfacet
  facet normal 0 0 1
    outer loop
      vertex 4.33013 -2.5 3
      vertex 0.952627 -0.549999 3
      vertex 3.96677 -3.04381 3
    endloop
  endfacet
  facet normal -0 0 1
    outer loop
      vertex 0.872688 -0.669637 3
      vertex 3.96677 -3.04381 3
      vertex 0.952627 -0.549999 3
    endloop
  endfacet
  facet normal 0 0 1
    outer loop
      vertex 4.95722 0.652631 3
      vertex 1.09059 0.143579 3
      vertex 1.1 0 3
    endloop
  endfacet
  facet normal 0 0 1
    outer loop
      vertex 4.82963 1.2941 3
      vertex 1.06252 0.2847 3
      vertex 1.09059 0.143579 3
    endloop
  endfacet
  facet normal 0 0 1
    outer loop
      vertex 4.6194 1.91342 3
      vertex 1.01627 0.420951 3
      vertex 1.06252 0.2847 3
    endloop
  endfacet
  facet normal 0 0 1
    outer loop
      vertex 4.33013 2.5 3
      vertex 0.952627 0.549999 3
      vertex 1.01627 0.420951 3
    endloop
  endfacet
  facet normal 0 0 1
    outer loop
      vertex 3.96677 3.04381 3
      vertex 0.872688 0.669637 3
      vertex 0.952627 0.549999 3
    endloop
  endfacet
  facet normal 0 0 1
    outer loop
      vertex 3.53553 3.53553 3
      vertex 0.777817 0.777817 3
      vertex 0.872688 0.669637 3
    endloop
  endfacet
  facet normal 0 0 1
    outer loop
      vertex 3.04381 3.96677 3
      vertex 0.669637 0.872688 3
      vertex 0.777817 0.777817 3
    endloop
  endfacet
  facet normal 0 0 1
    outer loop
      vertex 0.2847 1.06252 3
      vertex 1.2941 4.82963 3
      vertex 0.652631 4.95722 3
    endloop
  endfacet
  facet normal 0 0 1
    outer loop
      vertex 2.5 4.33013 3
      vertex 0.549999 0.952627 3
      vertex 0.669637 0.872688 3
    endloop
  endfacet
  facet normal 0 0 1
    outer loop
      vertex 1.91342 4.6194 3
      vertex 0.420951 1.01627 3
      vertex 0.549999 0.952627 3
    endloop
  endfacet
  facet normal 0 0 1
    outer loop
      vertex 1.2941 4.82963 3
      vertex 0.2847 1.06252 3
      vertex 0.420951 1.01627 3
    endloop
  endfacet
  facet normal 0 0 1
    outer loop
      vertex 0.652631 4.95722 3
      vertex 0.143579 1.09059 3
      vertex 0.2847 1.06252 3
    endloop
  endfacet
  facet normal 0 0 1
    outer loop
      vertex 0 5 3
      vertex 0.143579 1.09059 3
      vertex 0.652631 4.95722 3
    endloop
  endfacet
  facet normal 0 0 1
    outer loop
      vertex 0 5 3
      vertex 0 1.1 3
      vertex 0.143579 1.09059 3
    endloop
  endfacet
  facet normal 0 0 1
    outer loop
      vertex 0 5 3
      vertex -0.143579 1.09059 3
      vertex 0 1.1 3
    endloop
  endfacet
  facet normal -0 0 1
    outer loop
      vertex -0.652631 4.95722 3
      vertex -0.143579 1.09059 3
      vertex 0 5 3
    endloop
  endfacet
  facet normal 0 0 1
    outer loop
      vertex -0.143579 1.09059 3
      vertex -0.652631 4.95722 3
      vertex -0.2847 1.06252 3
    endloop
  endfacet
  facet normal -0 0 1
    outer loop
      vertex -1.2941 4.82963 3
      vertex -0.2847 1.06252 3
      vertex -0.652631 4.95722 3
    endloop
  endfacet
  facet normal 0 0 1
    outer loop
      vertex -0.2847 1.06252 3
      vertex -1.2941 4.82963 3
      vertex -0.420951 1.01627 3
    endloop
  endfacet
  facet normal -0 0 1
    outer loop
      vertex -1.91342 4.6194 3
      vertex -0.420951 1.01627 3
      vertex -1.2941 4.82963 3
    endloop
  endfacet
  facet normal 0 0 1
    outer loop
      vertex -0.420951 1.01627 3
      vertex -1.91342 4.6194 3
      vertex -0.549999 0.952627 3
    endloop
  endfacet
  facet normal -0 0 1
    outer loop
      vertex -2.5 4.33013 3
      vertex -0.549999 0.952627 3
      vertex -1.91342 4.6194 3
    endloop
  endfacet
  facet normal 0 0 1
    outer loop
      vertex -0.549999 0.952627 3
      vertex -2.5 4.33013 3
      vertex -0.669637 0.872688 3
    endloop
  endfacet
  facet normal -0 0 1
    outer loop
      vertex -3.04381 3.96677 3
      vertex -0.669637 0.872688 3
      vertex -2.5 4.33013 3
    endloop
  endfacet
  facet normal 0 0 1
    outer loop
      vertex -0.669637 0.872688 3
      vertex -3.04381 3.96677 3
      vertex -0.777817 0.777817 3
    endloop
  endfacet
  facet normal -0 0 1
    outer loop
      vertex -3.53553 3.53553 3
      vertex -0.777817 0.777817 3
      vertex -3.04381 3.96677 3
    endloop
  endfacet
  facet normal -0 0 1
    outer loop
      vertex -3.96677 3.04381 3
      vertex -0.872688 0.669637 3
      vertex -3.53553 3.53553 3
    endloop
  endfacet
  facet normal 0 0 1
    outer loop
      vertex -0.777817 0.777817 3
      vertex -3.53553 3.53553 3
      vertex -0.872688 0.669637 3
    endloop
  endfacet
  facet normal 0 0 1
    outer loop
      vertex 3.96677 -3.04381 3
      vertex 0.872688 -0.669637 3
      vertex 3.53553 -3.53553 3
    endloop
  endfacet
  facet normal -0 0 1
    outer loop
      vertex 0.777817 -0.777817 3
      vertex 3.53553 -3.53553 3
      vertex 0.872688 -0.669637 3
    endloop
  endfacet
  facet normal 0 0 1
    outer loop
      vertex 3.53553 -3.53553 3
      vertex 0.777817 -0.777817 3
      vertex 3.04381 -3.96677 3
    endloop
  endfacet
  facet normal -0 0 1
    outer loop
      vertex 0.669637 -0.872688 3
      vertex 3.04381 -3.96677 3
      vertex 0.777817 -0.777817 3
    endloop
  endfacet
  facet normal 0 0 1
    outer loop
      vertex 3.04381 -3.96677 3
      vertex 0.669637 -0.872688 3
      vertex 2.5 -4.33013 3
    endloop
  endfacet
  facet normal -0 0 1
    outer loop
      vertex 0.549999 -0.952627 3
      vertex 2.5 -4.33013 3
      vertex 0.669637 -0.872688 3
    endloop
  endfacet
  facet normal 0 0 1
    outer loop
      vertex 2.5 -4.33013 3
      vertex 0.549999 -0.952627 3
      vertex 1.91342 -4.6194 3
    endloop
  endfacet
  facet normal -0 0 1
    outer loop
      vertex 0.420951 -1.01627 3
      vertex 1.91342 -4.6194 3
      vertex 0.549999 -0.952627 3
    endloop
  endfacet
  facet normal 0 0 1
    outer loop
      vertex 1.91342 -4.6194 3
      vertex 0.420951 -1.01627 3
      vertex 1.2941 -4.82963 3
    endloop
  endfacet
  facet normal -0 0 1
    outer loop
      vertex 0.2847 -1.06252 3
      vertex 1.2941 -4.82963 3
      vertex 0.420951 -1.01627 3
    endloop
  endfacet
  facet normal 0 0 1
    outer loop
      vertex 1.2941 -4.82963 3
      vertex 0.2847 -1.06252 3
      vertex 0.652631 -4.95722 3
    endloop
  endfacet
  facet normal -0 0 1
    outer loop
      vertex 0.143579 -1.09059 3
      vertex 0.652631 -4.95722 3
      vertex 0.2847 -1.06252 3
    endloop
  endfacet
  facet normal -0 0 1
    outer loop
      vertex 0 -1.1 3
      vertex 0.652631 -4.95722 3
      vertex 0.143579 -1.09059 3
    endloop
  endfacet
  facet normal 0 0 1
    outer loop
      vertex 0 -1.1 3
      vertex 0 -5 3
      vertex 0.652631 -4.95722 3
    endloop
  endfacet
  facet normal 0 0 1
    outer loop
      vertex -0.143579 -1.09059 3
      vertex 0 -5 3
      vertex 0 -1.1 3
    endloop
  endfacet
  facet normal 0 0 1
    outer loop
      vertex -0.652631 -4.95722 3
      vertex -0.143579 -1.09059 3
      vertex -0.2847 -1.06252 3
    endloop
  endfacet
  facet normal 0 0 1
    outer loop
      vertex -1.2941 -4.82963 3
      vertex -0.2847 -1.06252 3
      vertex -0.420951 -1.01627 3
    endloop
  endfacet
  facet normal 0 0 1
    outer loop
      vertex -1.91342 -4.6194 3
      vertex -0.420951 -1.01627 3
      vertex -0.549999 -0.952627 3
    endloop
  endfacet
  facet normal 0 0 1
    outer loop
      vertex -0.143579 -1.09059 3
      vertex -0.652631 -4.95722 3
      vertex 0 -5 3
    endloop
  endfacet
  facet normal 0 0 1
    outer loop
      vertex -2.5 -4.33013 3
      vertex -0.549999 -0.952627 3
      vertex -0.669637 -0.872688 3
    endloop
  endfacet
  facet normal 0 0 1
    outer loop
      vertex -3.04381 -3.96677 3
      vertex -0.669637 -0.872688 3
      vertex -0.777817 -0.777817 3
    endloop
  endfacet
  facet normal 0 0 1
    outer loop
      vertex -3.53553 -3.53553 3
      vertex -0.777817 -0.777817 3
      vertex -0.872688 -0.669637 3
    endloop
  endfacet
  facet normal 0 0 1
    outer loop
      vertex -3.96677 -3.04381 3
      vertex -0.872688 -0.669637 3
      vertex -0.952627 -0.549999 3
    endloop
  endfacet
  facet normal 0 0 1
    outer loop
      vertex -4.33013 -2.5 3
      vertex -0.952627 -0.549999 3
      vertex -1.01627 -0.420951 3
    endloop
  endfacet
  facet normal 0 0 1
    outer loop
      vertex -4.6194 -1.91342 3
      vertex -1.01627 -0.420951 3
      vertex -1.06252 -0.2847 3
    endloop
  endfacet
  facet normal 0 0 1
    outer loop
      vertex -4.82963 -1.2941 3
      vertex -1.06252 -0.2847 3
      vertex -1.09059 -0.143579 3
    endloop
  endfacet
  facet normal 0 0 1
    outer loop
      vertex -0.2847 -1.06252 3
      vertex -1.2941 -4.82963 3
      vertex -0.652631 -4.95722 3
    endloop
  endfacet
  facet normal 0 0 1
    outer loop
      vertex -4.95722 -0.652631 3
      vertex -1.09059 -0.143579 3
      vertex -1.1 0 3
    endloop
  endfacet
  facet normal 0 0 1
    outer loop
      vertex -0.872688 0.669637 3
      vertex -3.96677 3.04381 3
      vertex -0.952627 0.549999 3
    endloop
  endfacet
  facet normal -0 0 1
    outer loop
      vertex -4.33013 2.5 3
      vertex -0.952627 0.549999 3
      vertex -3.96677 3.04381 3
    endloop
  endfacet
  facet normal 0 0 1
    outer loop
      vertex -0.420951 -1.01627 3
      vertex -1.91342 -4.6194 3
      vertex -1.2941 -4.82963 3
    endloop
  endfacet
  facet normal 0 0 1
    outer loop
      vertex -0.952627 0.549999 3
      vertex -4.33013 2.5 3
      vertex -1.01627 0.420951 3
    endloop
  endfacet
  facet normal 0 0 1
    outer loop
      vertex -0.549999 -0.952627 3
      vertex -2.5 -4.33013 3
      vertex -1.91342 -4.6194 3
    endloop
  endfacet
  facet normal -0 0 1
    outer loop
      vertex -4.6194 1.91342 3
      vertex -1.01627 0.420951 3
      vertex -4.33013 2.5 3
    endloop
  endfacet
  facet normal 0 0 1
    outer loop
      vertex -0.669637 -0.872688 3
      vertex -3.04381 -3.96677 3
      vertex -2.5 -4.33013 3
    endloop
  endfacet
  facet normal 0 0 1
    outer loop
      vertex -1.01627 0.420951 3
      vertex -4.6194 1.91342 3
      vertex -1.06252 0.2847 3
    endloop
  endfacet
  facet normal 0 0 1
    outer loop
      vertex -0.777817 -0.777817 3
      vertex -3.53553 -3.53553 3
      vertex -3.04381 -3.96677 3
    endloop
  endfacet
  facet normal -0 0 1
    outer loop
      vertex -4.82963 1.2941 3
      vertex -1.06252 0.2847 3
      vertex -4.6194 1.91342 3
    endloop
  endfacet
  facet normal 0 0 1
    outer loop
      vertex -0.872688 -0.669637 3
      vertex -3.96677 -3.04381 3
      vertex -3.53553 -3.53553 3
    endloop
  endfacet
  facet normal 0 0 1
    outer loop
      vertex -1.06252 0.2847 3
      vertex -4.82963 1.2941 3
      vertex -1.09059 0.143579 3
    endloop
  endfacet
  facet normal 0 0 1
    outer loop
      vertex -0.952627 -0.549999 3
      vertex -4.33013 -2.5 3
      vertex -3.96677 -3.04381 3
    endloop
  endfacet
  facet normal -0 0 1
    outer loop
      vertex -4.95722 0.652631 3
      vertex -1.09059 0.143579 3
      vertex -4.82963 1.2941 3
    endloop
  endfacet
  facet normal 0 0 1
    outer loop
      vertex -1.01627 -0.420951 3
      vertex -4.6194 -1.91342 3
      vertex -4.33013 -2.5 3
    endloop
  endfacet
  facet normal 0 0 1
    outer loop
      vertex -1.09059 0.143579 3
      vertex -4.95722 0.652631 3
      vertex -1.1 0 3
    endloop
  endfacet
  facet normal 0 0 1
    outer loop
      vertex -1.06252 -0.2847 3
      vertex -4.82963 -1.2941 3
      vertex -4.6194 -1.91342 3
    endloop
  endfacet
  facet normal 0 0 1
    outer loop
      vertex -5 0 3
      vertex -1.1 0 3
      vertex -4.95722 0.652631 3
    endloop
  endfacet
  facet normal 0 0 1
    outer loop
      vertex -1.09059 -0.143579 3
      vertex -4.95722 -0.652631 3
      vertex -4.82963 -1.2941 3
    endloop
  endfacet
  facet normal 0 0 1
    outer loop
      vertex -1.1 0 3
      vertex -5 0 3
      vertex -4.95722 -0.652631 3
    endloop
  endfacet
  facet normal 0.980787 0.195081 0
    outer loop
      vertex -4.82963 -1.2941 4
      vertex -4.95722 -0.652631 3
      vertex -4.95722 -0.652631 4
    endloop
  endfacet
  facet normal 0.980787 0.195081 0
    outer loop
      vertex -4.95722 -0.652631 3
      vertex -4.82963 -1.2941 4
      vertex -4.82963 -1.2941 3
    endloop
  endfacet
  facet normal 0.195081 0.980787 -0
    outer loop
      vertex -0.652631 -4.95722 3
      vertex -1.2941 -4.82963 4
      vertex -0.652631 -4.95722 4
    endloop
  endfacet
  facet normal 0.195081 0.980787 0
    outer loop
      vertex -1.2941 -4.82963 4
      vertex -0.652631 -4.95722 3
      vertex -1.2941 -4.82963 3
    endloop
  endfacet
  facet normal 0.831471 -0.555568 0
    outer loop
      vertex -4.33013 2.5 4
      vertex -3.96677 3.04381 3
      vertex -3.96677 3.04381 4
    endloop
  endfacet
  facet normal 0.831471 -0.555568 0
    outer loop
      vertex -3.96677 3.04381 3
      vertex -4.33013 2.5 4
      vertex -4.33013 2.5 3
    endloop
  endfacet
  facet normal 0.0654097 0.997858 -0
    outer loop
      vertex 0 -5 3
      vertex -0.652631 -4.95722 4
      vertex 0 -5 4
    endloop
  endfacet
  facet normal 0.0654097 0.997858 0
    outer loop
      vertex -0.652631 -4.95722 4
      vertex 0 -5 3
      vertex -0.652631 -4.95722 3
    endloop
  endfacet
  facet normal -0.0653985 -0.997859 0
    outer loop
      vertex 0 1.1 0
      vertex 0.143579 1.09059 3
      vertex 0 1.1 3
    endloop
  endfacet
  facet normal -0.0653985 -0.997859 -0
    outer loop
      vertex 0.143579 1.09059 3
      vertex 0 1.1 0
      vertex 0.143579 1.09059 0
    endloop
  endfacet
  facet normal -0.980786 0.195086 0
    outer loop
      vertex 1.06252 -0.2847 0
      vertex 1.09059 -0.143579 3
      vertex 1.09059 -0.143579 0
    endloop
  endfacet
  facet normal -0.980786 0.195086 0
    outer loop
      vertex 1.09059 -0.143579 3
      vertex 1.06252 -0.2847 0
      vertex 1.06252 -0.2847 3
    endloop
  endfacet
  facet normal -0.442309 -0.896863 0
    outer loop
      vertex 0.420951 1.01627 0
      vertex 0.549999 0.952627 3
      vertex 0.420951 1.01627 3
    endloop
  endfacet
  facet normal -0.442309 -0.896863 -0
    outer loop
      vertex 0.549999 0.952627 3
      vertex 0.420951 1.01627 0
      vertex 0.549999 0.952627 0
    endloop
  endfacet
  facet normal -0.980786 -0.195086 0
    outer loop
      vertex 1.09059 0.143579 0
      vertex 1.06252 0.2847 3
      vertex 1.06252 0.2847 0
    endloop
  endfacet
  facet normal -0.980786 -0.195086 0
    outer loop
      vertex 1.06252 0.2847 3
      vertex 1.09059 0.143579 0
      vertex 1.09059 0.143579 3
    endloop
  endfacet
  facet normal -0.555568 0.831471 0
    outer loop
      vertex 0.669637 -0.872688 0
      vertex 0.549999 -0.952627 3
      vertex 0.669637 -0.872688 3
    endloop
  endfacet
  facet normal -0.555568 0.831471 0
    outer loop
      vertex 0.549999 -0.952627 3
      vertex 0.669637 -0.872688 0
      vertex 0.549999 -0.952627 0
    endloop
  endfacet
  facet normal -0.831471 0.555568 0
    outer loop
      vertex 0.872688 -0.669637 0
      vertex 0.952627 -0.549999 3
      vertex 0.952627 -0.549999 0
    endloop
  endfacet
  facet normal -0.831471 0.555568 0
    outer loop
      vertex 0.952627 -0.549999 3
      vertex 0.872688 -0.669637 0
      vertex 0.872688 -0.669637 3
    endloop
  endfacet
  facet normal 0.831471 0.555568 0
    outer loop
      vertex -0.872688 -0.669637 3
      vertex -0.952627 -0.549999 0
      vertex -0.952627 -0.549999 3
    endloop
  endfacet
  facet normal 0.831471 0.555568 0
    outer loop
      vertex -0.952627 -0.549999 0
      vertex -0.872688 -0.669637 3
      vertex -0.872688 -0.669637 0
    endloop
  endfacet
  facet normal -0.946932 -0.321433 0
    outer loop
      vertex 1.06252 0.2847 0
      vertex 1.01627 0.420951 3
      vertex 1.01627 0.420951 0
    endloop
  endfacet
  facet normal -0.946932 -0.321433 0
    outer loop
      vertex 1.01627 0.420951 3
      vertex 1.06252 0.2847 0
      vertex 1.06252 0.2847 3
    endloop
  endfacet
  facet normal -0.896863 0.442309 0
    outer loop
      vertex 0.952627 -0.549999 0
      vertex 1.01627 -0.420951 3
      vertex 1.01627 -0.420951 0
    endloop
  endfacet
  facet normal -0.896863 0.442309 0
    outer loop
      vertex 1.01627 -0.420951 3
      vertex 0.952627 -0.549999 0
      vertex 0.952627 -0.549999 3
    endloop
  endfacet
  facet normal -0.997859 -0.0653985 0
    outer loop
      vertex 1.1 0 0
      vertex 1.09059 0.143579 3
      vertex 1.09059 0.143579 0
    endloop
  endfacet
  facet normal -0.997859 -0.0653985 0
    outer loop
      vertex 1.09059 0.143579 3
      vertex 1.1 0 0
      vertex 1.1 0 3
    endloop
  endfacet
  facet normal -0.751841 -0.659345 0
    outer loop
      vertex 0.872688 0.669637 0
      vertex 0.777817 0.777817 3
      vertex 0.777817 0.777817 0
    endloop
  endfacet
  facet normal -0.751841 -0.659345 0
    outer loop
      vertex 0.777817 0.777817 3
      vertex 0.872688 0.669637 0
      vertex 0.872688 0.669637 3
    endloop
  endfacet
  facet normal 0.980786 -0.195086 0
    outer loop
      vertex -1.09059 0.143579 3
      vertex -1.06252 0.2847 0
      vertex -1.06252 0.2847 3
    endloop
  endfacet
  facet normal 0.980786 -0.195086 0
    outer loop
      vertex -1.06252 0.2847 0
      vertex -1.09059 0.143579 3
      vertex -1.09059 0.143579 0
    endloop
  endfacet
  facet normal -0.0653985 0.997859 0
    outer loop
      vertex 0.143579 -1.09059 0
      vertex 0 -1.1 3
      vertex 0.143579 -1.09059 3
    endloop
  endfacet
  facet normal -0.0653985 0.997859 0
    outer loop
      vertex 0 -1.1 3
      vertex 0.143579 -1.09059 0
      vertex 0 -1.1 0
    endloop
  endfacet
  facet normal 0.659345 -0.751841 0
    outer loop
      vertex -0.777817 0.777817 0
      vertex -0.669637 0.872688 3
      vertex -0.777817 0.777817 3
    endloop
  endfacet
  facet normal 0.659345 -0.751841 0
    outer loop
      vertex -0.669637 0.872688 3
      vertex -0.777817 0.777817 0
      vertex -0.669637 0.872688 0
    endloop
  endfacet
  facet normal -0.997859 0.0653985 0
    outer loop
      vertex 1.09059 -0.143579 0
      vertex 1.1 0 3
      vertex 1.1 0 0
    endloop
  endfacet
  facet normal -0.997859 0.0653985 0
    outer loop
      vertex 1.1 0 3
      vertex 1.09059 -0.143579 0
      vertex 1.09059 -0.143579 3
    endloop
  endfacet
  facet normal 0.946932 -0.321433 0
    outer loop
      vertex -1.06252 0.2847 3
      vertex -1.01627 0.420951 0
      vertex -1.01627 0.420951 3
    endloop
  endfacet
  facet normal 0.946932 -0.321433 0
    outer loop
      vertex -1.01627 0.420951 0
      vertex -1.06252 0.2847 3
      vertex -1.06252 0.2847 0
    endloop
  endfacet
  facet normal -0.442309 0.896863 0
    outer loop
      vertex 0.549999 -0.952627 0
      vertex 0.420951 -1.01627 3
      vertex 0.549999 -0.952627 3
    endloop
  endfacet
  facet normal -0.442309 0.896863 0
    outer loop
      vertex 0.420951 -1.01627 3
      vertex 0.549999 -0.952627 0
      vertex 0.420951 -1.01627 0
    endloop
  endfacet
  facet normal -0.659345 0.751841 0
    outer loop
      vertex 0.777817 -0.777817 0
      vertex 0.669637 -0.872688 3
      vertex 0.777817 -0.777817 3
    endloop
  endfacet
  facet normal -0.659345 0.751841 0
    outer loop
      vertex 0.669637 -0.872688 3
      vertex 0.777817 -0.777817 0
      vertex 0.669637 -0.872688 0
    endloop
  endfacet
  facet normal 0.0653985 -0.997859 0
    outer loop
      vertex -0.143579 1.09059 0
      vertex 0 1.1 3
      vertex -0.143579 1.09059 3
    endloop
  endfacet
  facet normal 0.0653985 -0.997859 0
    outer loop
      vertex 0 1.1 3
      vertex -0.143579 1.09059 0
      vertex 0 1.1 0
    endloop
  endfacet
  facet normal 0.997859 0.0653985 0
    outer loop
      vertex -1.09059 -0.143579 3
      vertex -1.1 0 0
      vertex -1.1 0 3
    endloop
  endfacet
  facet normal 0.997859 0.0653985 0
    outer loop
      vertex -1.1 0 0
      vertex -1.09059 -0.143579 3
      vertex -1.09059 -0.143579 0
    endloop
  endfacet
  facet normal 0.195086 -0.980786 0
    outer loop
      vertex -0.2847 1.06252 0
      vertex -0.143579 1.09059 3
      vertex -0.2847 1.06252 3
    endloop
  endfacet
  facet normal 0.195086 -0.980786 0
    outer loop
      vertex -0.143579 1.09059 3
      vertex -0.2847 1.06252 0
      vertex -0.143579 1.09059 0
    endloop
  endfacet
  facet normal -0.321433 0.946932 0
    outer loop
      vertex 0.420951 -1.01627 0
      vertex 0.2847 -1.06252 3
      vertex 0.420951 -1.01627 3
    endloop
  endfacet
  facet normal -0.321433 0.946932 0
    outer loop
      vertex 0.2847 -1.06252 3
      vertex 0.420951 -1.01627 0
      vertex 0.2847 -1.06252 0
    endloop
  endfacet
  facet normal 0.751841 -0.659345 0
    outer loop
      vertex -0.872688 0.669637 3
      vertex -0.777817 0.777817 0
      vertex -0.777817 0.777817 3
    endloop
  endfacet
  facet normal 0.751841 -0.659345 0
    outer loop
      vertex -0.777817 0.777817 0
      vertex -0.872688 0.669637 3
      vertex -0.872688 0.669637 0
    endloop
  endfacet
  facet normal 0.751841 0.659345 0
    outer loop
      vertex -0.777817 -0.777817 3
      vertex -0.872688 -0.669637 0
      vertex -0.872688 -0.669637 3
    endloop
  endfacet
  facet normal 0.751841 0.659345 0
    outer loop
      vertex -0.872688 -0.669637 0
      vertex -0.777817 -0.777817 3
      vertex -0.777817 -0.777817 0
    endloop
  endfacet
  facet normal -0.751841 0.659345 0
    outer loop
      vertex 0.777817 -0.777817 0
      vertex 0.872688 -0.669637 3
      vertex 0.872688 -0.669637 0
    endloop
  endfacet
  facet normal -0.751841 0.659345 0
    outer loop
      vertex 0.872688 -0.669637 3
      vertex 0.777817 -0.777817 0
      vertex 0.777817 -0.777817 3
    endloop
  endfacet
  facet normal -0.831471 -0.555568 0
    outer loop
      vertex 0.952627 0.549999 0
      vertex 0.872688 0.669637 3
      vertex 0.872688 0.669637 0
    endloop
  endfacet
  facet normal -0.831471 -0.555568 0
    outer loop
      vertex 0.872688 0.669637 3
      vertex 0.952627 0.549999 0
      vertex 0.952627 0.549999 3
    endloop
  endfacet
  facet normal -0.659345 -0.751841 0
    outer loop
      vertex 0.669637 0.872688 0
      vertex 0.777817 0.777817 3
      vertex 0.669637 0.872688 3
    endloop
  endfacet
  facet normal -0.659345 -0.751841 -0
    outer loop
      vertex 0.777817 0.777817 3
      vertex 0.669637 0.872688 0
      vertex 0.777817 0.777817 0
    endloop
  endfacet
  facet normal 0.997859 -0.0653985 0
    outer loop
      vertex -1.1 0 3
      vertex -1.09059 0.143579 0
      vertex -1.09059 0.143579 3
    endloop
  endfacet
  facet normal 0.997859 -0.0653985 0
    outer loop
      vertex -1.09059 0.143579 0
      vertex -1.1 0 3
      vertex -1.1 0 0
    endloop
  endfacet
  facet normal -0.555568 -0.831471 0
    outer loop
      vertex 0.549999 0.952627 0
      vertex 0.669637 0.872688 3
      vertex 0.549999 0.952627 3
    endloop
  endfacet
  facet normal -0.555568 -0.831471 -0
    outer loop
      vertex 0.669637 0.872688 3
      vertex 0.549999 0.952627 0
      vertex 0.669637 0.872688 0
    endloop
  endfacet
  facet normal -0.195086 -0.980786 0
    outer loop
      vertex 0.143579 1.09059 0
      vertex 0.2847 1.06252 3
      vertex 0.143579 1.09059 3
    endloop
  endfacet
  facet normal -0.195086 -0.980786 -0
    outer loop
      vertex 0.2847 1.06252 3
      vertex 0.143579 1.09059 0
      vertex 0.2847 1.06252 0
    endloop
  endfacet
  facet normal 0.321433 -0.946932 0
    outer loop
      vertex -0.420951 1.01627 0
      vertex -0.2847 1.06252 3
      vertex -0.420951 1.01627 3
    endloop
  endfacet
  facet normal 0.321433 -0.946932 0
    outer loop
      vertex -0.2847 1.06252 3
      vertex -0.420951 1.01627 0
      vertex -0.2847 1.06252 0
    endloop
  endfacet
  facet normal -0.321433 -0.946932 0
    outer loop
      vertex 0.2847 1.06252 0
      vertex 0.420951 1.01627 3
      vertex 0.2847 1.06252 3
    endloop
  endfacet
  facet normal -0.321433 -0.946932 -0
    outer loop
      vertex 0.420951 1.01627 3
      vertex 0.2847 1.06252 0
      vertex 0.420951 1.01627 0
    endloop
  endfacet
  facet normal 0.831471 -0.555568 0
    outer loop
      vertex -0.952627 0.549999 3
      vertex -0.872688 0.669637 0
      vertex -0.872688 0.669637 3
    endloop
  endfacet
  facet normal 0.831471 -0.555568 0
    outer loop
      vertex -0.872688 0.669637 0
      vertex -0.952627 0.549999 3
      vertex -0.952627 0.549999 0
    endloop
  endfacet
  facet normal 0.0653985 0.997859 -0
    outer loop
      vertex 0 -1.1 0
      vertex -0.143579 -1.09059 3
      vertex 0 -1.1 3
    endloop
  endfacet
  facet normal 0.0653985 0.997859 0
    outer loop
      vertex -0.143579 -1.09059 3
      vertex 0 -1.1 0
      vertex -0.143579 -1.09059 0
    endloop
  endfacet
  facet normal 0.321433 0.946932 -0
    outer loop
      vertex -0.2847 -1.06252 0
      vertex -0.420951 -1.01627 3
      vertex -0.2847 -1.06252 3
    endloop
  endfacet
  facet normal 0.321433 0.946932 0
    outer loop
      vertex -0.420951 -1.01627 3
      vertex -0.2847 -1.06252 0
      vertex -0.420951 -1.01627 0
    endloop
  endfacet
  facet normal 0.980786 0.195086 0
    outer loop
      vertex -1.06252 -0.2847 3
      vertex -1.09059 -0.143579 0
      vertex -1.09059 -0.143579 3
    endloop
  endfacet
  facet normal 0.980786 0.195086 0
    outer loop
      vertex -1.09059 -0.143579 0
      vertex -1.06252 -0.2847 3
      vertex -1.06252 -0.2847 0
    endloop
  endfacet
  facet normal -0.946932 0.321433 0
    outer loop
      vertex 1.01627 -0.420951 0
      vertex 1.06252 -0.2847 3
      vertex 1.06252 -0.2847 0
    endloop
  endfacet
  facet normal -0.946932 0.321433 0
    outer loop
      vertex 1.06252 -0.2847 3
      vertex 1.01627 -0.420951 0
      vertex 1.01627 -0.420951 3
    endloop
  endfacet
  facet normal 0.946932 0.321433 0
    outer loop
      vertex -1.01627 -0.420951 3
      vertex -1.06252 -0.2847 0
      vertex -1.06252 -0.2847 3
    endloop
  endfacet
  facet normal 0.946932 0.321433 0
    outer loop
      vertex -1.06252 -0.2847 0
      vertex -1.01627 -0.420951 3
      vertex -1.01627 -0.420951 0
    endloop
  endfacet
  facet normal 0.555568 0.831471 -0
    outer loop
      vertex -0.549999 -0.952627 0
      vertex -0.669637 -0.872688 3
      vertex -0.549999 -0.952627 3
    endloop
  endfacet
  facet normal 0.555568 0.831471 0
    outer loop
      vertex -0.669637 -0.872688 3
      vertex -0.549999 -0.952627 0
      vertex -0.669637 -0.872688 0
    endloop
  endfacet
  facet normal -0.195086 0.980786 0
    outer loop
      vertex 0.2847 -1.06252 0
      vertex 0.143579 -1.09059 3
      vertex 0.2847 -1.06252 3
    endloop
  endfacet
  facet normal -0.195086 0.980786 0
    outer loop
      vertex 0.143579 -1.09059 3
      vertex 0.2847 -1.06252 0
      vertex 0.143579 -1.09059 0
    endloop
  endfacet
  facet normal -0.896863 -0.442309 0
    outer loop
      vertex 1.01627 0.420951 0
      vertex 0.952627 0.549999 3
      vertex 0.952627 0.549999 0
    endloop
  endfacet
  facet normal -0.896863 -0.442309 0
    outer loop
      vertex 0.952627 0.549999 3
      vertex 1.01627 0.420951 0
      vertex 1.01627 0.420951 3
    endloop
  endfacet
  facet normal 0.659345 0.751841 -0
    outer loop
      vertex -0.669637 -0.872688 0
      vertex -0.777817 -0.777817 3
      vertex -0.669637 -0.872688 3
    endloop
  endfacet
  facet normal 0.659345 0.751841 0
    outer loop
      vertex -0.777817 -0.777817 3
      vertex -0.669637 -0.872688 0
      vertex -0.777817 -0.777817 0
    endloop
  endfacet
  facet normal 0.555568 -0.831471 0
    outer loop
      vertex -0.669637 0.872688 0
      vertex -0.549999 0.952627 3
      vertex -0.669637 0.872688 3
    endloop
  endfacet
  facet normal 0.555568 -0.831471 0
    outer loop
      vertex -0.549999 0.952627 3
      vertex -0.669637 0.872688 0
      vertex -0.549999 0.952627 0
    endloop
  endfacet
  facet normal 0.442309 0.896863 -0
    outer loop
      vertex -0.420951 -1.01627 0
      vertex -0.549999 -0.952627 3
      vertex -0.420951 -1.01627 3
    endloop
  endfacet
  facet normal 0.442309 0.896863 0
    outer loop
      vertex -0.549999 -0.952627 3
      vertex -0.420951 -1.01627 0
      vertex -0.549999 -0.952627 0
    endloop
  endfacet
  facet normal 0.195086 0.980786 -0
    outer loop
      vertex -0.143579 -1.09059 0
      vertex -0.2847 -1.06252 3
      vertex -0.143579 -1.09059 3
    endloop
  endfacet
  facet normal 0.195086 0.980786 0
    outer loop
      vertex -0.2847 -1.06252 3
      vertex -0.143579 -1.09059 0
      vertex -0.2847 -1.06252 0
    endloop
  endfacet
  facet normal 0.442309 -0.896863 0
    outer loop
      vertex -0.549999 0.952627 0
      vertex -0.420951 1.01627 3
      vertex -0.549999 0.952627 3
    endloop
  endfacet
  facet normal 0.442309 -0.896863 0
    outer loop
      vertex -0.420951 1.01627 3
      vertex -0.549999 0.952627 0
      vertex -0.420951 1.01627 0
    endloop
  endfacet
  facet normal 0.896863 0.442309 0
    outer loop
      vertex -0.952627 -0.549999 3
      vertex -1.01627 -0.420951 0
      vertex -1.01627 -0.420951 3
    endloop
  endfacet
  facet normal 0.896863 0.442309 0
    outer loop
      vertex -1.01627 -0.420951 0
      vertex -0.952627 -0.549999 3
      vertex -0.952627 -0.549999 0
    endloop
  endfacet
  facet normal 0.896863 -0.442309 0
    outer loop
      vertex -1.01627 0.420951 3
      vertex -0.952627 0.549999 0
      vertex -0.952627 0.549999 3
    endloop
  endfacet
  facet normal 0.896863 -0.442309 0
    outer loop
      vertex -0.952627 0.549999 0
      vertex -1.01627 0.420951 3
      vertex -1.01627 0.420951 0
    endloop
  endfacet
endsolid OpenSCAD_Model
