solid OpenSCAD_Model
  facet normal 0.740823 -0.6717 0
    outer loop
      vertex 37.2426 69.7574 14
      vertex 37.6381 70.1936 0
      vertex 37.6381 70.1936 14
    endloop
  endfacet
  facet normal 0.740823 -0.6717 0
    outer loop
      vertex 37.6381 70.1936 0
      vertex 37.2426 69.7574 14
      vertex 37.2426 69.7574 0
    endloop
  endfacet
  facet normal 0.803289 -0.595589 0
    outer loop
      vertex 37.6381 70.1936 14
      vertex 37.9888 70.6666 0
      vertex 37.9888 70.6666 14
    endloop
  endfacet
  facet normal 0.803289 -0.595589 0
    outer loop
      vertex 37.9888 70.6666 0
      vertex 37.6381 70.1936 14
      vertex 37.6381 70.1936 0
    endloop
  endfacet
  facet normal 0.989196 0.146598 0
    outer loop
      vertex 38.9711 124.588 14
      vertex 38.8847 125.171 0
      vertex 38.8847 125.171 14
    endloop
  endfacet
  facet normal 0.989196 0.146598 0
    outer loop
      vertex 38.8847 125.171 0
      vertex 38.9711 124.588 14
      vertex 38.9711 124.588 0
    endloop
  endfacet
  facet normal 0.970002 0.243095 0
    outer loop
      vertex 38.8847 125.171 14
      vertex 38.7416 125.742 0
      vertex 38.7416 125.742 14
    endloop
  endfacet
  facet normal 0.970002 0.243095 0
    outer loop
      vertex 38.7416 125.742 0
      vertex 38.8847 125.171 14
      vertex 38.8847 125.171 0
    endloop
  endfacet
  facet normal 0 -1 0
    outer loop
      vertex -33 68 14
      vertex -19.4 68 3
      vertex -19.4 68 14
    endloop
  endfacet
  facet normal 0 -1 -0
    outer loop
      vertex -19.4 68 3
      vertex -33 68 0
      vertex 19.4 68 3
    endloop
  endfacet
  facet normal 0 -1 0
    outer loop
      vertex -33 68 0
      vertex -19.4 68 3
      vertex -33 68 14
    endloop
  endfacet
  facet normal 0 -1 0
    outer loop
      vertex 19.4 68 3
      vertex 33 68 14
      vertex 19.4 68 14
    endloop
  endfacet
  facet normal 0 -1 0
    outer loop
      vertex 19.4 68 3
      vertex 33 68 0
      vertex 33 68 14
    endloop
  endfacet
  facet normal 0 -1 0
    outer loop
      vertex 33 68 0
      vertex 19.4 68 3
      vertex -33 68 0
    endloop
  endfacet
  facet normal 0.903962 -0.427612 0
    outer loop
      vertex 38.2915 71.1716 14
      vertex 38.5433 71.7039 0
      vertex 38.5433 71.7039 14
    endloop
  endfacet
  facet normal 0.903962 -0.427612 0
    outer loop
      vertex 38.5433 71.7039 0
      vertex 38.2915 71.1716 14
      vertex 38.2915 71.1716 0
    endloop
  endfacet
  facet normal -0.595918 0.803046 0
    outer loop
      vertex -36.3334 128.989 0
      vertex -36.8064 128.638 14
      vertex -36.3334 128.989 14
    endloop
  endfacet
  facet normal -0.595918 0.803046 0
    outer loop
      vertex -36.8064 128.638 14
      vertex -36.3334 128.989 0
      vertex -36.8064 128.638 0
    endloop
  endfacet
  facet normal 0 1 -0
    outer loop
      vertex 33 130 0
      vertex -33 130 14
      vertex 33 130 14
    endloop
  endfacet
  facet normal 0 1 0
    outer loop
      vertex -33 130 14
      vertex 33 130 0
      vertex -33 130 0
    endloop
  endfacet
  facet normal 0.146081 0.989273 -0
    outer loop
      vertex 34.1705 129.885 0
      vertex 33.5881 129.971 14
      vertex 34.1705 129.885 14
    endloop
  endfacet
  facet normal 0.146081 0.989273 0
    outer loop
      vertex 33.5881 129.971 14
      vertex 34.1705 129.885 0
      vertex 33.5881 129.971 0
    endloop
  endfacet
  facet normal -1 0 0
    outer loop
      vertex -39 74 0
      vertex -39 124 14
      vertex -39 124 0
    endloop
  endfacet
  facet normal -1 -0 0
    outer loop
      vertex -39 124 14
      vertex -39 74 0
      vertex -39 74 14
    endloop
  endfacet
  facet normal 0.998794 0.0490904 0
    outer loop
      vertex 39 124 14
      vertex 38.9711 124.588 0
      vertex 38.9711 124.588 14
    endloop
  endfacet
  facet normal 0.998794 0.0490904 0
    outer loop
      vertex 38.9711 124.588 0
      vertex 39 124 14
      vertex 39 124 0
    endloop
  endfacet
  facet normal -0.970023 -0.243015 0
    outer loop
      vertex -38.7416 72.2583 0
      vertex -38.8847 72.8295 14
      vertex -38.8847 72.8295 0
    endloop
  endfacet
  facet normal -0.970023 -0.243015 0
    outer loop
      vertex -38.8847 72.8295 14
      vertex -38.7416 72.2583 0
      vertex -38.7416 72.2583 14
    endloop
  endfacet
  facet normal 0.857718 0.514121 0
    outer loop
      vertex 38.2915 126.828 14
      vertex 37.9888 127.333 0
      vertex 37.9888 127.333 14
    endloop
  endfacet
  facet normal 0.857718 0.514121 0
    outer loop
      vertex 37.9888 127.333 0
      vertex 38.2915 126.828 14
      vertex 38.2915 126.828 0
    endloop
  endfacet
  facet normal -0.989196 0.146598 0
    outer loop
      vertex -38.9711 124.588 0
      vertex -38.8847 125.171 14
      vertex -38.8847 125.171 0
    endloop
  endfacet
  facet normal -0.989196 0.146598 0
    outer loop
      vertex -38.8847 125.171 14
      vertex -38.9711 124.588 0
      vertex -38.9711 124.588 14
    endloop
  endfacet
  facet normal 0.243015 -0.970023 0
    outer loop
      vertex 34.1705 68.1153 0
      vertex 34.7417 68.2584 14
      vertex 34.1705 68.1153 14
    endloop
  endfacet
  facet normal 0.243015 -0.970023 0
    outer loop
      vertex 34.7417 68.2584 14
      vertex 34.1705 68.1153 0
      vertex 34.7417 68.2584 0
    endloop
  endfacet
  facet normal 0.242855 0.970063 -0
    outer loop
      vertex 34.7417 129.742 0
      vertex 34.1705 129.885 14
      vertex 34.7417 129.742 14
    endloop
  endfacet
  facet normal 0.242855 0.970063 0
    outer loop
      vertex 34.1705 129.885 14
      vertex 34.7417 129.742 0
      vertex 34.1705 129.885 0
    endloop
  endfacet
  facet normal -0.0490821 -0.998795 0
    outer loop
      vertex -33.5881 68.0289 0
      vertex -33 68 14
      vertex -33.5881 68.0289 14
    endloop
  endfacet
  facet normal -0.0490821 -0.998795 -0
    outer loop
      vertex -33 68 14
      vertex -33.5881 68.0289 0
      vertex -33 68 0
    endloop
  endfacet
  facet normal 0.941503 0.337004 0
    outer loop
      vertex 38.7416 125.742 14
      vertex 38.5433 126.296 0
      vertex 38.5433 126.296 14
    endloop
  endfacet
  facet normal 0.941503 0.337004 0
    outer loop
      vertex 38.5433 126.296 0
      vertex 38.7416 125.742 14
      vertex 38.7416 125.742 0
    endloop
  endfacet
  facet normal -0.903869 0.427809 0
    outer loop
      vertex -38.5433 126.296 0
      vertex -38.2915 126.828 14
      vertex -38.2915 126.828 0
    endloop
  endfacet
  facet normal -0.903869 0.427809 0
    outer loop
      vertex -38.2915 126.828 14
      vertex -38.5433 126.296 0
      vertex -38.5433 126.296 14
    endloop
  endfacet
  facet normal 0.741435 0.671024 0
    outer loop
      vertex 37.6381 127.806 14
      vertex 37.2426 128.243 0
      vertex 37.2426 128.243 14
    endloop
  endfacet
  facet normal 0.741435 0.671024 0
    outer loop
      vertex 37.2426 128.243 0
      vertex 37.6381 127.806 14
      vertex 37.6381 127.806 0
    endloop
  endfacet
  facet normal -0.595589 -0.803289 0
    outer loop
      vertex -36.8064 69.3619 0
      vertex -36.3334 69.0112 14
      vertex -36.8064 69.3619 14
    endloop
  endfacet
  facet normal -0.595589 -0.803289 -0
    outer loop
      vertex -36.3334 69.0112 14
      vertex -36.8064 69.3619 0
      vertex -36.3334 69.0112 0
    endloop
  endfacet
  facet normal -0.803289 -0.595589 0
    outer loop
      vertex -37.6381 70.1936 0
      vertex -37.9888 70.6666 14
      vertex -37.9888 70.6666 0
    endloop
  endfacet
  facet normal -0.803289 -0.595589 0
    outer loop
      vertex -37.9888 70.6666 14
      vertex -37.6381 70.1936 0
      vertex -37.6381 70.1936 14
    endloop
  endfacet
  facet normal -0.514121 -0.857718 0
    outer loop
      vertex -36.3334 69.0112 0
      vertex -35.8284 68.7085 14
      vertex -36.3334 69.0112 14
    endloop
  endfacet
  facet normal -0.514121 -0.857718 -0
    outer loop
      vertex -35.8284 68.7085 14
      vertex -36.3334 69.0112 0
      vertex -35.8284 68.7085 0
    endloop
  endfacet
  facet normal 0.94158 -0.336788 0
    outer loop
      vertex 38.5433 71.7039 14
      vertex 38.7416 72.2583 0
      vertex 38.7416 72.2583 14
    endloop
  endfacet
  facet normal 0.94158 -0.336788 0
    outer loop
      vertex 38.7416 72.2583 0
      vertex 38.5433 71.7039 14
      vertex 38.5433 71.7039 0
    endloop
  endfacet
  facet normal -0.803289 0.595589 0
    outer loop
      vertex -37.9888 127.333 0
      vertex -37.6381 127.806 14
      vertex -37.6381 127.806 0
    endloop
  endfacet
  facet normal -0.803289 0.595589 0
    outer loop
      vertex -37.6381 127.806 14
      vertex -37.9888 127.333 0
      vertex -37.9888 127.333 14
    endloop
  endfacet
  facet normal -0.998795 -0.0490821 0
    outer loop
      vertex -38.9711 73.4119 0
      vertex -39 74 14
      vertex -39 74 0
    endloop
  endfacet
  facet normal -0.998795 -0.0490821 0
    outer loop
      vertex -39 74 14
      vertex -38.9711 73.4119 0
      vertex -38.9711 73.4119 14
    endloop
  endfacet
  facet normal -0.242855 0.970063 0
    outer loop
      vertex -34.1705 129.885 0
      vertex -34.7417 129.742 14
      vertex -34.1705 129.885 14
    endloop
  endfacet
  facet normal -0.242855 0.970063 0
    outer loop
      vertex -34.7417 129.742 14
      vertex -34.1705 129.885 0
      vertex -34.7417 129.742 0
    endloop
  endfacet
  facet normal -0.337842 0.941203 0
    outer loop
      vertex -34.7417 129.742 0
      vertex -35.2961 129.543 14
      vertex -34.7417 129.742 14
    endloop
  endfacet
  facet normal -0.337842 0.941203 0
    outer loop
      vertex -35.2961 129.543 14
      vertex -34.7417 129.742 0
      vertex -35.2961 129.543 0
    endloop
  endfacet
  facet normal -0.146081 0.989273 0
    outer loop
      vertex -33.5881 129.971 0
      vertex -34.1705 129.885 14
      vertex -33.5881 129.971 14
    endloop
  endfacet
  facet normal -0.146081 0.989273 0
    outer loop
      vertex -34.1705 129.885 14
      vertex -33.5881 129.971 0
      vertex -34.1705 129.885 0
    endloop
  endfacet
  facet normal 1 -0 0
    outer loop
      vertex 39 74 14
      vertex 39 124 0
      vertex 39 124 14
    endloop
  endfacet
  facet normal 1 0 0
    outer loop
      vertex 39 124 0
      vertex 39 74 14
      vertex 39 74 0
    endloop
  endfacet
  facet normal -0.857718 0.514121 0
    outer loop
      vertex -38.2915 126.828 0
      vertex -37.9888 127.333 14
      vertex -37.9888 127.333 0
    endloop
  endfacet
  facet normal -0.857718 0.514121 0
    outer loop
      vertex -37.9888 127.333 14
      vertex -38.2915 126.828 0
      vertex -38.2915 126.828 14
    endloop
  endfacet
  facet normal 0.595918 0.803046 -0
    outer loop
      vertex 36.8064 128.638 0
      vertex 36.3334 128.989 14
      vertex 36.8064 128.638 14
    endloop
  endfacet
  facet normal 0.595918 0.803046 0
    outer loop
      vertex 36.3334 128.989 14
      vertex 36.8064 128.638 0
      vertex 36.3334 128.989 0
    endloop
  endfacet
  facet normal -0.427612 -0.903962 0
    outer loop
      vertex -35.8284 68.7085 0
      vertex -35.2961 68.4567 14
      vertex -35.8284 68.7085 14
    endloop
  endfacet
  facet normal -0.427612 -0.903962 -0
    outer loop
      vertex -35.2961 68.4567 14
      vertex -35.8284 68.7085 0
      vertex -35.2961 68.4567 0
    endloop
  endfacet
  facet normal 0.903869 0.427809 0
    outer loop
      vertex 38.5433 126.296 14
      vertex 38.2915 126.828 0
      vertex 38.2915 126.828 14
    endloop
  endfacet
  facet normal 0.903869 0.427809 0
    outer loop
      vertex 38.2915 126.828 0
      vertex 38.5433 126.296 14
      vertex 38.5433 126.296 0
    endloop
  endfacet
  facet normal 0.0490821 -0.998795 0
    outer loop
      vertex 33 68 0
      vertex 33.5881 68.0289 14
      vertex 33 68 14
    endloop
  endfacet
  facet normal 0.0490821 -0.998795 0
    outer loop
      vertex 33.5881 68.0289 14
      vertex 33 68 0
      vertex 33.5881 68.0289 0
    endloop
  endfacet
  facet normal 0.671234 0.741246 -0
    outer loop
      vertex 37.2426 128.243 0
      vertex 36.8064 128.638 14
      vertex 37.2426 128.243 14
    endloop
  endfacet
  facet normal 0.671234 0.741246 0
    outer loop
      vertex 36.8064 128.638 14
      vertex 37.2426 128.243 0
      vertex 36.8064 128.638 0
    endloop
  endfacet
  facet normal -0.94158 -0.336788 0
    outer loop
      vertex -38.5433 71.7039 0
      vertex -38.7416 72.2583 14
      vertex -38.7416 72.2583 0
    endloop
  endfacet
  facet normal -0.94158 -0.336788 0
    outer loop
      vertex -38.7416 72.2583 14
      vertex -38.5433 71.7039 0
      vertex -38.5433 71.7039 14
    endloop
  endfacet
  facet normal 0.0492515 0.998786 -0
    outer loop
      vertex 33.5881 129.971 0
      vertex 33 130 14
      vertex 33.5881 129.971 14
    endloop
  endfacet
  facet normal 0.0492515 0.998786 0
    outer loop
      vertex 33 130 14
      vertex 33.5881 129.971 0
      vertex 33 130 0
    endloop
  endfacet
  facet normal -0.0492515 0.998786 0
    outer loop
      vertex -33 130 0
      vertex -33.5881 129.971 14
      vertex -33 130 14
    endloop
  endfacet
  facet normal -0.0492515 0.998786 0
    outer loop
      vertex -33.5881 129.971 14
      vertex -33 130 0
      vertex -33.5881 129.971 0
    endloop
  endfacet
  facet normal -0.426501 0.904487 0
    outer loop
      vertex -35.2961 129.543 0
      vertex -35.8284 129.292 14
      vertex -35.2961 129.543 14
    endloop
  endfacet
  facet normal -0.426501 0.904487 0
    outer loop
      vertex -35.8284 129.292 14
      vertex -35.2961 129.543 0
      vertex -35.8284 129.292 0
    endloop
  endfacet
  facet normal -0.6717 -0.740823 0
    outer loop
      vertex -37.2426 69.7574 0
      vertex -36.8064 69.3619 14
      vertex -37.2426 69.7574 14
    endloop
  endfacet
  facet normal -0.6717 -0.740823 -0
    outer loop
      vertex -36.8064 69.3619 14
      vertex -37.2426 69.7574 0
      vertex -36.8064 69.3619 0
    endloop
  endfacet
  facet normal -0.741435 0.671024 0
    outer loop
      vertex -37.6381 127.806 0
      vertex -37.2426 128.243 14
      vertex -37.2426 128.243 0
    endloop
  endfacet
  facet normal -0.741435 0.671024 0
    outer loop
      vertex -37.2426 128.243 14
      vertex -37.6381 127.806 0
      vertex -37.6381 127.806 14
    endloop
  endfacet
  facet normal -0.740823 -0.6717 0
    outer loop
      vertex -37.2426 69.7574 0
      vertex -37.6381 70.1936 14
      vertex -37.6381 70.1936 0
    endloop
  endfacet
  facet normal -0.740823 -0.6717 0
    outer loop
      vertex -37.6381 70.1936 14
      vertex -37.2426 69.7574 0
      vertex -37.2426 69.7574 14
    endloop
  endfacet
  facet normal -0.671234 0.741246 0
    outer loop
      vertex -36.8064 128.638 0
      vertex -37.2426 128.243 14
      vertex -36.8064 128.638 14
    endloop
  endfacet
  facet normal -0.671234 0.741246 0
    outer loop
      vertex -37.2426 128.243 14
      vertex -36.8064 128.638 0
      vertex -37.2426 128.243 0
    endloop
  endfacet
  facet normal 0.989174 -0.146746 0
    outer loop
      vertex 38.8847 72.8295 14
      vertex 38.9711 73.4119 0
      vertex 38.9711 73.4119 14
    endloop
  endfacet
  facet normal 0.989174 -0.146746 0
    outer loop
      vertex 38.9711 73.4119 0
      vertex 38.8847 72.8295 14
      vertex 38.8847 72.8295 0
    endloop
  endfacet
  facet normal -0.336788 -0.94158 0
    outer loop
      vertex -35.2961 68.4567 0
      vertex -34.7417 68.2584 14
      vertex -35.2961 68.4567 14
    endloop
  endfacet
  facet normal -0.336788 -0.94158 -0
    outer loop
      vertex -34.7417 68.2584 14
      vertex -35.2961 68.4567 0
      vertex -34.7417 68.2584 0
    endloop
  endfacet
  facet normal -0.989174 -0.146746 0
    outer loop
      vertex -38.8847 72.8295 0
      vertex -38.9711 73.4119 14
      vertex -38.9711 73.4119 0
    endloop
  endfacet
  facet normal -0.989174 -0.146746 0
    outer loop
      vertex -38.9711 73.4119 14
      vertex -38.8847 72.8295 0
      vertex -38.8847 72.8295 14
    endloop
  endfacet
  facet normal 0.803289 0.595589 0
    outer loop
      vertex 37.9888 127.333 14
      vertex 37.6381 127.806 0
      vertex 37.6381 127.806 14
    endloop
  endfacet
  facet normal 0.803289 0.595589 0
    outer loop
      vertex 37.6381 127.806 0
      vertex 37.9888 127.333 14
      vertex 37.9888 127.333 0
    endloop
  endfacet
  facet normal 0.6717 -0.740823 0
    outer loop
      vertex 36.8064 69.3619 0
      vertex 37.2426 69.7574 14
      vertex 36.8064 69.3619 14
    endloop
  endfacet
  facet normal 0.6717 -0.740823 0
    outer loop
      vertex 37.2426 69.7574 14
      vertex 36.8064 69.3619 0
      vertex 37.2426 69.7574 0
    endloop
  endfacet
  facet normal -0.998794 0.0490904 0
    outer loop
      vertex -39 124 0
      vertex -38.9711 124.588 14
      vertex -38.9711 124.588 0
    endloop
  endfacet
  facet normal -0.998794 0.0490904 0
    outer loop
      vertex -38.9711 124.588 14
      vertex -39 124 0
      vertex -39 124 14
    endloop
  endfacet
  facet normal -0.514496 0.857493 0
    outer loop
      vertex -35.8284 129.292 0
      vertex -36.3334 128.989 14
      vertex -35.8284 129.292 14
    endloop
  endfacet
  facet normal -0.514496 0.857493 0
    outer loop
      vertex -36.3334 128.989 14
      vertex -35.8284 129.292 0
      vertex -36.3334 128.989 0
    endloop
  endfacet
  facet normal 0.970023 -0.243015 0
    outer loop
      vertex 38.7416 72.2583 14
      vertex 38.8847 72.8295 0
      vertex 38.8847 72.8295 14
    endloop
  endfacet
  facet normal 0.970023 -0.243015 0
    outer loop
      vertex 38.8847 72.8295 0
      vertex 38.7416 72.2583 14
      vertex 38.7416 72.2583 0
    endloop
  endfacet
  facet normal 0.998795 -0.0490821 0
    outer loop
      vertex 38.9711 73.4119 14
      vertex 39 74 0
      vertex 39 74 14
    endloop
  endfacet
  facet normal 0.998795 -0.0490821 0
    outer loop
      vertex 39 74 0
      vertex 38.9711 73.4119 14
      vertex 38.9711 73.4119 0
    endloop
  endfacet
  facet normal 0.514121 -0.857718 0
    outer loop
      vertex 35.8284 68.7085 0
      vertex 36.3334 69.0112 14
      vertex 35.8284 68.7085 14
    endloop
  endfacet
  facet normal 0.514121 -0.857718 0
    outer loop
      vertex 36.3334 69.0112 14
      vertex 35.8284 68.7085 0
      vertex 36.3334 69.0112 0
    endloop
  endfacet
  facet normal -0.970002 0.243095 0
    outer loop
      vertex -38.8847 125.171 0
      vertex -38.7416 125.742 14
      vertex -38.7416 125.742 0
    endloop
  endfacet
  facet normal -0.970002 0.243095 0
    outer loop
      vertex -38.7416 125.742 14
      vertex -38.8847 125.171 0
      vertex -38.8847 125.171 14
    endloop
  endfacet
  facet normal 0.514496 0.857493 -0
    outer loop
      vertex 36.3334 128.989 0
      vertex 35.8284 129.292 14
      vertex 36.3334 128.989 14
    endloop
  endfacet
  facet normal 0.514496 0.857493 0
    outer loop
      vertex 35.8284 129.292 14
      vertex 36.3334 128.989 0
      vertex 35.8284 129.292 0
    endloop
  endfacet
  facet normal -0.243015 -0.970023 0
    outer loop
      vertex -34.7417 68.2584 0
      vertex -34.1705 68.1153 14
      vertex -34.7417 68.2584 14
    endloop
  endfacet
  facet normal -0.243015 -0.970023 -0
    outer loop
      vertex -34.1705 68.1153 14
      vertex -34.7417 68.2584 0
      vertex -34.1705 68.1153 0
    endloop
  endfacet
  facet normal 0.427612 -0.903962 0
    outer loop
      vertex 35.2961 68.4567 0
      vertex 35.8284 68.7085 14
      vertex 35.2961 68.4567 14
    endloop
  endfacet
  facet normal 0.427612 -0.903962 0
    outer loop
      vertex 35.8284 68.7085 14
      vertex 35.2961 68.4567 0
      vertex 35.8284 68.7085 0
    endloop
  endfacet
  facet normal -0.857718 -0.514121 0
    outer loop
      vertex -37.9888 70.6666 0
      vertex -38.2915 71.1716 14
      vertex -38.2915 71.1716 0
    endloop
  endfacet
  facet normal -0.857718 -0.514121 0
    outer loop
      vertex -38.2915 71.1716 14
      vertex -37.9888 70.6666 0
      vertex -37.9888 70.6666 14
    endloop
  endfacet
  facet normal 0.337842 0.941203 -0
    outer loop
      vertex 35.2961 129.543 0
      vertex 34.7417 129.742 14
      vertex 35.2961 129.543 14
    endloop
  endfacet
  facet normal 0.337842 0.941203 0
    outer loop
      vertex 34.7417 129.742 14
      vertex 35.2961 129.543 0
      vertex 34.7417 129.742 0
    endloop
  endfacet
  facet normal 0.426501 0.904487 -0
    outer loop
      vertex 35.8284 129.292 0
      vertex 35.2961 129.543 14
      vertex 35.8284 129.292 14
    endloop
  endfacet
  facet normal 0.426501 0.904487 0
    outer loop
      vertex 35.2961 129.543 14
      vertex 35.8284 129.292 0
      vertex 35.2961 129.543 0
    endloop
  endfacet
  facet normal 0 0 1
    outer loop
      vertex 34.4915 123.028 14
      vertex 39 124 14
      vertex 38.9711 124.588 14
    endloop
  endfacet
  facet normal 0 0 1
    outer loop
      vertex 39 124 14
      vertex 35.2 120.2 14
      vertex 39 74 14
    endloop
  endfacet
  facet normal 0 0 1
    outer loop
      vertex 34.4915 123.028 14
      vertex 38.9711 124.588 14
      vertex 38.8847 125.171 14
    endloop
  endfacet
  facet normal -0 0 1
    outer loop
      vertex 35.2 77.8 14
      vertex 39 74 14
      vertex 35.2 120.2 14
    endloop
  endfacet
  facet normal 0 0 1
    outer loop
      vertex 34.1888 123.533 14
      vertex 38.8847 125.171 14
      vertex 38.7416 125.742 14
    endloop
  endfacet
  facet normal -0 0 1
    outer loop
      vertex 35.1711 77.2119 14
      vertex 39 74 14
      vertex 35.2 77.8 14
    endloop
  endfacet
  facet normal 0 0 1
    outer loop
      vertex 34.1888 123.533 14
      vertex 38.7416 125.742 14
      vertex 38.5433 126.296 14
    endloop
  endfacet
  facet normal -0 0 1
    outer loop
      vertex 35.0847 76.6295 14
      vertex 39 74 14
      vertex 35.1711 77.2119 14
    endloop
  endfacet
  facet normal 0 0 1
    outer loop
      vertex 33.8381 124.006 14
      vertex 38.5433 126.296 14
      vertex 38.2915 126.828 14
    endloop
  endfacet
  facet normal -0 0 1
    outer loop
      vertex 34.9416 76.0583 14
      vertex 39 74 14
      vertex 35.0847 76.6295 14
    endloop
  endfacet
  facet normal 0 0 1
    outer loop
      vertex 33.8381 124.006 14
      vertex 38.2915 126.828 14
      vertex 37.9888 127.333 14
    endloop
  endfacet
  facet normal -0 0 1
    outer loop
      vertex 34.7433 75.5039 14
      vertex 39 74 14
      vertex 34.9416 76.0583 14
    endloop
  endfacet
  facet normal 0 0 1
    outer loop
      vertex 33.8381 124.006 14
      vertex 37.9888 127.333 14
      vertex 37.6381 127.806 14
    endloop
  endfacet
  facet normal -0 0 1
    outer loop
      vertex 34.4915 74.9716 14
      vertex 39 74 14
      vertex 34.7433 75.5039 14
    endloop
  endfacet
  facet normal 0 0 1
    outer loop
      vertex 33.4426 124.443 14
      vertex 37.6381 127.806 14
      vertex 37.2426 128.243 14
    endloop
  endfacet
  facet normal 0 0 1
    outer loop
      vertex 39 74 14
      vertex 34.4915 74.9716 14
      vertex 38.9711 73.4119 14
    endloop
  endfacet
  facet normal 0 0 1
    outer loop
      vertex 33.4426 124.443 14
      vertex 37.2426 128.243 14
      vertex 36.8064 128.638 14
    endloop
  endfacet
  facet normal 0 0 1
    outer loop
      vertex 38.9711 73.4119 14
      vertex 34.4915 74.9716 14
      vertex 38.8847 72.8295 14
    endloop
  endfacet
  facet normal 0 0 1
    outer loop
      vertex 33.0064 124.838 14
      vertex 36.8064 128.638 14
      vertex 36.3334 128.989 14
    endloop
  endfacet
  facet normal -0 0 1
    outer loop
      vertex 34.1888 74.4666 14
      vertex 38.8847 72.8295 14
      vertex 34.4915 74.9716 14
    endloop
  endfacet
  facet normal 0 0 1
    outer loop
      vertex 33.0064 124.838 14
      vertex 36.3334 128.989 14
      vertex 35.8284 129.292 14
    endloop
  endfacet
  facet normal 0 0 1
    outer loop
      vertex 38.8847 72.8295 14
      vertex 34.1888 74.4666 14
      vertex 38.7416 72.2583 14
    endloop
  endfacet
  facet normal 0 0 1
    outer loop
      vertex 33.0064 124.838 14
      vertex 35.8284 129.292 14
      vertex 35.2961 129.543 14
    endloop
  endfacet
  facet normal 0 0 1
    outer loop
      vertex 38.7416 72.2583 14
      vertex 34.1888 74.4666 14
      vertex 38.5433 71.7039 14
    endloop
  endfacet
  facet normal -0 0 1
    outer loop
      vertex 33.8381 73.9936 14
      vertex 38.5433 71.7039 14
      vertex 34.1888 74.4666 14
    endloop
  endfacet
  facet normal 0 0 1
    outer loop
      vertex 39 124 14
      vertex 35.1711 120.788 14
      vertex 35.2 120.2 14
    endloop
  endfacet
  facet normal 0 0 1
    outer loop
      vertex 39 124 14
      vertex 35.0847 121.371 14
      vertex 35.1711 120.788 14
    endloop
  endfacet
  facet normal 0 0 1
    outer loop
      vertex 39 124 14
      vertex 34.9416 121.942 14
      vertex 35.0847 121.371 14
    endloop
  endfacet
  facet normal 0 0 1
    outer loop
      vertex 39 124 14
      vertex 34.7433 122.496 14
      vertex 34.9416 121.942 14
    endloop
  endfacet
  facet normal 0 0 1
    outer loop
      vertex 32.5334 125.189 14
      vertex 35.2961 129.543 14
      vertex 34.7417 129.742 14
    endloop
  endfacet
  facet normal 0 0 1
    outer loop
      vertex 39 124 14
      vertex 34.4915 123.028 14
      vertex 34.7433 122.496 14
    endloop
  endfacet
  facet normal 0 0 1
    outer loop
      vertex 38.8847 125.171 14
      vertex 34.1888 123.533 14
      vertex 34.4915 123.028 14
    endloop
  endfacet
  facet normal 0 0 1
    outer loop
      vertex 32.5334 125.189 14
      vertex 34.7417 129.742 14
      vertex 34.1705 129.885 14
    endloop
  endfacet
  facet normal 0 0 1
    outer loop
      vertex 38.5433 126.296 14
      vertex 33.8381 124.006 14
      vertex 34.1888 123.533 14
    endloop
  endfacet
  facet normal 0 0 1
    outer loop
      vertex 32.0284 125.492 14
      vertex 34.1705 129.885 14
      vertex 33.5881 129.971 14
    endloop
  endfacet
  facet normal 0 0 1
    outer loop
      vertex 37.6381 127.806 14
      vertex 33.4426 124.443 14
      vertex 33.8381 124.006 14
    endloop
  endfacet
  facet normal 0 0 1
    outer loop
      vertex 36.8064 128.638 14
      vertex 33.0064 124.838 14
      vertex 33.4426 124.443 14
    endloop
  endfacet
  facet normal 0 0 1
    outer loop
      vertex 32.0284 125.492 14
      vertex 33.5881 129.971 14
      vertex 33 130 14
    endloop
  endfacet
  facet normal 0 0 1
    outer loop
      vertex 35.2961 129.543 14
      vertex 32.5334 125.189 14
      vertex 33.0064 124.838 14
    endloop
  endfacet
  facet normal 0 0 1
    outer loop
      vertex 34.1705 129.885 14
      vertex 32.0284 125.492 14
      vertex 32.5334 125.189 14
    endloop
  endfacet
  facet normal 0 0 1
    outer loop
      vertex 33 130 14
      vertex 31.4961 125.743 14
      vertex 32.0284 125.492 14
    endloop
  endfacet
  facet normal 0 0 1
    outer loop
      vertex 33 130 14
      vertex 30.9417 125.942 14
      vertex 31.4961 125.743 14
    endloop
  endfacet
  facet normal 0 0 1
    outer loop
      vertex 33 130 14
      vertex 30.3705 126.085 14
      vertex 30.9417 125.942 14
    endloop
  endfacet
  facet normal 0 0 1
    outer loop
      vertex 33 130 14
      vertex 29.7881 126.171 14
      vertex 30.3705 126.085 14
    endloop
  endfacet
  facet normal 0 0 1
    outer loop
      vertex 33 130 14
      vertex 29.2 126.2 14
      vertex 29.7881 126.171 14
    endloop
  endfacet
  facet normal 0 0 1
    outer loop
      vertex 33 130 14
      vertex -29.2 126.2 14
      vertex 29.2 126.2 14
    endloop
  endfacet
  facet normal -0 0 1
    outer loop
      vertex -33 130 14
      vertex -29.2 126.2 14
      vertex 33 130 14
    endloop
  endfacet
  facet normal 0 0 1
    outer loop
      vertex -29.2 126.2 14
      vertex -33 130 14
      vertex -29.7881 126.171 14
    endloop
  endfacet
  facet normal 0 0 1
    outer loop
      vertex -33 130 14
      vertex -30.3705 126.085 14
      vertex -29.7881 126.171 14
    endloop
  endfacet
  facet normal 0 0 1
    outer loop
      vertex -33 130 14
      vertex -30.9417 125.942 14
      vertex -30.3705 126.085 14
    endloop
  endfacet
  facet normal 0 0 1
    outer loop
      vertex -33 130 14
      vertex -31.4961 125.743 14
      vertex -30.9417 125.942 14
    endloop
  endfacet
  facet normal 0 0 1
    outer loop
      vertex -33 130 14
      vertex -32.0284 125.492 14
      vertex -31.4961 125.743 14
    endloop
  endfacet
  facet normal -0 0 1
    outer loop
      vertex -33.5881 129.971 14
      vertex -32.0284 125.492 14
      vertex -33 130 14
    endloop
  endfacet
  facet normal -0 0 1
    outer loop
      vertex -34.1705 129.885 14
      vertex -32.0284 125.492 14
      vertex -33.5881 129.971 14
    endloop
  endfacet
  facet normal 0 0 1
    outer loop
      vertex -32.0284 125.492 14
      vertex -34.1705 129.885 14
      vertex -32.5334 125.189 14
    endloop
  endfacet
  facet normal -0 0 1
    outer loop
      vertex -34.7417 129.742 14
      vertex -32.5334 125.189 14
      vertex -34.1705 129.885 14
    endloop
  endfacet
  facet normal -0 0 1
    outer loop
      vertex -35.2961 129.543 14
      vertex -32.5334 125.189 14
      vertex -34.7417 129.742 14
    endloop
  endfacet
  facet normal 0 0 1
    outer loop
      vertex -32.5334 125.189 14
      vertex -35.2961 129.543 14
      vertex -33.0064 124.838 14
    endloop
  endfacet
  facet normal -0 0 1
    outer loop
      vertex -35.8284 129.292 14
      vertex -33.0064 124.838 14
      vertex -35.2961 129.543 14
    endloop
  endfacet
  facet normal -0 0 1
    outer loop
      vertex -36.3334 128.989 14
      vertex -33.0064 124.838 14
      vertex -35.8284 129.292 14
    endloop
  endfacet
  facet normal -0 0 1
    outer loop
      vertex -36.8064 128.638 14
      vertex -33.0064 124.838 14
      vertex -36.3334 128.989 14
    endloop
  endfacet
  facet normal 0 0 1
    outer loop
      vertex -33.0064 124.838 14
      vertex -36.8064 128.638 14
      vertex -33.4426 124.443 14
    endloop
  endfacet
  facet normal -0 0 1
    outer loop
      vertex -37.2426 128.243 14
      vertex -33.4426 124.443 14
      vertex -36.8064 128.638 14
    endloop
  endfacet
  facet normal -0 0 1
    outer loop
      vertex -37.6381 127.806 14
      vertex -33.4426 124.443 14
      vertex -37.2426 128.243 14
    endloop
  endfacet
  facet normal 0 0 1
    outer loop
      vertex -33.4426 124.443 14
      vertex -37.6381 127.806 14
      vertex -33.8381 124.006 14
    endloop
  endfacet
  facet normal -0 0 1
    outer loop
      vertex -37.9888 127.333 14
      vertex -33.8381 124.006 14
      vertex -37.6381 127.806 14
    endloop
  endfacet
  facet normal -0 0 1
    outer loop
      vertex -38.5433 126.296 14
      vertex -33.8381 124.006 14
      vertex -38.2915 126.828 14
    endloop
  endfacet
  facet normal -0 0 1
    outer loop
      vertex -38.2915 126.828 14
      vertex -33.8381 124.006 14
      vertex -37.9888 127.333 14
    endloop
  endfacet
  facet normal 0 0 1
    outer loop
      vertex 38.5433 71.7039 14
      vertex 33.8381 73.9936 14
      vertex 38.2915 71.1716 14
    endloop
  endfacet
  facet normal 0 0 1
    outer loop
      vertex 38.2915 71.1716 14
      vertex 33.8381 73.9936 14
      vertex 37.9888 70.6666 14
    endloop
  endfacet
  facet normal 0 0 1
    outer loop
      vertex 37.9888 70.6666 14
      vertex 33.8381 73.9936 14
      vertex 37.6381 70.1936 14
    endloop
  endfacet
  facet normal -0 0 1
    outer loop
      vertex 33.4426 73.5574 14
      vertex 37.6381 70.1936 14
      vertex 33.8381 73.9936 14
    endloop
  endfacet
  facet normal 0 0 1
    outer loop
      vertex 37.6381 70.1936 14
      vertex 33.4426 73.5574 14
      vertex 37.2426 69.7574 14
    endloop
  endfacet
  facet normal 0 0 1
    outer loop
      vertex 37.2426 69.7574 14
      vertex 33.4426 73.5574 14
      vertex 36.8064 69.3619 14
    endloop
  endfacet
  facet normal -0 0 1
    outer loop
      vertex 33.0064 73.1619 14
      vertex 36.8064 69.3619 14
      vertex 33.4426 73.5574 14
    endloop
  endfacet
  facet normal 0 0 1
    outer loop
      vertex 36.8064 69.3619 14
      vertex 33.0064 73.1619 14
      vertex 36.3334 69.0112 14
    endloop
  endfacet
  facet normal 0 0 1
    outer loop
      vertex 36.3334 69.0112 14
      vertex 33.0064 73.1619 14
      vertex 35.8284 68.7085 14
    endloop
  endfacet
  facet normal 0 0 1
    outer loop
      vertex 35.8284 68.7085 14
      vertex 33.0064 73.1619 14
      vertex 35.2961 68.4567 14
    endloop
  endfacet
  facet normal -0 0 1
    outer loop
      vertex 32.5334 72.8112 14
      vertex 35.2961 68.4567 14
      vertex 33.0064 73.1619 14
    endloop
  endfacet
  facet normal 0 0 1
    outer loop
      vertex 35.2961 68.4567 14
      vertex 32.5334 72.8112 14
      vertex 34.7417 68.2584 14
    endloop
  endfacet
  facet normal 0 0 1
    outer loop
      vertex 34.7417 68.2584 14
      vertex 32.5334 72.8112 14
      vertex 34.1705 68.1153 14
    endloop
  endfacet
  facet normal -0 0 1
    outer loop
      vertex 32.0284 72.5085 14
      vertex 34.1705 68.1153 14
      vertex 32.5334 72.8112 14
    endloop
  endfacet
  facet normal 0 0 1
    outer loop
      vertex 34.1705 68.1153 14
      vertex 32.0284 72.5085 14
      vertex 33.5881 68.0289 14
    endloop
  endfacet
  facet normal 0 0 1
    outer loop
      vertex 33.5881 68.0289 14
      vertex 32.0284 72.5085 14
      vertex 33 68 14
    endloop
  endfacet
  facet normal -0 0 1
    outer loop
      vertex 31.4961 72.2567 14
      vertex 33 68 14
      vertex 32.0284 72.5085 14
    endloop
  endfacet
  facet normal -0 0 1
    outer loop
      vertex 30.9417 72.0584 14
      vertex 33 68 14
      vertex 31.4961 72.2567 14
    endloop
  endfacet
  facet normal -0 0 1
    outer loop
      vertex 30.3705 71.9153 14
      vertex 33 68 14
      vertex 30.9417 72.0584 14
    endloop
  endfacet
  facet normal -0 0 1
    outer loop
      vertex 29.7881 71.8289 14
      vertex 33 68 14
      vertex 30.3705 71.9153 14
    endloop
  endfacet
  facet normal -0 0 1
    outer loop
      vertex 29.2 71.8 14
      vertex 33 68 14
      vertex 29.7881 71.8289 14
    endloop
  endfacet
  facet normal 0 0 1
    outer loop
      vertex 19.4 68 14
      vertex 29.2 71.8 14
      vertex 19.4 71.8 14
    endloop
  endfacet
  facet normal 0 0 1
    outer loop
      vertex 29.2 71.8 14
      vertex 19.4 68 14
      vertex 33 68 14
    endloop
  endfacet
  facet normal -0 0 1
    outer loop
      vertex -29.2 71.8 14
      vertex -19.4 68 14
      vertex -19.4 71.8 14
    endloop
  endfacet
  facet normal 0 0 1
    outer loop
      vertex -33 68 14
      vertex -29.2 71.8 14
      vertex -29.7881 71.8289 14
    endloop
  endfacet
  facet normal 0 0 1
    outer loop
      vertex -33 68 14
      vertex -29.7881 71.8289 14
      vertex -30.3705 71.9153 14
    endloop
  endfacet
  facet normal 0 0 1
    outer loop
      vertex -33 68 14
      vertex -30.3705 71.9153 14
      vertex -30.9417 72.0584 14
    endloop
  endfacet
  facet normal 0 0 1
    outer loop
      vertex -29.2 71.8 14
      vertex -33 68 14
      vertex -19.4 68 14
    endloop
  endfacet
  facet normal 0 0 1
    outer loop
      vertex -31.4961 72.2567 14
      vertex -33 68 14
      vertex -30.9417 72.0584 14
    endloop
  endfacet
  facet normal 0 0 1
    outer loop
      vertex -32.0284 72.5085 14
      vertex -33 68 14
      vertex -31.4961 72.2567 14
    endloop
  endfacet
  facet normal 0 0 1
    outer loop
      vertex -34.1705 68.1153 14
      vertex -32.0284 72.5085 14
      vertex -32.5334 72.8112 14
    endloop
  endfacet
  facet normal 0 0 1
    outer loop
      vertex -35.2961 68.4567 14
      vertex -32.5334 72.8112 14
      vertex -33.0064 73.1619 14
    endloop
  endfacet
  facet normal 0 0 1
    outer loop
      vertex -36.8064 69.3619 14
      vertex -33.0064 73.1619 14
      vertex -33.4426 73.5574 14
    endloop
  endfacet
  facet normal 0 0 1
    outer loop
      vertex -32.0284 72.5085 14
      vertex -33.5881 68.0289 14
      vertex -33 68 14
    endloop
  endfacet
  facet normal 0 0 1
    outer loop
      vertex -37.6381 70.1936 14
      vertex -33.4426 73.5574 14
      vertex -33.8381 73.9936 14
    endloop
  endfacet
  facet normal 0 0 1
    outer loop
      vertex -32.0284 72.5085 14
      vertex -34.1705 68.1153 14
      vertex -33.5881 68.0289 14
    endloop
  endfacet
  facet normal 0 0 1
    outer loop
      vertex -38.5433 71.7039 14
      vertex -33.8381 73.9936 14
      vertex -34.1888 74.4666 14
    endloop
  endfacet
  facet normal 0 0 1
    outer loop
      vertex -38.8847 72.8295 14
      vertex -34.1888 74.4666 14
      vertex -34.4915 74.9716 14
    endloop
  endfacet
  facet normal 0 0 1
    outer loop
      vertex -32.5334 72.8112 14
      vertex -34.7417 68.2584 14
      vertex -34.1705 68.1153 14
    endloop
  endfacet
  facet normal 0 0 1
    outer loop
      vertex -39 74 14
      vertex -34.4915 74.9716 14
      vertex -34.7433 75.5039 14
    endloop
  endfacet
  facet normal 0 0 1
    outer loop
      vertex -39 74 14
      vertex -34.7433 75.5039 14
      vertex -34.9416 76.0583 14
    endloop
  endfacet
  facet normal 0 0 1
    outer loop
      vertex -39 74 14
      vertex -34.9416 76.0583 14
      vertex -35.0847 76.6295 14
    endloop
  endfacet
  facet normal 0 0 1
    outer loop
      vertex -39 74 14
      vertex -35.0847 76.6295 14
      vertex -35.1711 77.2119 14
    endloop
  endfacet
  facet normal 0 0 1
    outer loop
      vertex -39 74 14
      vertex -35.1711 77.2119 14
      vertex -35.2 77.8 14
    endloop
  endfacet
  facet normal 0 0 1
    outer loop
      vertex -32.5334 72.8112 14
      vertex -35.2961 68.4567 14
      vertex -34.7417 68.2584 14
    endloop
  endfacet
  facet normal 0 0 1
    outer loop
      vertex -35.2 120.2 14
      vertex -39 124 14
      vertex -35.2 77.8 14
    endloop
  endfacet
  facet normal 0 0 1
    outer loop
      vertex -33.8381 124.006 14
      vertex -38.5433 126.296 14
      vertex -34.1888 123.533 14
    endloop
  endfacet
  facet normal 0 0 1
    outer loop
      vertex -39 74 14
      vertex -35.2 77.8 14
      vertex -39 124 14
    endloop
  endfacet
  facet normal -0 0 1
    outer loop
      vertex -38.7416 125.742 14
      vertex -34.1888 123.533 14
      vertex -38.5433 126.296 14
    endloop
  endfacet
  facet normal 0 0 1
    outer loop
      vertex -34.4915 74.9716 14
      vertex -39 74 14
      vertex -38.9711 73.4119 14
    endloop
  endfacet
  facet normal -0 0 1
    outer loop
      vertex -38.8847 125.171 14
      vertex -34.1888 123.533 14
      vertex -38.7416 125.742 14
    endloop
  endfacet
  facet normal 0 0 1
    outer loop
      vertex -33.0064 73.1619 14
      vertex -35.8284 68.7085 14
      vertex -35.2961 68.4567 14
    endloop
  endfacet
  facet normal 0 0 1
    outer loop
      vertex -34.1888 123.533 14
      vertex -38.8847 125.171 14
      vertex -34.4915 123.028 14
    endloop
  endfacet
  facet normal 0 0 1
    outer loop
      vertex -33.0064 73.1619 14
      vertex -36.3334 69.0112 14
      vertex -35.8284 68.7085 14
    endloop
  endfacet
  facet normal -0 0 1
    outer loop
      vertex -38.9711 124.588 14
      vertex -34.4915 123.028 14
      vertex -38.8847 125.171 14
    endloop
  endfacet
  facet normal 0 0 1
    outer loop
      vertex -33.0064 73.1619 14
      vertex -36.8064 69.3619 14
      vertex -36.3334 69.0112 14
    endloop
  endfacet
  facet normal -0 0 1
    outer loop
      vertex -39 124 14
      vertex -34.4915 123.028 14
      vertex -38.9711 124.588 14
    endloop
  endfacet
  facet normal 0 0 1
    outer loop
      vertex -33.4426 73.5574 14
      vertex -37.2426 69.7574 14
      vertex -36.8064 69.3619 14
    endloop
  endfacet
  facet normal 0 0 1
    outer loop
      vertex -34.4915 123.028 14
      vertex -39 124 14
      vertex -34.7433 122.496 14
    endloop
  endfacet
  facet normal 0 0 1
    outer loop
      vertex -33.4426 73.5574 14
      vertex -37.6381 70.1936 14
      vertex -37.2426 69.7574 14
    endloop
  endfacet
  facet normal 0 0 1
    outer loop
      vertex -34.7433 122.496 14
      vertex -39 124 14
      vertex -34.9416 121.942 14
    endloop
  endfacet
  facet normal 0 0 1
    outer loop
      vertex -33.8381 73.9936 14
      vertex -37.9888 70.6666 14
      vertex -37.6381 70.1936 14
    endloop
  endfacet
  facet normal 0 0 1
    outer loop
      vertex -34.9416 121.942 14
      vertex -39 124 14
      vertex -35.0847 121.371 14
    endloop
  endfacet
  facet normal 0 0 1
    outer loop
      vertex -33.8381 73.9936 14
      vertex -38.2915 71.1716 14
      vertex -37.9888 70.6666 14
    endloop
  endfacet
  facet normal 0 0 1
    outer loop
      vertex -35.0847 121.371 14
      vertex -39 124 14
      vertex -35.1711 120.788 14
    endloop
  endfacet
  facet normal 0 0 1
    outer loop
      vertex -33.8381 73.9936 14
      vertex -38.5433 71.7039 14
      vertex -38.2915 71.1716 14
    endloop
  endfacet
  facet normal 0 0 1
    outer loop
      vertex -35.1711 120.788 14
      vertex -39 124 14
      vertex -35.2 120.2 14
    endloop
  endfacet
  facet normal 0 0 1
    outer loop
      vertex -34.1888 74.4666 14
      vertex -38.7416 72.2583 14
      vertex -38.5433 71.7039 14
    endloop
  endfacet
  facet normal 0 0 1
    outer loop
      vertex -34.1888 74.4666 14
      vertex -38.8847 72.8295 14
      vertex -38.7416 72.2583 14
    endloop
  endfacet
  facet normal 0 0 1
    outer loop
      vertex -34.4915 74.9716 14
      vertex -38.9711 73.4119 14
      vertex -38.8847 72.8295 14
    endloop
  endfacet
  facet normal -0.941503 0.337004 0
    outer loop
      vertex -38.7416 125.742 0
      vertex -38.5433 126.296 14
      vertex -38.5433 126.296 0
    endloop
  endfacet
  facet normal -0.941503 0.337004 0
    outer loop
      vertex -38.5433 126.296 14
      vertex -38.7416 125.742 0
      vertex -38.7416 125.742 14
    endloop
  endfacet
  facet normal 0.857718 -0.514121 0
    outer loop
      vertex 37.9888 70.6666 14
      vertex 38.2915 71.1716 0
      vertex 38.2915 71.1716 14
    endloop
  endfacet
  facet normal 0.857718 -0.514121 0
    outer loop
      vertex 38.2915 71.1716 0
      vertex 37.9888 70.6666 14
      vertex 37.9888 70.6666 0
    endloop
  endfacet
  facet normal 0 0 -1
    outer loop
      vertex 33 68 0
      vertex 39 74 0
      vertex 38.9711 73.4119 0
    endloop
  endfacet
  facet normal -0 0 -1
    outer loop
      vertex 39 74 0
      vertex 33 68 0
      vertex 39 124 0
    endloop
  endfacet
  facet normal 0 0 -1
    outer loop
      vertex 33 68 0
      vertex 38.9711 73.4119 0
      vertex 38.8847 72.8295 0
    endloop
  endfacet
  facet normal 0 0 -1
    outer loop
      vertex 33 130 0
      vertex 39 124 0
      vertex 33 68 0
    endloop
  endfacet
  facet normal 0 0 -1
    outer loop
      vertex 33 68 0
      vertex 38.8847 72.8295 0
      vertex 38.7416 72.2583 0
    endloop
  endfacet
  facet normal 0 0 -1
    outer loop
      vertex 39 124 0
      vertex 33 130 0
      vertex 38.9711 124.588 0
    endloop
  endfacet
  facet normal 0 0 -1
    outer loop
      vertex 33 68 0
      vertex 38.7416 72.2583 0
      vertex 38.5433 71.7039 0
    endloop
  endfacet
  facet normal 0 0 -1
    outer loop
      vertex 38.9711 124.588 0
      vertex 33 130 0
      vertex 38.8847 125.171 0
    endloop
  endfacet
  facet normal 0 0 -1
    outer loop
      vertex 33 68 0
      vertex 38.5433 71.7039 0
      vertex 38.2915 71.1716 0
    endloop
  endfacet
  facet normal 0 0 -1
    outer loop
      vertex 38.8847 125.171 0
      vertex 33 130 0
      vertex 38.7416 125.742 0
    endloop
  endfacet
  facet normal 0 0 -1
    outer loop
      vertex 33 68 0
      vertex 38.2915 71.1716 0
      vertex 37.9888 70.6666 0
    endloop
  endfacet
  facet normal 0 0 -1
    outer loop
      vertex 38.7416 125.742 0
      vertex 33 130 0
      vertex 38.5433 126.296 0
    endloop
  endfacet
  facet normal 0 0 -1
    outer loop
      vertex 33 68 0
      vertex 37.9888 70.6666 0
      vertex 37.6381 70.1936 0
    endloop
  endfacet
  facet normal 0 0 -1
    outer loop
      vertex 38.5433 126.296 0
      vertex 33 130 0
      vertex 38.2915 126.828 0
    endloop
  endfacet
  facet normal 0 0 -1
    outer loop
      vertex 33 68 0
      vertex 37.6381 70.1936 0
      vertex 37.2426 69.7574 0
    endloop
  endfacet
  facet normal 0 0 -1
    outer loop
      vertex 38.2915 126.828 0
      vertex 33 130 0
      vertex 37.9888 127.333 0
    endloop
  endfacet
  facet normal 0 0 -1
    outer loop
      vertex 33 68 0
      vertex 37.2426 69.7574 0
      vertex 36.8064 69.3619 0
    endloop
  endfacet
  facet normal 0 0 -1
    outer loop
      vertex 37.9888 127.333 0
      vertex 33 130 0
      vertex 37.6381 127.806 0
    endloop
  endfacet
  facet normal 0 0 -1
    outer loop
      vertex 33 68 0
      vertex 36.8064 69.3619 0
      vertex 36.3334 69.0112 0
    endloop
  endfacet
  facet normal 0 0 -1
    outer loop
      vertex 37.6381 127.806 0
      vertex 33 130 0
      vertex 37.2426 128.243 0
    endloop
  endfacet
  facet normal 0 0 -1
    outer loop
      vertex 33 68 0
      vertex 36.3334 69.0112 0
      vertex 35.8284 68.7085 0
    endloop
  endfacet
  facet normal 0 0 -1
    outer loop
      vertex 37.2426 128.243 0
      vertex 33 130 0
      vertex 36.8064 128.638 0
    endloop
  endfacet
  facet normal 0 0 -1
    outer loop
      vertex 33 68 0
      vertex 35.8284 68.7085 0
      vertex 35.2961 68.4567 0
    endloop
  endfacet
  facet normal 0 0 -1
    outer loop
      vertex 36.8064 128.638 0
      vertex 33 130 0
      vertex 36.3334 128.989 0
    endloop
  endfacet
  facet normal 0 0 -1
    outer loop
      vertex 33 68 0
      vertex 35.2961 68.4567 0
      vertex 34.7417 68.2584 0
    endloop
  endfacet
  facet normal 0 0 -1
    outer loop
      vertex 36.3334 128.989 0
      vertex 33 130 0
      vertex 35.8284 129.292 0
    endloop
  endfacet
  facet normal 0 0 -1
    outer loop
      vertex 33 68 0
      vertex 34.7417 68.2584 0
      vertex 34.1705 68.1153 0
    endloop
  endfacet
  facet normal 0 0 -1
    outer loop
      vertex 35.8284 129.292 0
      vertex 33 130 0
      vertex 35.2961 129.543 0
    endloop
  endfacet
  facet normal 0 0 -1
    outer loop
      vertex 33 68 0
      vertex 34.1705 68.1153 0
      vertex 33.5881 68.0289 0
    endloop
  endfacet
  facet normal 0 0 -1
    outer loop
      vertex 35.2961 129.543 0
      vertex 33 130 0
      vertex 34.7417 129.742 0
    endloop
  endfacet
  facet normal 0 0 -1
    outer loop
      vertex 34.7417 129.742 0
      vertex 33 130 0
      vertex 34.1705 129.885 0
    endloop
  endfacet
  facet normal 0 0 -1
    outer loop
      vertex 34.1705 129.885 0
      vertex 33 130 0
      vertex 33.5881 129.971 0
    endloop
  endfacet
  facet normal 0 0 -1
    outer loop
      vertex -33 68 0
      vertex 33 130 0
      vertex 33 68 0
    endloop
  endfacet
  facet normal 0 0 -1
    outer loop
      vertex -33 68 0
      vertex -33 130 0
      vertex 33 130 0
    endloop
  endfacet
  facet normal 0 0 -1
    outer loop
      vertex -39 74 0
      vertex -33 68 0
      vertex -33.5881 68.0289 0
    endloop
  endfacet
  facet normal 0 0 -1
    outer loop
      vertex -33 68 0
      vertex -39 74 0
      vertex -33 130 0
    endloop
  endfacet
  facet normal 0 0 -1
    outer loop
      vertex -39 74 0
      vertex -33.5881 68.0289 0
      vertex -34.1705 68.1153 0
    endloop
  endfacet
  facet normal 0 0 -1
    outer loop
      vertex -39 124 0
      vertex -33 130 0
      vertex -39 74 0
    endloop
  endfacet
  facet normal 0 0 -1
    outer loop
      vertex -39 74 0
      vertex -34.1705 68.1153 0
      vertex -34.7417 68.2584 0
    endloop
  endfacet
  facet normal 0 0 -1
    outer loop
      vertex -33 130 0
      vertex -39 124 0
      vertex -33.5881 129.971 0
    endloop
  endfacet
  facet normal 0 0 -1
    outer loop
      vertex -39 74 0
      vertex -34.7417 68.2584 0
      vertex -35.2961 68.4567 0
    endloop
  endfacet
  facet normal 0 0 -1
    outer loop
      vertex -33.5881 129.971 0
      vertex -39 124 0
      vertex -34.1705 129.885 0
    endloop
  endfacet
  facet normal 0 0 -1
    outer loop
      vertex -39 74 0
      vertex -35.2961 68.4567 0
      vertex -35.8284 68.7085 0
    endloop
  endfacet
  facet normal 0 0 -1
    outer loop
      vertex -34.1705 129.885 0
      vertex -39 124 0
      vertex -34.7417 129.742 0
    endloop
  endfacet
  facet normal 0 0 -1
    outer loop
      vertex -39 74 0
      vertex -35.8284 68.7085 0
      vertex -36.3334 69.0112 0
    endloop
  endfacet
  facet normal 0 0 -1
    outer loop
      vertex -34.7417 129.742 0
      vertex -39 124 0
      vertex -35.2961 129.543 0
    endloop
  endfacet
  facet normal 0 0 -1
    outer loop
      vertex -39 74 0
      vertex -36.3334 69.0112 0
      vertex -36.8064 69.3619 0
    endloop
  endfacet
  facet normal 0 0 -1
    outer loop
      vertex -35.2961 129.543 0
      vertex -39 124 0
      vertex -35.8284 129.292 0
    endloop
  endfacet
  facet normal 0 0 -1
    outer loop
      vertex -39 74 0
      vertex -36.8064 69.3619 0
      vertex -37.2426 69.7574 0
    endloop
  endfacet
  facet normal 0 0 -1
    outer loop
      vertex -35.8284 129.292 0
      vertex -39 124 0
      vertex -36.3334 128.989 0
    endloop
  endfacet
  facet normal 0 0 -1
    outer loop
      vertex -39 74 0
      vertex -37.2426 69.7574 0
      vertex -37.6381 70.1936 0
    endloop
  endfacet
  facet normal 0 0 -1
    outer loop
      vertex -36.3334 128.989 0
      vertex -39 124 0
      vertex -36.8064 128.638 0
    endloop
  endfacet
  facet normal 0 0 -1
    outer loop
      vertex -39 74 0
      vertex -37.6381 70.1936 0
      vertex -37.9888 70.6666 0
    endloop
  endfacet
  facet normal 0 0 -1
    outer loop
      vertex -36.8064 128.638 0
      vertex -39 124 0
      vertex -37.2426 128.243 0
    endloop
  endfacet
  facet normal 0 0 -1
    outer loop
      vertex -39 74 0
      vertex -37.9888 70.6666 0
      vertex -38.2915 71.1716 0
    endloop
  endfacet
  facet normal 0 0 -1
    outer loop
      vertex -37.2426 128.243 0
      vertex -39 124 0
      vertex -37.6381 127.806 0
    endloop
  endfacet
  facet normal 0 0 -1
    outer loop
      vertex -39 74 0
      vertex -38.2915 71.1716 0
      vertex -38.5433 71.7039 0
    endloop
  endfacet
  facet normal 0 0 -1
    outer loop
      vertex -37.6381 127.806 0
      vertex -39 124 0
      vertex -37.9888 127.333 0
    endloop
  endfacet
  facet normal 0 0 -1
    outer loop
      vertex -39 74 0
      vertex -38.5433 71.7039 0
      vertex -38.7416 72.2583 0
    endloop
  endfacet
  facet normal 0 0 -1
    outer loop
      vertex -37.9888 127.333 0
      vertex -39 124 0
      vertex -38.2915 126.828 0
    endloop
  endfacet
  facet normal 0 0 -1
    outer loop
      vertex -39 74 0
      vertex -38.7416 72.2583 0
      vertex -38.8847 72.8295 0
    endloop
  endfacet
  facet normal 0 0 -1
    outer loop
      vertex -38.2915 126.828 0
      vertex -39 124 0
      vertex -38.5433 126.296 0
    endloop
  endfacet
  facet normal 0 0 -1
    outer loop
      vertex -39 74 0
      vertex -38.8847 72.8295 0
      vertex -38.9711 73.4119 0
    endloop
  endfacet
  facet normal 0 0 -1
    outer loop
      vertex -38.5433 126.296 0
      vertex -39 124 0
      vertex -38.7416 125.742 0
    endloop
  endfacet
  facet normal 0 0 -1
    outer loop
      vertex -38.7416 125.742 0
      vertex -39 124 0
      vertex -38.8847 125.171 0
    endloop
  endfacet
  facet normal 0 0 -1
    outer loop
      vertex -38.8847 125.171 0
      vertex -39 124 0
      vertex -38.9711 124.588 0
    endloop
  endfacet
  facet normal -0.146746 -0.989174 0
    outer loop
      vertex -34.1705 68.1153 0
      vertex -33.5881 68.0289 14
      vertex -34.1705 68.1153 14
    endloop
  endfacet
  facet normal -0.146746 -0.989174 -0
    outer loop
      vertex -33.5881 68.0289 14
      vertex -34.1705 68.1153 0
      vertex -33.5881 68.0289 0
    endloop
  endfacet
  facet normal 0.336788 -0.94158 0
    outer loop
      vertex 34.7417 68.2584 0
      vertex 35.2961 68.4567 14
      vertex 34.7417 68.2584 14
    endloop
  endfacet
  facet normal 0.336788 -0.94158 0
    outer loop
      vertex 35.2961 68.4567 14
      vertex 34.7417 68.2584 0
      vertex 35.2961 68.4567 0
    endloop
  endfacet
  facet normal 0.595589 -0.803289 0
    outer loop
      vertex 36.3334 69.0112 0
      vertex 36.8064 69.3619 14
      vertex 36.3334 69.0112 14
    endloop
  endfacet
  facet normal 0.595589 -0.803289 0
    outer loop
      vertex 36.8064 69.3619 14
      vertex 36.3334 69.0112 0
      vertex 36.8064 69.3619 0
    endloop
  endfacet
  facet normal -0.903962 -0.427612 0
    outer loop
      vertex -38.2915 71.1716 0
      vertex -38.5433 71.7039 14
      vertex -38.5433 71.7039 0
    endloop
  endfacet
  facet normal -0.903962 -0.427612 0
    outer loop
      vertex -38.5433 71.7039 14
      vertex -38.2915 71.1716 0
      vertex -38.2915 71.1716 14
    endloop
  endfacet
  facet normal 0.146746 -0.989174 0
    outer loop
      vertex 33.5881 68.0289 0
      vertex 34.1705 68.1153 14
      vertex 33.5881 68.0289 14
    endloop
  endfacet
  facet normal 0.146746 -0.989174 0
    outer loop
      vertex 34.1705 68.1153 14
      vertex 33.5881 68.0289 0
      vertex 34.1705 68.1153 0
    endloop
  endfacet
  facet normal 0.998794 -0.0490904 0
    outer loop
      vertex -35.2 120.2 14
      vertex -35.1711 120.788 2
      vertex -35.1711 120.788 14
    endloop
  endfacet
  facet normal 0.998794 -0.0490904 0
    outer loop
      vertex -35.1711 120.788 2
      vertex -35.2 120.2 14
      vertex -35.2 120.2 2
    endloop
  endfacet
  facet normal 0.989196 -0.146598 0
    outer loop
      vertex -35.1711 120.788 14
      vertex -35.0847 121.371 2
      vertex -35.0847 121.371 14
    endloop
  endfacet
  facet normal 0.989196 -0.146598 0
    outer loop
      vertex -35.0847 121.371 2
      vertex -35.1711 120.788 14
      vertex -35.1711 120.788 2
    endloop
  endfacet
  facet normal 0 -1 0
    outer loop
      vertex -29.2 126.2 2
      vertex 29.2 126.2 14
      vertex -29.2 126.2 14
    endloop
  endfacet
  facet normal 0 -1 -0
    outer loop
      vertex 29.2 126.2 14
      vertex -29.2 126.2 2
      vertex 29.2 126.2 2
    endloop
  endfacet
  facet normal -0.0490821 0.998795 0
    outer loop
      vertex 29.7881 71.8289 2
      vertex 29.2 71.8 14
      vertex 29.7881 71.8289 14
    endloop
  endfacet
  facet normal -0.0490821 0.998795 0
    outer loop
      vertex 29.2 71.8 14
      vertex 29.7881 71.8289 2
      vertex 29.2 71.8 2
    endloop
  endfacet
  facet normal -1 0 0
    outer loop
      vertex 35.2 77.8 2
      vertex 35.2 120.2 14
      vertex 35.2 120.2 2
    endloop
  endfacet
  facet normal -1 -0 0
    outer loop
      vertex 35.2 120.2 14
      vertex 35.2 77.8 2
      vertex 35.2 77.8 14
    endloop
  endfacet
  facet normal 1 -0 0
    outer loop
      vertex -35.2 77.8 14
      vertex -35.2 120.2 2
      vertex -35.2 120.2 14
    endloop
  endfacet
  facet normal 1 0 0
    outer loop
      vertex -35.2 120.2 2
      vertex -35.2 77.8 14
      vertex -35.2 77.8 2
    endloop
  endfacet
  facet normal -0.337842 -0.941203 0
    outer loop
      vertex 30.9417 125.942 2
      vertex 31.4961 125.743 14
      vertex 30.9417 125.942 14
    endloop
  endfacet
  facet normal -0.337842 -0.941203 -0
    outer loop
      vertex 31.4961 125.743 14
      vertex 30.9417 125.942 2
      vertex 31.4961 125.743 2
    endloop
  endfacet
  facet normal -0.970002 -0.243095 0
    outer loop
      vertex 35.0847 121.371 2
      vertex 34.9416 121.942 14
      vertex 34.9416 121.942 2
    endloop
  endfacet
  facet normal -0.970002 -0.243095 0
    outer loop
      vertex 34.9416 121.942 14
      vertex 35.0847 121.371 2
      vertex 35.0847 121.371 14
    endloop
  endfacet
  facet normal -0.146081 -0.989273 0
    outer loop
      vertex 29.7881 126.171 2
      vertex 30.3705 126.085 14
      vertex 29.7881 126.171 14
    endloop
  endfacet
  facet normal -0.146081 -0.989273 -0
    outer loop
      vertex 30.3705 126.085 14
      vertex 29.7881 126.171 2
      vertex 30.3705 126.085 2
    endloop
  endfacet
  facet normal 0.903869 -0.427809 0
    outer loop
      vertex -34.7433 122.496 14
      vertex -34.4915 123.028 2
      vertex -34.4915 123.028 14
    endloop
  endfacet
  facet normal 0.903869 -0.427809 0
    outer loop
      vertex -34.4915 123.028 2
      vertex -34.7433 122.496 14
      vertex -34.7433 122.496 2
    endloop
  endfacet
  facet normal 0.337842 -0.941203 0
    outer loop
      vertex -31.4961 125.743 2
      vertex -30.9417 125.942 14
      vertex -31.4961 125.743 14
    endloop
  endfacet
  facet normal 0.337842 -0.941203 0
    outer loop
      vertex -30.9417 125.942 14
      vertex -31.4961 125.743 2
      vertex -30.9417 125.942 2
    endloop
  endfacet
  facet normal 0 1 0
    outer loop
      vertex 29.2 71.8 14
      vertex 19.4 71.8 3
      vertex 19.4 71.8 14
    endloop
  endfacet
  facet normal 0 1 0
    outer loop
      vertex 19.4 71.8 3
      vertex 29.2 71.8 2
      vertex -19.4 71.8 3
    endloop
  endfacet
  facet normal 0 1 -0
    outer loop
      vertex 29.2 71.8 2
      vertex 19.4 71.8 3
      vertex 29.2 71.8 14
    endloop
  endfacet
  facet normal 0 1 -0
    outer loop
      vertex -19.4 71.8 3
      vertex -29.2 71.8 14
      vertex -19.4 71.8 14
    endloop
  endfacet
  facet normal 0 1 0
    outer loop
      vertex -19.4 71.8 3
      vertex -29.2 71.8 2
      vertex -29.2 71.8 14
    endloop
  endfacet
  facet normal 0 1 0
    outer loop
      vertex -29.2 71.8 2
      vertex -19.4 71.8 3
      vertex 29.2 71.8 2
    endloop
  endfacet
  facet normal -0.941503 -0.337004 0
    outer loop
      vertex 34.9416 121.942 2
      vertex 34.7433 122.496 14
      vertex 34.7433 122.496 2
    endloop
  endfacet
  facet normal -0.941503 -0.337004 0
    outer loop
      vertex 34.7433 122.496 14
      vertex 34.9416 121.942 2
      vertex 34.9416 121.942 14
    endloop
  endfacet
  facet normal 0.146081 -0.989273 0
    outer loop
      vertex -30.3705 126.085 2
      vertex -29.7881 126.171 14
      vertex -30.3705 126.085 14
    endloop
  endfacet
  facet normal 0.146081 -0.989273 0
    outer loop
      vertex -29.7881 126.171 14
      vertex -30.3705 126.085 2
      vertex -29.7881 126.171 2
    endloop
  endfacet
  facet normal 0.6717 0.740823 -0
    outer loop
      vertex -33.0064 73.1619 2
      vertex -33.4426 73.5574 14
      vertex -33.0064 73.1619 14
    endloop
  endfacet
  facet normal 0.6717 0.740823 0
    outer loop
      vertex -33.4426 73.5574 14
      vertex -33.0064 73.1619 2
      vertex -33.4426 73.5574 2
    endloop
  endfacet
  facet normal -0.426501 -0.904487 0
    outer loop
      vertex 31.4961 125.743 2
      vertex 32.0284 125.492 14
      vertex 31.4961 125.743 14
    endloop
  endfacet
  facet normal -0.426501 -0.904487 -0
    outer loop
      vertex 32.0284 125.492 14
      vertex 31.4961 125.743 2
      vertex 32.0284 125.492 2
    endloop
  endfacet
  facet normal -0.336788 0.94158 0
    outer loop
      vertex 31.4961 72.2567 2
      vertex 30.9417 72.0584 14
      vertex 31.4961 72.2567 14
    endloop
  endfacet
  facet normal -0.336788 0.94158 0
    outer loop
      vertex 30.9417 72.0584 14
      vertex 31.4961 72.2567 2
      vertex 30.9417 72.0584 2
    endloop
  endfacet
  facet normal 0.903962 0.427612 0
    outer loop
      vertex -34.4915 74.9716 14
      vertex -34.7433 75.5039 2
      vertex -34.7433 75.5039 14
    endloop
  endfacet
  facet normal 0.903962 0.427612 0
    outer loop
      vertex -34.7433 75.5039 2
      vertex -34.4915 74.9716 14
      vertex -34.4915 74.9716 2
    endloop
  endfacet
  facet normal -0.989196 -0.146598 0
    outer loop
      vertex 35.1711 120.788 2
      vertex 35.0847 121.371 14
      vertex 35.0847 121.371 2
    endloop
  endfacet
  facet normal -0.989196 -0.146598 0
    outer loop
      vertex 35.0847 121.371 14
      vertex 35.1711 120.788 2
      vertex 35.1711 120.788 14
    endloop
  endfacet
  facet normal 0.336788 0.94158 -0
    outer loop
      vertex -30.9417 72.0584 2
      vertex -31.4961 72.2567 14
      vertex -30.9417 72.0584 14
    endloop
  endfacet
  facet normal 0.336788 0.94158 0
    outer loop
      vertex -31.4961 72.2567 14
      vertex -30.9417 72.0584 2
      vertex -31.4961 72.2567 2
    endloop
  endfacet
  facet normal -0.903869 -0.427809 0
    outer loop
      vertex 34.7433 122.496 2
      vertex 34.4915 123.028 14
      vertex 34.4915 123.028 2
    endloop
  endfacet
  facet normal -0.903869 -0.427809 0
    outer loop
      vertex 34.4915 123.028 14
      vertex 34.7433 122.496 2
      vertex 34.7433 122.496 14
    endloop
  endfacet
  facet normal 0.0490821 0.998795 -0
    outer loop
      vertex -29.2 71.8 2
      vertex -29.7881 71.8289 14
      vertex -29.2 71.8 14
    endloop
  endfacet
  facet normal 0.0490821 0.998795 0
    outer loop
      vertex -29.7881 71.8289 14
      vertex -29.2 71.8 2
      vertex -29.7881 71.8289 2
    endloop
  endfacet
  facet normal -0.242855 -0.970063 0
    outer loop
      vertex 30.3705 126.085 2
      vertex 30.9417 125.942 14
      vertex 30.3705 126.085 14
    endloop
  endfacet
  facet normal -0.242855 -0.970063 -0
    outer loop
      vertex 30.9417 125.942 14
      vertex 30.3705 126.085 2
      vertex 30.9417 125.942 2
    endloop
  endfacet
  facet normal 0.989174 0.146746 0
    outer loop
      vertex -35.0847 76.6295 14
      vertex -35.1711 77.2119 2
      vertex -35.1711 77.2119 14
    endloop
  endfacet
  facet normal 0.989174 0.146746 0
    outer loop
      vertex -35.1711 77.2119 2
      vertex -35.0847 76.6295 14
      vertex -35.0847 76.6295 2
    endloop
  endfacet
  facet normal -0.803289 0.595589 0
    outer loop
      vertex 33.8381 73.9936 2
      vertex 34.1888 74.4666 14
      vertex 34.1888 74.4666 2
    endloop
  endfacet
  facet normal -0.803289 0.595589 0
    outer loop
      vertex 34.1888 74.4666 14
      vertex 33.8381 73.9936 2
      vertex 33.8381 73.9936 14
    endloop
  endfacet
  facet normal 0.671234 -0.741246 0
    outer loop
      vertex -33.4426 124.443 2
      vertex -33.0064 124.838 14
      vertex -33.4426 124.443 14
    endloop
  endfacet
  facet normal 0.671234 -0.741246 0
    outer loop
      vertex -33.0064 124.838 14
      vertex -33.4426 124.443 2
      vertex -33.0064 124.838 2
    endloop
  endfacet
  facet normal -0.595918 -0.803046 0
    outer loop
      vertex 32.5334 125.189 2
      vertex 33.0064 124.838 14
      vertex 32.5334 125.189 14
    endloop
  endfacet
  facet normal -0.595918 -0.803046 -0
    outer loop
      vertex 33.0064 124.838 14
      vertex 32.5334 125.189 2
      vertex 33.0064 124.838 2
    endloop
  endfacet
  facet normal -0.989174 0.146746 0
    outer loop
      vertex 35.0847 76.6295 2
      vertex 35.1711 77.2119 14
      vertex 35.1711 77.2119 2
    endloop
  endfacet
  facet normal -0.989174 0.146746 0
    outer loop
      vertex 35.1711 77.2119 14
      vertex 35.0847 76.6295 2
      vertex 35.0847 76.6295 14
    endloop
  endfacet
  facet normal -0.903962 0.427612 0
    outer loop
      vertex 34.4915 74.9716 2
      vertex 34.7433 75.5039 14
      vertex 34.7433 75.5039 2
    endloop
  endfacet
  facet normal -0.903962 0.427612 0
    outer loop
      vertex 34.7433 75.5039 14
      vertex 34.4915 74.9716 2
      vertex 34.4915 74.9716 14
    endloop
  endfacet
  facet normal -0.0492515 -0.998786 0
    outer loop
      vertex 29.2 126.2 2
      vertex 29.7881 126.171 14
      vertex 29.2 126.2 14
    endloop
  endfacet
  facet normal -0.0492515 -0.998786 -0
    outer loop
      vertex 29.7881 126.171 14
      vertex 29.2 126.2 2
      vertex 29.7881 126.171 2
    endloop
  endfacet
  facet normal -0.243015 0.970023 0
    outer loop
      vertex 30.9417 72.0584 2
      vertex 30.3705 71.9153 14
      vertex 30.9417 72.0584 14
    endloop
  endfacet
  facet normal -0.243015 0.970023 0
    outer loop
      vertex 30.3705 71.9153 14
      vertex 30.9417 72.0584 2
      vertex 30.3705 71.9153 2
    endloop
  endfacet
  facet normal -0.94158 0.336788 0
    outer loop
      vertex 34.7433 75.5039 2
      vertex 34.9416 76.0583 14
      vertex 34.9416 76.0583 2
    endloop
  endfacet
  facet normal -0.94158 0.336788 0
    outer loop
      vertex 34.9416 76.0583 14
      vertex 34.7433 75.5039 2
      vertex 34.7433 75.5039 14
    endloop
  endfacet
  facet normal -0.998794 -0.0490904 0
    outer loop
      vertex 35.2 120.2 2
      vertex 35.1711 120.788 14
      vertex 35.1711 120.788 2
    endloop
  endfacet
  facet normal -0.998794 -0.0490904 0
    outer loop
      vertex 35.1711 120.788 14
      vertex 35.2 120.2 2
      vertex 35.2 120.2 14
    endloop
  endfacet
  facet normal 0.426501 -0.904487 0
    outer loop
      vertex -32.0284 125.492 2
      vertex -31.4961 125.743 14
      vertex -32.0284 125.492 14
    endloop
  endfacet
  facet normal 0.426501 -0.904487 0
    outer loop
      vertex -31.4961 125.743 14
      vertex -32.0284 125.492 2
      vertex -31.4961 125.743 2
    endloop
  endfacet
  facet normal -0.671234 -0.741246 0
    outer loop
      vertex 33.0064 124.838 2
      vertex 33.4426 124.443 14
      vertex 33.0064 124.838 14
    endloop
  endfacet
  facet normal -0.671234 -0.741246 -0
    outer loop
      vertex 33.4426 124.443 14
      vertex 33.0064 124.838 2
      vertex 33.4426 124.443 2
    endloop
  endfacet
  facet normal 0.242855 -0.970063 0
    outer loop
      vertex -30.9417 125.942 2
      vertex -30.3705 126.085 14
      vertex -30.9417 125.942 14
    endloop
  endfacet
  facet normal 0.242855 -0.970063 0
    outer loop
      vertex -30.3705 126.085 14
      vertex -30.9417 125.942 2
      vertex -30.3705 126.085 2
    endloop
  endfacet
  facet normal 0.741435 -0.671024 0
    outer loop
      vertex -33.8381 124.006 14
      vertex -33.4426 124.443 2
      vertex -33.4426 124.443 14
    endloop
  endfacet
  facet normal 0.741435 -0.671024 0
    outer loop
      vertex -33.4426 124.443 2
      vertex -33.8381 124.006 14
      vertex -33.8381 124.006 2
    endloop
  endfacet
  facet normal 0.514496 -0.857493 0
    outer loop
      vertex -32.5334 125.189 2
      vertex -32.0284 125.492 14
      vertex -32.5334 125.189 14
    endloop
  endfacet
  facet normal 0.514496 -0.857493 0
    outer loop
      vertex -32.0284 125.492 14
      vertex -32.5334 125.189 2
      vertex -32.0284 125.492 2
    endloop
  endfacet
  facet normal -0.741435 -0.671024 0
    outer loop
      vertex 33.8381 124.006 2
      vertex 33.4426 124.443 14
      vertex 33.4426 124.443 2
    endloop
  endfacet
  facet normal -0.741435 -0.671024 0
    outer loop
      vertex 33.4426 124.443 14
      vertex 33.8381 124.006 2
      vertex 33.8381 124.006 14
    endloop
  endfacet
  facet normal 0.427612 0.903962 -0
    outer loop
      vertex -31.4961 72.2567 2
      vertex -32.0284 72.5085 14
      vertex -31.4961 72.2567 14
    endloop
  endfacet
  facet normal 0.427612 0.903962 0
    outer loop
      vertex -32.0284 72.5085 14
      vertex -31.4961 72.2567 2
      vertex -32.0284 72.5085 2
    endloop
  endfacet
  facet normal -0.740823 0.6717 0
    outer loop
      vertex 33.4426 73.5574 2
      vertex 33.8381 73.9936 14
      vertex 33.8381 73.9936 2
    endloop
  endfacet
  facet normal -0.740823 0.6717 0
    outer loop
      vertex 33.8381 73.9936 14
      vertex 33.4426 73.5574 2
      vertex 33.4426 73.5574 14
    endloop
  endfacet
  facet normal -0.595589 0.803289 0
    outer loop
      vertex 33.0064 73.1619 2
      vertex 32.5334 72.8112 14
      vertex 33.0064 73.1619 14
    endloop
  endfacet
  facet normal -0.595589 0.803289 0
    outer loop
      vertex 32.5334 72.8112 14
      vertex 33.0064 73.1619 2
      vertex 32.5334 72.8112 2
    endloop
  endfacet
  facet normal 0.740823 0.6717 0
    outer loop
      vertex -33.4426 73.5574 14
      vertex -33.8381 73.9936 2
      vertex -33.8381 73.9936 14
    endloop
  endfacet
  facet normal 0.740823 0.6717 0
    outer loop
      vertex -33.8381 73.9936 2
      vertex -33.4426 73.5574 14
      vertex -33.4426 73.5574 2
    endloop
  endfacet
  facet normal -0.6717 0.740823 0
    outer loop
      vertex 33.4426 73.5574 2
      vertex 33.0064 73.1619 14
      vertex 33.4426 73.5574 14
    endloop
  endfacet
  facet normal -0.6717 0.740823 0
    outer loop
      vertex 33.0064 73.1619 14
      vertex 33.4426 73.5574 2
      vertex 33.0064 73.1619 2
    endloop
  endfacet
  facet normal 0.243015 0.970023 -0
    outer loop
      vertex -30.3705 71.9153 2
      vertex -30.9417 72.0584 14
      vertex -30.3705 71.9153 14
    endloop
  endfacet
  facet normal 0.243015 0.970023 0
    outer loop
      vertex -30.9417 72.0584 14
      vertex -30.3705 71.9153 2
      vertex -30.9417 72.0584 2
    endloop
  endfacet
  facet normal 0.0492515 -0.998786 0
    outer loop
      vertex -29.7881 126.171 2
      vertex -29.2 126.2 14
      vertex -29.7881 126.171 14
    endloop
  endfacet
  facet normal 0.0492515 -0.998786 0
    outer loop
      vertex -29.2 126.2 14
      vertex -29.7881 126.171 2
      vertex -29.2 126.2 2
    endloop
  endfacet
  facet normal 0.970002 -0.243095 0
    outer loop
      vertex -35.0847 121.371 14
      vertex -34.9416 121.942 2
      vertex -34.9416 121.942 14
    endloop
  endfacet
  facet normal 0.970002 -0.243095 0
    outer loop
      vertex -34.9416 121.942 2
      vertex -35.0847 121.371 14
      vertex -35.0847 121.371 2
    endloop
  endfacet
  facet normal -0.146746 0.989174 0
    outer loop
      vertex 30.3705 71.9153 2
      vertex 29.7881 71.8289 14
      vertex 30.3705 71.9153 14
    endloop
  endfacet
  facet normal -0.146746 0.989174 0
    outer loop
      vertex 29.7881 71.8289 14
      vertex 30.3705 71.9153 2
      vertex 29.7881 71.8289 2
    endloop
  endfacet
  facet normal 0.595918 -0.803046 0
    outer loop
      vertex -33.0064 124.838 2
      vertex -32.5334 125.189 14
      vertex -33.0064 124.838 14
    endloop
  endfacet
  facet normal 0.595918 -0.803046 0
    outer loop
      vertex -32.5334 125.189 14
      vertex -33.0064 124.838 2
      vertex -32.5334 125.189 2
    endloop
  endfacet
  facet normal 0.146746 0.989174 -0
    outer loop
      vertex -29.7881 71.8289 2
      vertex -30.3705 71.9153 14
      vertex -29.7881 71.8289 14
    endloop
  endfacet
  facet normal 0.146746 0.989174 0
    outer loop
      vertex -30.3705 71.9153 14
      vertex -29.7881 71.8289 2
      vertex -30.3705 71.9153 2
    endloop
  endfacet
  facet normal -0.998795 0.0490821 0
    outer loop
      vertex 35.1711 77.2119 2
      vertex 35.2 77.8 14
      vertex 35.2 77.8 2
    endloop
  endfacet
  facet normal -0.998795 0.0490821 0
    outer loop
      vertex 35.2 77.8 14
      vertex 35.1711 77.2119 2
      vertex 35.1711 77.2119 14
    endloop
  endfacet
  facet normal -0.514496 -0.857493 0
    outer loop
      vertex 32.0284 125.492 2
      vertex 32.5334 125.189 14
      vertex 32.0284 125.492 14
    endloop
  endfacet
  facet normal -0.514496 -0.857493 -0
    outer loop
      vertex 32.5334 125.189 14
      vertex 32.0284 125.492 2
      vertex 32.5334 125.189 2
    endloop
  endfacet
  facet normal 0.970023 0.243015 0
    outer loop
      vertex -34.9416 76.0583 14
      vertex -35.0847 76.6295 2
      vertex -35.0847 76.6295 14
    endloop
  endfacet
  facet normal 0.970023 0.243015 0
    outer loop
      vertex -35.0847 76.6295 2
      vertex -34.9416 76.0583 14
      vertex -34.9416 76.0583 2
    endloop
  endfacet
  facet normal 0.595589 0.803289 -0
    outer loop
      vertex -32.5334 72.8112 2
      vertex -33.0064 73.1619 14
      vertex -32.5334 72.8112 14
    endloop
  endfacet
  facet normal 0.595589 0.803289 0
    outer loop
      vertex -33.0064 73.1619 14
      vertex -32.5334 72.8112 2
      vertex -33.0064 73.1619 2
    endloop
  endfacet
  facet normal 0.514121 0.857718 -0
    outer loop
      vertex -32.0284 72.5085 2
      vertex -32.5334 72.8112 14
      vertex -32.0284 72.5085 14
    endloop
  endfacet
  facet normal 0.514121 0.857718 0
    outer loop
      vertex -32.5334 72.8112 14
      vertex -32.0284 72.5085 2
      vertex -32.5334 72.8112 2
    endloop
  endfacet
  facet normal 0.803289 -0.595589 0
    outer loop
      vertex -34.1888 123.533 14
      vertex -33.8381 124.006 2
      vertex -33.8381 124.006 14
    endloop
  endfacet
  facet normal 0.803289 -0.595589 0
    outer loop
      vertex -33.8381 124.006 2
      vertex -34.1888 123.533 14
      vertex -34.1888 123.533 2
    endloop
  endfacet
  facet normal -0.857718 0.514121 0
    outer loop
      vertex 34.1888 74.4666 2
      vertex 34.4915 74.9716 14
      vertex 34.4915 74.9716 2
    endloop
  endfacet
  facet normal -0.857718 0.514121 0
    outer loop
      vertex 34.4915 74.9716 14
      vertex 34.1888 74.4666 2
      vertex 34.1888 74.4666 14
    endloop
  endfacet
  facet normal -0.857718 -0.514121 0
    outer loop
      vertex 34.4915 123.028 2
      vertex 34.1888 123.533 14
      vertex 34.1888 123.533 2
    endloop
  endfacet
  facet normal -0.857718 -0.514121 0
    outer loop
      vertex 34.1888 123.533 14
      vertex 34.4915 123.028 2
      vertex 34.4915 123.028 14
    endloop
  endfacet
  facet normal -0.803289 -0.595589 0
    outer loop
      vertex 34.1888 123.533 2
      vertex 33.8381 124.006 14
      vertex 33.8381 124.006 2
    endloop
  endfacet
  facet normal -0.803289 -0.595589 0
    outer loop
      vertex 33.8381 124.006 14
      vertex 34.1888 123.533 2
      vertex 34.1888 123.533 14
    endloop
  endfacet
  facet normal 0.857718 0.514121 0
    outer loop
      vertex -34.1888 74.4666 14
      vertex -34.4915 74.9716 2
      vertex -34.4915 74.9716 14
    endloop
  endfacet
  facet normal 0.857718 0.514121 0
    outer loop
      vertex -34.4915 74.9716 2
      vertex -34.1888 74.4666 14
      vertex -34.1888 74.4666 2
    endloop
  endfacet
  facet normal 0.857718 -0.514121 0
    outer loop
      vertex -34.4915 123.028 14
      vertex -34.1888 123.533 2
      vertex -34.1888 123.533 14
    endloop
  endfacet
  facet normal 0.857718 -0.514121 0
    outer loop
      vertex -34.1888 123.533 2
      vertex -34.4915 123.028 14
      vertex -34.4915 123.028 2
    endloop
  endfacet
  facet normal 0.803289 0.595589 0
    outer loop
      vertex -33.8381 73.9936 14
      vertex -34.1888 74.4666 2
      vertex -34.1888 74.4666 14
    endloop
  endfacet
  facet normal 0.803289 0.595589 0
    outer loop
      vertex -34.1888 74.4666 2
      vertex -33.8381 73.9936 14
      vertex -33.8381 73.9936 2
    endloop
  endfacet
  facet normal -0.514121 0.857718 0
    outer loop
      vertex 32.5334 72.8112 2
      vertex 32.0284 72.5085 14
      vertex 32.5334 72.8112 14
    endloop
  endfacet
  facet normal -0.514121 0.857718 0
    outer loop
      vertex 32.0284 72.5085 14
      vertex 32.5334 72.8112 2
      vertex 32.0284 72.5085 2
    endloop
  endfacet
  facet normal -0.427612 0.903962 0
    outer loop
      vertex 32.0284 72.5085 2
      vertex 31.4961 72.2567 14
      vertex 32.0284 72.5085 14
    endloop
  endfacet
  facet normal -0.427612 0.903962 0
    outer loop
      vertex 31.4961 72.2567 14
      vertex 32.0284 72.5085 2
      vertex 31.4961 72.2567 2
    endloop
  endfacet
  facet normal 0.94158 0.336788 0
    outer loop
      vertex -34.7433 75.5039 14
      vertex -34.9416 76.0583 2
      vertex -34.9416 76.0583 14
    endloop
  endfacet
  facet normal 0.94158 0.336788 0
    outer loop
      vertex -34.9416 76.0583 2
      vertex -34.7433 75.5039 14
      vertex -34.7433 75.5039 2
    endloop
  endfacet
  facet normal 0.998795 0.0490821 0
    outer loop
      vertex -35.1711 77.2119 14
      vertex -35.2 77.8 2
      vertex -35.2 77.8 14
    endloop
  endfacet
  facet normal 0.998795 0.0490821 0
    outer loop
      vertex -35.2 77.8 2
      vertex -35.1711 77.2119 14
      vertex -35.1711 77.2119 2
    endloop
  endfacet
  facet normal -0.970023 0.243015 0
    outer loop
      vertex 34.9416 76.0583 2
      vertex 35.0847 76.6295 14
      vertex 35.0847 76.6295 2
    endloop
  endfacet
  facet normal -0.970023 0.243015 0
    outer loop
      vertex 35.0847 76.6295 14
      vertex 34.9416 76.0583 2
      vertex 34.9416 76.0583 14
    endloop
  endfacet
  facet normal 0.941503 -0.337004 0
    outer loop
      vertex -34.9416 121.942 14
      vertex -34.7433 122.496 2
      vertex -34.7433 122.496 14
    endloop
  endfacet
  facet normal 0.941503 -0.337004 0
    outer loop
      vertex -34.7433 122.496 2
      vertex -34.9416 121.942 14
      vertex -34.9416 121.942 2
    endloop
  endfacet
  facet normal 0 0 1
    outer loop
      vertex 29.2 126.2 2
      vertex 35.2 120.2 2
      vertex 35.1711 120.788 2
    endloop
  endfacet
  facet normal 0 0 1
    outer loop
      vertex 35.2 120.2 2
      vertex 29.2 126.2 2
      vertex 35.2 77.8 2
    endloop
  endfacet
  facet normal 0 0 1
    outer loop
      vertex 29.2 126.2 2
      vertex 35.1711 120.788 2
      vertex 35.0847 121.371 2
    endloop
  endfacet
  facet normal 0 0 1
    outer loop
      vertex 29.2 71.8 2
      vertex 35.2 77.8 2
      vertex 29.2 126.2 2
    endloop
  endfacet
  facet normal 0 0 1
    outer loop
      vertex 29.2 126.2 2
      vertex 35.0847 121.371 2
      vertex 34.9416 121.942 2
    endloop
  endfacet
  facet normal 0 0 1
    outer loop
      vertex 35.2 77.8 2
      vertex 29.2 71.8 2
      vertex 35.1711 77.2119 2
    endloop
  endfacet
  facet normal 0 0 1
    outer loop
      vertex 29.2 126.2 2
      vertex 34.9416 121.942 2
      vertex 34.7433 122.496 2
    endloop
  endfacet
  facet normal 0 0 1
    outer loop
      vertex 35.1711 77.2119 2
      vertex 29.2 71.8 2
      vertex 35.0847 76.6295 2
    endloop
  endfacet
  facet normal 0 0 1
    outer loop
      vertex 29.2 126.2 2
      vertex 34.7433 122.496 2
      vertex 34.4915 123.028 2
    endloop
  endfacet
  facet normal 0 0 1
    outer loop
      vertex 35.0847 76.6295 2
      vertex 29.2 71.8 2
      vertex 34.9416 76.0583 2
    endloop
  endfacet
  facet normal 0 0 1
    outer loop
      vertex 29.2 126.2 2
      vertex 34.4915 123.028 2
      vertex 34.1888 123.533 2
    endloop
  endfacet
  facet normal 0 0 1
    outer loop
      vertex 34.9416 76.0583 2
      vertex 29.2 71.8 2
      vertex 34.7433 75.5039 2
    endloop
  endfacet
  facet normal 0 0 1
    outer loop
      vertex 29.2 126.2 2
      vertex 34.1888 123.533 2
      vertex 33.8381 124.006 2
    endloop
  endfacet
  facet normal 0 0 1
    outer loop
      vertex 34.7433 75.5039 2
      vertex 29.2 71.8 2
      vertex 34.4915 74.9716 2
    endloop
  endfacet
  facet normal 0 0 1
    outer loop
      vertex 29.2 126.2 2
      vertex 33.8381 124.006 2
      vertex 33.4426 124.443 2
    endloop
  endfacet
  facet normal 0 0 1
    outer loop
      vertex 34.4915 74.9716 2
      vertex 29.2 71.8 2
      vertex 34.1888 74.4666 2
    endloop
  endfacet
  facet normal 0 0 1
    outer loop
      vertex 29.2 126.2 2
      vertex 33.4426 124.443 2
      vertex 33.0064 124.838 2
    endloop
  endfacet
  facet normal 0 0 1
    outer loop
      vertex 34.1888 74.4666 2
      vertex 29.2 71.8 2
      vertex 33.8381 73.9936 2
    endloop
  endfacet
  facet normal 0 0 1
    outer loop
      vertex 29.2 126.2 2
      vertex 33.0064 124.838 2
      vertex 32.5334 125.189 2
    endloop
  endfacet
  facet normal 0 0 1
    outer loop
      vertex 33.8381 73.9936 2
      vertex 29.2 71.8 2
      vertex 33.4426 73.5574 2
    endloop
  endfacet
  facet normal 0 0 1
    outer loop
      vertex 29.2 126.2 2
      vertex 32.5334 125.189 2
      vertex 32.0284 125.492 2
    endloop
  endfacet
  facet normal 0 0 1
    outer loop
      vertex 33.4426 73.5574 2
      vertex 29.2 71.8 2
      vertex 33.0064 73.1619 2
    endloop
  endfacet
  facet normal 0 0 1
    outer loop
      vertex 29.2 126.2 2
      vertex 32.0284 125.492 2
      vertex 31.4961 125.743 2
    endloop
  endfacet
  facet normal 0 0 1
    outer loop
      vertex 33.0064 73.1619 2
      vertex 29.2 71.8 2
      vertex 32.5334 72.8112 2
    endloop
  endfacet
  facet normal 0 0 1
    outer loop
      vertex 29.2 126.2 2
      vertex 31.4961 125.743 2
      vertex 30.9417 125.942 2
    endloop
  endfacet
  facet normal 0 0 1
    outer loop
      vertex 32.5334 72.8112 2
      vertex 29.2 71.8 2
      vertex 32.0284 72.5085 2
    endloop
  endfacet
  facet normal 0 0 1
    outer loop
      vertex 29.2 126.2 2
      vertex 30.9417 125.942 2
      vertex 30.3705 126.085 2
    endloop
  endfacet
  facet normal 0 0 1
    outer loop
      vertex 32.0284 72.5085 2
      vertex 29.2 71.8 2
      vertex 31.4961 72.2567 2
    endloop
  endfacet
  facet normal 0 0 1
    outer loop
      vertex 29.2 126.2 2
      vertex 30.3705 126.085 2
      vertex 29.7881 126.171 2
    endloop
  endfacet
  facet normal 0 0 1
    outer loop
      vertex 31.4961 72.2567 2
      vertex 29.2 71.8 2
      vertex 30.9417 72.0584 2
    endloop
  endfacet
  facet normal 0 0 1
    outer loop
      vertex 30.9417 72.0584 2
      vertex 29.2 71.8 2
      vertex 30.3705 71.9153 2
    endloop
  endfacet
  facet normal 0 0 1
    outer loop
      vertex 30.3705 71.9153 2
      vertex 29.2 71.8 2
      vertex 29.7881 71.8289 2
    endloop
  endfacet
  facet normal -0 0 1
    outer loop
      vertex -29.2 126.2 2
      vertex 29.2 71.8 2
      vertex 29.2 126.2 2
    endloop
  endfacet
  facet normal 0 0 1
    outer loop
      vertex -29.2 126.2 2
      vertex -29.2 71.8 2
      vertex 29.2 71.8 2
    endloop
  endfacet
  facet normal 0 0 1
    outer loop
      vertex -35.2 120.2 2
      vertex -29.2 126.2 2
      vertex -29.7881 126.171 2
    endloop
  endfacet
  facet normal 0 0 1
    outer loop
      vertex -29.2 126.2 2
      vertex -35.2 120.2 2
      vertex -29.2 71.8 2
    endloop
  endfacet
  facet normal 0 0 1
    outer loop
      vertex -35.2 120.2 2
      vertex -29.7881 126.171 2
      vertex -30.3705 126.085 2
    endloop
  endfacet
  facet normal -0 0 1
    outer loop
      vertex -35.2 77.8 2
      vertex -29.2 71.8 2
      vertex -35.2 120.2 2
    endloop
  endfacet
  facet normal 0 0 1
    outer loop
      vertex -35.2 120.2 2
      vertex -30.3705 126.085 2
      vertex -30.9417 125.942 2
    endloop
  endfacet
  facet normal 0 0 1
    outer loop
      vertex -29.2 71.8 2
      vertex -35.2 77.8 2
      vertex -29.7881 71.8289 2
    endloop
  endfacet
  facet normal 0 0 1
    outer loop
      vertex -35.2 120.2 2
      vertex -30.9417 125.942 2
      vertex -31.4961 125.743 2
    endloop
  endfacet
  facet normal 0 0 1
    outer loop
      vertex -29.7881 71.8289 2
      vertex -35.2 77.8 2
      vertex -30.3705 71.9153 2
    endloop
  endfacet
  facet normal 0 0 1
    outer loop
      vertex -35.2 120.2 2
      vertex -31.4961 125.743 2
      vertex -32.0284 125.492 2
    endloop
  endfacet
  facet normal 0 0 1
    outer loop
      vertex -30.3705 71.9153 2
      vertex -35.2 77.8 2
      vertex -30.9417 72.0584 2
    endloop
  endfacet
  facet normal 0 0 1
    outer loop
      vertex -35.2 120.2 2
      vertex -32.0284 125.492 2
      vertex -32.5334 125.189 2
    endloop
  endfacet
  facet normal 0 0 1
    outer loop
      vertex -30.9417 72.0584 2
      vertex -35.2 77.8 2
      vertex -31.4961 72.2567 2
    endloop
  endfacet
  facet normal 0 0 1
    outer loop
      vertex -35.2 120.2 2
      vertex -32.5334 125.189 2
      vertex -33.0064 124.838 2
    endloop
  endfacet
  facet normal 0 0 1
    outer loop
      vertex -31.4961 72.2567 2
      vertex -35.2 77.8 2
      vertex -32.0284 72.5085 2
    endloop
  endfacet
  facet normal 0 0 1
    outer loop
      vertex -35.2 120.2 2
      vertex -33.0064 124.838 2
      vertex -33.4426 124.443 2
    endloop
  endfacet
  facet normal 0 0 1
    outer loop
      vertex -32.0284 72.5085 2
      vertex -35.2 77.8 2
      vertex -32.5334 72.8112 2
    endloop
  endfacet
  facet normal 0 0 1
    outer loop
      vertex -35.2 120.2 2
      vertex -33.4426 124.443 2
      vertex -33.8381 124.006 2
    endloop
  endfacet
  facet normal 0 0 1
    outer loop
      vertex -32.5334 72.8112 2
      vertex -35.2 77.8 2
      vertex -33.0064 73.1619 2
    endloop
  endfacet
  facet normal 0 0 1
    outer loop
      vertex -35.2 120.2 2
      vertex -33.8381 124.006 2
      vertex -34.1888 123.533 2
    endloop
  endfacet
  facet normal 0 0 1
    outer loop
      vertex -33.0064 73.1619 2
      vertex -35.2 77.8 2
      vertex -33.4426 73.5574 2
    endloop
  endfacet
  facet normal 0 0 1
    outer loop
      vertex -35.2 120.2 2
      vertex -34.1888 123.533 2
      vertex -34.4915 123.028 2
    endloop
  endfacet
  facet normal 0 0 1
    outer loop
      vertex -33.4426 73.5574 2
      vertex -35.2 77.8 2
      vertex -33.8381 73.9936 2
    endloop
  endfacet
  facet normal 0 0 1
    outer loop
      vertex -35.2 120.2 2
      vertex -34.4915 123.028 2
      vertex -34.7433 122.496 2
    endloop
  endfacet
  facet normal 0 0 1
    outer loop
      vertex -33.8381 73.9936 2
      vertex -35.2 77.8 2
      vertex -34.1888 74.4666 2
    endloop
  endfacet
  facet normal 0 0 1
    outer loop
      vertex -35.2 120.2 2
      vertex -34.7433 122.496 2
      vertex -34.9416 121.942 2
    endloop
  endfacet
  facet normal 0 0 1
    outer loop
      vertex -34.1888 74.4666 2
      vertex -35.2 77.8 2
      vertex -34.4915 74.9716 2
    endloop
  endfacet
  facet normal 0 0 1
    outer loop
      vertex -35.2 120.2 2
      vertex -34.9416 121.942 2
      vertex -35.0847 121.371 2
    endloop
  endfacet
  facet normal 0 0 1
    outer loop
      vertex -34.4915 74.9716 2
      vertex -35.2 77.8 2
      vertex -34.7433 75.5039 2
    endloop
  endfacet
  facet normal 0 0 1
    outer loop
      vertex -35.2 120.2 2
      vertex -35.0847 121.371 2
      vertex -35.1711 120.788 2
    endloop
  endfacet
  facet normal 0 0 1
    outer loop
      vertex -34.7433 75.5039 2
      vertex -35.2 77.8 2
      vertex -34.9416 76.0583 2
    endloop
  endfacet
  facet normal 0 0 1
    outer loop
      vertex -34.9416 76.0583 2
      vertex -35.2 77.8 2
      vertex -35.0847 76.6295 2
    endloop
  endfacet
  facet normal 0 0 1
    outer loop
      vertex -35.0847 76.6295 2
      vertex -35.2 77.8 2
      vertex -35.1711 77.2119 2
    endloop
  endfacet
  facet normal -1 0 0
    outer loop
      vertex 19.4 68 3
      vertex 19.4 71.8 14
      vertex 19.4 71.8 3
    endloop
  endfacet
  facet normal -1 -0 0
    outer loop
      vertex 19.4 71.8 14
      vertex 19.4 68 3
      vertex 19.4 68 14
    endloop
  endfacet
  facet normal -0 0 1
    outer loop
      vertex -19.4 71.8 3
      vertex 19.4 68 3
      vertex 19.4 71.8 3
    endloop
  endfacet
  facet normal 0 0 1
    outer loop
      vertex 19.4 68 3
      vertex -19.4 71.8 3
      vertex -19.4 68 3
    endloop
  endfacet
  facet normal 1 -0 0
    outer loop
      vertex -19.4 68 14
      vertex -19.4 71.8 3
      vertex -19.4 71.8 14
    endloop
  endfacet
  facet normal 1 0 0
    outer loop
      vertex -19.4 71.8 3
      vertex -19.4 68 14
      vertex -19.4 68 3
    endloop
  endfacet
endsolid OpenSCAD_Model
